<?xml version="1.0"?>
<svg xmlns="http://www.w3.org/2000/svg" xmlns:lc="https://librecad.org" xmlns:xlink="http://www.w3.org/1999/xlink" width="468mm" height="244mm" viewBox="0 0 468 244">
    <g lc:layername="0" lc:is_locked="false" lc:is_construction="false" fill="none" stroke="black" stroke-width="0.2">
        <line x1="230" y1="5" x2="230" y2="115"/>
        <path d="M225,120 A5,5 0 0,0 230,115 "/>
        <path d="M230,5 A5,5 0 0,0 225,0 "/>
        <circle cx="223" cy="7" r="2.475"/>
        <circle cx="223" cy="113" r="2.475"/>
        <path d="M5,0 A5,5 0 0,0 0,5 "/>
        <line x1="0" y1="5" x2="0" y2="115"/>
        <path d="M0,115 A5,5 0 0,0 5,120 "/>
        <circle cx="7" cy="7" r="2.475"/>
        <circle cx="12" cy="108" r="2.475"/>
        <line x1="5" y1="0" x2="225" y2="0"/>
        <line x1="5" y1="120" x2="225" y2="120"/>
        <circle cx="6.5" cy="113.5" r="2"/>
        <line x1="468" y1="5" x2="468" y2="115"/>
        <path d="M463,120 A5,5 0 0,0 468,115 "/>
        <path d="M468,5 A5,5 0 0,0 463,0 "/>
        <circle cx="461" cy="7" r="2.475"/>
        <circle cx="461" cy="113" r="2.475"/>
        <path d="M277.5,104.5 L318.5,104.5 L318.5,63.5 L277.5,63.5 L277.5,104.5 Z "/>
        <line x1="379" y1="75" x2="449" y2="75"/>
        <line x1="379" y1="115" x2="449" y2="115"/>
        <line x1="374" y1="80" x2="374" y2="110"/>
        <line x1="454" y1="80" x2="454" y2="110"/>
        <path d="M379,75 A5,5 0 0,0 374,80 "/>
        <path d="M374,110 A5,5 0 0,0 379,115 "/>
        <path d="M454,80 A5,5 0 0,0 449,75 "/>
        <path d="M449,115 A5,5 0 0,0 454,110 "/>
        <path d="M272,5 L332.5,5 L332.5,14.5 L272,14.5 L272,5 Z "/>
        <path d="M243,0 A5,5 0 0,0 238,5 "/>
        <line x1="238" y1="5" x2="238" y2="115"/>
        <path d="M238,115 A5,5 0 0,0 243,120 "/>
        <circle cx="245" cy="7" r="2.475"/>
        <circle cx="250" cy="108" r="2.475"/>
        <line x1="243" y1="0" x2="463" y2="0"/>
        <line x1="243" y1="120" x2="463" y2="120"/>
        <path d="M284.225,43.05 L268.225,43.05 L268.225,27.05 L284.225,27.05 L284.225,43.05 Z "/>
        <path d="M313.32,43.17 L297.32,43.17 L297.32,27.17 L313.32,27.17 L313.32,43.17 Z "/>
        <path d="M339.92,54.52 L323.92,54.52 L323.92,38.52 L339.92,38.52 L339.92,54.52 Z "/>
        <path d="M357.42,107.62 L341.42,107.62 L341.42,91.62 L357.42,91.62 L357.42,107.62 Z "/>
        <path d="M374.86,43.11 L358.86,43.11 L358.86,27.11 L374.86,27.11 L374.86,43.11 Z "/>
        <path d="M369.25,74.15 L353.25,74.15 L353.25,58.15 L369.25,58.15 L369.25,74.15 Z "/>
        <path d="M401.42,31.58 L385.42,31.58 L385.42,15.58 L401.42,15.58 L401.42,31.58 Z "/>
        <path d="M395.86,63.04 L379.86,63.04 L379.86,47.04 L395.86,47.04 L395.86,63.04 Z "/>
        <path d="M430.39,31.46 L414.39,31.46 L414.39,15.46 L430.39,15.46 L430.39,31.46 Z "/>
        <path d="M424.71,63.04 L408.71,63.04 L408.71,47.04 L424.71,47.04 L424.71,63.04 Z "/>
        <path d="M459.3364,34.9504 L443.3364,34.9504 L443.3364,18.9504 L459.3364,18.9504 L459.3364,34.9504 Z "/>
        <path d="M453.8964,66.2904 L437.8964,66.2904 L437.8964,50.2904 L453.8964,50.2904 L453.8964,66.2904 Z "/>
        <circle cx="244.5" cy="113.5" r="2"/>
        <line x1="230" y1="129" x2="230" y2="239"/>
        <path d="M225,244 A5,5 0 0,0 230,239 "/>
        <path d="M230,129 A5,5 0 0,0 225,124 "/>
        <circle cx="223" cy="131" r="2.475"/>
        <circle cx="223" cy="237" r="2.475"/>
        <path d="M34,129 L94.5,129 L94.5,138.5 L34,138.5 L34,129 Z "/>
        <circle cx="111.42" cy="223.62" r="13.25"/>
        <path d="M5,124 A5,5 0 0,0 0,129 "/>
        <line x1="0" y1="129" x2="0" y2="239"/>
        <path d="M0,239 A5,5 0 0,0 5,244 "/>
        <circle cx="7" cy="131" r="2.475"/>
        <circle cx="12" cy="232" r="2.475"/>
        <line x1="5" y1="124" x2="225" y2="124"/>
        <line x1="5" y1="244" x2="225" y2="244"/>
        <circle cx="38.225" cy="159.05" r="11.5"/>
        <circle cx="67.32" cy="159.17" r="11.5"/>
        <circle cx="93.92" cy="170.52" r="11.5"/>
        <circle cx="123.25" cy="190.15" r="11.5"/>
        <circle cx="128.86" cy="159.11" r="11.5"/>
        <circle cx="155.42" cy="147.58" r="11.5"/>
        <circle cx="149.86" cy="179.04" r="11.5"/>
        <circle cx="184.39" cy="147.46" r="11.5"/>
        <circle cx="178.71" cy="179.04" r="11.5"/>
        <circle cx="213.336" cy="150.9504" r="11.5"/>
        <circle cx="207.896" cy="182.2904" r="11.5"/>
        <circle cx="6.5" cy="237.5" r="2"/>
        <line x1="468" y1="129" x2="468" y2="239"/>
        <path d="M463,244 A5,5 0 0,0 468,239 "/>
        <path d="M468,129 A5,5 0 0,0 463,124 "/>
        <circle cx="461" cy="131" r="2.475"/>
        <circle cx="461" cy="237" r="2.475"/>
        <path d="M277.5,228.5 L318.5,228.5 L318.5,187.5 L277.5,187.5 L277.5,228.5 Z "/>
        <line x1="379" y1="199" x2="449" y2="199"/>
        <line x1="379" y1="239" x2="449" y2="239"/>
        <line x1="374" y1="204" x2="374" y2="234"/>
        <line x1="454" y1="204" x2="454" y2="234"/>
        <path d="M379,199 A5,5 0 0,0 374,204 "/>
        <path d="M374,234 A5,5 0 0,0 379,239 "/>
        <path d="M454,204 A5,5 0 0,0 449,199 "/>
        <path d="M449,239 A5,5 0 0,0 454,234 "/>
        <path d="M272,129 L332.5,129 L332.5,138.5 L272,138.5 L272,129 Z "/>
        <path d="M243,124 A5,5 0 0,0 238,129 "/>
        <line x1="238" y1="129" x2="238" y2="239"/>
        <path d="M238,239 A5,5 0 0,0 243,244 "/>
        <circle cx="245" cy="131" r="2.475"/>
        <circle cx="250" cy="232" r="2.475"/>
        <line x1="243" y1="124" x2="463" y2="124"/>
        <line x1="243" y1="244" x2="463" y2="244"/>
        <path d="M348,124 L358,124 L358,133 L348,133 L348,124 Z "/>
        <path d="M284.225,167.05 L268.225,167.05 L268.225,151.05 L284.225,151.05 L284.225,167.05 Z "/>
        <path d="M313.32,167.17 L297.32,167.17 L297.32,151.17 L313.32,151.17 L313.32,167.17 Z "/>
        <path d="M339.92,178.52 L323.92,178.52 L323.92,162.52 L339.92,162.52 L339.92,178.52 Z "/>
        <path d="M357.42,231.62 L341.42,231.62 L341.42,215.62 L357.42,215.62 L357.42,231.62 Z "/>
        <path d="M374.86,167.11 L358.86,167.11 L358.86,151.11 L374.86,151.11 L374.86,167.11 Z "/>
        <path d="M369.25,198.15 L353.25,198.15 L353.25,182.15 L369.25,182.15 L369.25,198.15 Z "/>
        <path d="M401.42,155.58 L385.42,155.58 L385.42,139.58 L401.42,139.58 L401.42,155.58 Z "/>
        <path d="M395.86,187.04 L379.86,187.04 L379.86,171.04 L395.86,171.04 L395.86,187.04 Z "/>
        <path d="M430.39,155.46 L414.39,155.46 L414.39,139.46 L430.39,139.46 L430.39,155.46 Z "/>
        <path d="M424.71,187.04 L408.71,187.04 L408.71,171.04 L424.71,171.04 L424.71,187.04 Z "/>
        <path d="M459.3364,158.9504 L443.3364,158.9504 L443.3364,142.9504 L459.3364,142.9504 L459.3364,158.9504 Z "/>
        <path d="M453.8964,190.2904 L437.8964,190.2904 L437.8964,174.2904 L453.8964,174.2904 L453.8964,190.2904 Z "/>
        <circle cx="244.5" cy="237.5" r="2"/>
        <path d="M355,1.25 L358.5,1.25 L358.5,8.5 L355,8.5 L355,1.25 Z "/>
        <path d="M350.5,1.25 L347,1.25 L347,8.5 L350.5,8.5 L350.5,1.25 Z "/>
        <path d="M348.5,135.68 L352.5,135.68 L352.5,137.68 L348.5,137.68 L348.5,135.68 Z "/>
        <path d="M353.5,135.68 L357.5,135.68 L357.5,137.68 L353.5,137.68 L353.5,135.68 Z "/>
    </g>
</svg>
