%TF.GenerationSoftware,KiCad,Pcbnew,(6.0.5)*%
%TF.CreationDate,2022-08-30T07:27:48-07:00*%
%TF.ProjectId,chastity-device-rev2,63686173-7469-4747-992d-646576696365,rev?*%
%TF.SameCoordinates,Original*%
%TF.FileFunction,Legend,Top*%
%TF.FilePolarity,Positive*%
%FSLAX46Y46*%
G04 Gerber Fmt 4.6, Leading zero omitted, Abs format (unit mm)*
G04 Created by KiCad (PCBNEW (6.0.5)) date 2022-08-30 07:27:48*
%MOMM*%
%LPD*%
G01*
G04 APERTURE LIST*
G04 Aperture macros list*
%AMRoundRect*
0 Rectangle with rounded corners*
0 $1 Rounding radius*
0 $2 $3 $4 $5 $6 $7 $8 $9 X,Y pos of 4 corners*
0 Add a 4 corners polygon primitive as box body*
4,1,4,$2,$3,$4,$5,$6,$7,$8,$9,$2,$3,0*
0 Add four circle primitives for the rounded corners*
1,1,$1+$1,$2,$3*
1,1,$1+$1,$4,$5*
1,1,$1+$1,$6,$7*
1,1,$1+$1,$8,$9*
0 Add four rect primitives between the rounded corners*
20,1,$1+$1,$2,$3,$4,$5,0*
20,1,$1+$1,$4,$5,$6,$7,0*
20,1,$1+$1,$6,$7,$8,$9,0*
20,1,$1+$1,$8,$9,$2,$3,0*%
G04 Aperture macros list end*
%ADD10C,0.190500*%
%ADD11C,0.150000*%
%ADD12C,0.300000*%
%ADD13C,0.120000*%
%ADD14C,1.701800*%
%ADD15C,3.429000*%
%ADD16C,2.032000*%
%ADD17C,4.950000*%
%ADD18R,1.300000X1.550000*%
%ADD19C,1.524000*%
%ADD20RoundRect,0.249999X-0.262501X-0.450001X0.262501X-0.450001X0.262501X0.450001X-0.262501X0.450001X0*%
%ADD21C,0.650000*%
%ADD22R,0.600000X1.450000*%
%ADD23R,0.300000X1.450000*%
%ADD24O,1.000000X1.600000*%
%ADD25O,1.000000X2.100000*%
%ADD26RoundRect,0.249999X0.262501X0.450001X-0.262501X0.450001X-0.262501X-0.450001X0.262501X-0.450001X0*%
%ADD27C,0.900000*%
%ADD28R,0.800000X1.000000*%
%ADD29R,1.500000X0.700000*%
G04 APERTURE END LIST*
D10*
X75760285Y-120932714D02*
X75760285Y-121477000D01*
X75724000Y-121585857D01*
X75651428Y-121658428D01*
X75542571Y-121694714D01*
X75470000Y-121694714D01*
X76486000Y-121694714D02*
X76123142Y-121694714D01*
X76123142Y-120932714D01*
X77175428Y-121622142D02*
X77139142Y-121658428D01*
X77030285Y-121694714D01*
X76957714Y-121694714D01*
X76848857Y-121658428D01*
X76776285Y-121585857D01*
X76740000Y-121513285D01*
X76703714Y-121368142D01*
X76703714Y-121259285D01*
X76740000Y-121114142D01*
X76776285Y-121041571D01*
X76848857Y-120969000D01*
X76957714Y-120932714D01*
X77030285Y-120932714D01*
X77139142Y-120969000D01*
X77175428Y-121005285D01*
X77719714Y-120932714D02*
X77719714Y-121477000D01*
X77683428Y-121585857D01*
X77610857Y-121658428D01*
X77502000Y-121694714D01*
X77429428Y-121694714D01*
X78445428Y-121694714D02*
X78082571Y-121694714D01*
X78082571Y-120932714D01*
X79134857Y-121622142D02*
X79098571Y-121658428D01*
X78989714Y-121694714D01*
X78917142Y-121694714D01*
X78808285Y-121658428D01*
X78735714Y-121585857D01*
X78699428Y-121513285D01*
X78663142Y-121368142D01*
X78663142Y-121259285D01*
X78699428Y-121114142D01*
X78735714Y-121041571D01*
X78808285Y-120969000D01*
X78917142Y-120932714D01*
X78989714Y-120932714D01*
X79098571Y-120969000D01*
X79134857Y-121005285D01*
X79679142Y-120932714D02*
X79679142Y-121477000D01*
X79642857Y-121585857D01*
X79570285Y-121658428D01*
X79461428Y-121694714D01*
X79388857Y-121694714D01*
X80404857Y-121694714D02*
X80042000Y-121694714D01*
X80042000Y-120932714D01*
X81094285Y-121622142D02*
X81058000Y-121658428D01*
X80949142Y-121694714D01*
X80876571Y-121694714D01*
X80767714Y-121658428D01*
X80695142Y-121585857D01*
X80658857Y-121513285D01*
X80622571Y-121368142D01*
X80622571Y-121259285D01*
X80658857Y-121114142D01*
X80695142Y-121041571D01*
X80767714Y-120969000D01*
X80876571Y-120932714D01*
X80949142Y-120932714D01*
X81058000Y-120969000D01*
X81094285Y-121005285D01*
X81638571Y-120932714D02*
X81638571Y-121477000D01*
X81602285Y-121585857D01*
X81529714Y-121658428D01*
X81420857Y-121694714D01*
X81348285Y-121694714D01*
X82364285Y-121694714D02*
X82001428Y-121694714D01*
X82001428Y-120932714D01*
X83053714Y-121622142D02*
X83017428Y-121658428D01*
X82908571Y-121694714D01*
X82836000Y-121694714D01*
X82727142Y-121658428D01*
X82654571Y-121585857D01*
X82618285Y-121513285D01*
X82582000Y-121368142D01*
X82582000Y-121259285D01*
X82618285Y-121114142D01*
X82654571Y-121041571D01*
X82727142Y-120969000D01*
X82836000Y-120932714D01*
X82908571Y-120932714D01*
X83017428Y-120969000D01*
X83053714Y-121005285D01*
D11*
X87193333Y-47904761D02*
X87193333Y-45904761D01*
X87193333Y-46857142D02*
X88336190Y-46857142D01*
X88336190Y-47904761D02*
X88336190Y-45904761D01*
X89669523Y-45904761D02*
X90050476Y-45904761D01*
X90240952Y-46000000D01*
X90431428Y-46190476D01*
X90526666Y-46571428D01*
X90526666Y-47238095D01*
X90431428Y-47619047D01*
X90240952Y-47809523D01*
X90050476Y-47904761D01*
X89669523Y-47904761D01*
X89479047Y-47809523D01*
X89288571Y-47619047D01*
X89193333Y-47238095D01*
X89193333Y-46571428D01*
X89288571Y-46190476D01*
X89479047Y-46000000D01*
X89669523Y-45904761D01*
X91383809Y-47904761D02*
X91383809Y-45904761D01*
X92050476Y-47333333D01*
X92717142Y-45904761D01*
X92717142Y-47904761D01*
X93669523Y-46857142D02*
X94336190Y-46857142D01*
X94621904Y-47904761D02*
X93669523Y-47904761D01*
X93669523Y-45904761D01*
X94621904Y-45904761D01*
X67336666Y-47904761D02*
X66670000Y-46952380D01*
X66193809Y-47904761D02*
X66193809Y-45904761D01*
X66955714Y-45904761D01*
X67146190Y-46000000D01*
X67241428Y-46095238D01*
X67336666Y-46285714D01*
X67336666Y-46571428D01*
X67241428Y-46761904D01*
X67146190Y-46857142D01*
X66955714Y-46952380D01*
X66193809Y-46952380D01*
X68003333Y-45904761D02*
X69241428Y-45904761D01*
X68574761Y-46666666D01*
X68860476Y-46666666D01*
X69050952Y-46761904D01*
X69146190Y-46857142D01*
X69241428Y-47047619D01*
X69241428Y-47523809D01*
X69146190Y-47714285D01*
X69050952Y-47809523D01*
X68860476Y-47904761D01*
X68289047Y-47904761D01*
X68098571Y-47809523D01*
X68003333Y-47714285D01*
X98504285Y-47809523D02*
X98790000Y-47904761D01*
X99266190Y-47904761D01*
X99456666Y-47809523D01*
X99551904Y-47714285D01*
X99647142Y-47523809D01*
X99647142Y-47333333D01*
X99551904Y-47142857D01*
X99456666Y-47047619D01*
X99266190Y-46952380D01*
X98885238Y-46857142D01*
X98694761Y-46761904D01*
X98599523Y-46666666D01*
X98504285Y-46476190D01*
X98504285Y-46285714D01*
X98599523Y-46095238D01*
X98694761Y-46000000D01*
X98885238Y-45904761D01*
X99361428Y-45904761D01*
X99647142Y-46000000D01*
X100504285Y-46857142D02*
X101170952Y-46857142D01*
X101456666Y-47904761D02*
X100504285Y-47904761D01*
X100504285Y-45904761D01*
X101456666Y-45904761D01*
X103266190Y-47904761D02*
X102313809Y-47904761D01*
X102313809Y-45904761D01*
D12*
X21175714Y-90568571D02*
X21175714Y-89068571D01*
X22032857Y-90568571D01*
X22032857Y-89068571D01*
X22747142Y-89782857D02*
X23247142Y-89782857D01*
X23461428Y-90568571D02*
X22747142Y-90568571D01*
X22747142Y-89068571D01*
X23461428Y-89068571D01*
X24104285Y-89068571D02*
X24104285Y-90282857D01*
X24175714Y-90425714D01*
X24247142Y-90497142D01*
X24390000Y-90568571D01*
X24675714Y-90568571D01*
X24818571Y-90497142D01*
X24890000Y-90425714D01*
X24961428Y-90282857D01*
X24961428Y-89068571D01*
X25461428Y-89068571D02*
X26318571Y-89068571D01*
X25890000Y-90568571D02*
X25890000Y-89068571D01*
X27675714Y-90568571D02*
X27175714Y-89854285D01*
X26818571Y-90568571D02*
X26818571Y-89068571D01*
X27390000Y-89068571D01*
X27532857Y-89140000D01*
X27604285Y-89211428D01*
X27675714Y-89354285D01*
X27675714Y-89568571D01*
X27604285Y-89711428D01*
X27532857Y-89782857D01*
X27390000Y-89854285D01*
X26818571Y-89854285D01*
X28247142Y-90140000D02*
X28961428Y-90140000D01*
X28104285Y-90568571D02*
X28604285Y-89068571D01*
X29104285Y-90568571D01*
X30318571Y-90568571D02*
X29604285Y-90568571D01*
X29604285Y-89068571D01*
X21998571Y-72118571D02*
X21284285Y-72118571D01*
X21284285Y-70618571D01*
X22784285Y-70618571D02*
X23070000Y-70618571D01*
X23212857Y-70690000D01*
X23355714Y-70832857D01*
X23427142Y-71118571D01*
X23427142Y-71618571D01*
X23355714Y-71904285D01*
X23212857Y-72047142D01*
X23070000Y-72118571D01*
X22784285Y-72118571D01*
X22641428Y-72047142D01*
X22498571Y-71904285D01*
X22427142Y-71618571D01*
X22427142Y-71118571D01*
X22498571Y-70832857D01*
X22641428Y-70690000D01*
X22784285Y-70618571D01*
X24927142Y-71975714D02*
X24855714Y-72047142D01*
X24641428Y-72118571D01*
X24498571Y-72118571D01*
X24284285Y-72047142D01*
X24141428Y-71904285D01*
X24070000Y-71761428D01*
X23998571Y-71475714D01*
X23998571Y-71261428D01*
X24070000Y-70975714D01*
X24141428Y-70832857D01*
X24284285Y-70690000D01*
X24498571Y-70618571D01*
X24641428Y-70618571D01*
X24855714Y-70690000D01*
X24927142Y-70761428D01*
X25570000Y-72118571D02*
X25570000Y-70618571D01*
X26427142Y-72118571D02*
X25784285Y-71261428D01*
X26427142Y-70618571D02*
X25570000Y-71475714D01*
D11*
X108569523Y-47809523D02*
X108855238Y-47904761D01*
X109331428Y-47904761D01*
X109521904Y-47809523D01*
X109617142Y-47714285D01*
X109712380Y-47523809D01*
X109712380Y-47333333D01*
X109617142Y-47142857D01*
X109521904Y-47047619D01*
X109331428Y-46952380D01*
X108950476Y-46857142D01*
X108760000Y-46761904D01*
X108664761Y-46666666D01*
X108569523Y-46476190D01*
X108569523Y-46285714D01*
X108664761Y-46095238D01*
X108760000Y-46000000D01*
X108950476Y-45904761D01*
X109426666Y-45904761D01*
X109712380Y-46000000D01*
X110283809Y-45904761D02*
X111426666Y-45904761D01*
X110855238Y-47904761D02*
X110855238Y-45904761D01*
X111998095Y-47333333D02*
X112950476Y-47333333D01*
X111807619Y-47904761D02*
X112474285Y-45904761D01*
X113140952Y-47904761D01*
D12*
X22044285Y-102998571D02*
X21330000Y-102998571D01*
X21330000Y-101498571D01*
X22472857Y-102570000D02*
X23187142Y-102570000D01*
X22330000Y-102998571D02*
X22830000Y-101498571D01*
X23330000Y-102998571D01*
X23758571Y-102927142D02*
X23972857Y-102998571D01*
X24330000Y-102998571D01*
X24472857Y-102927142D01*
X24544285Y-102855714D01*
X24615714Y-102712857D01*
X24615714Y-102570000D01*
X24544285Y-102427142D01*
X24472857Y-102355714D01*
X24330000Y-102284285D01*
X24044285Y-102212857D01*
X23901428Y-102141428D01*
X23830000Y-102070000D01*
X23758571Y-101927142D01*
X23758571Y-101784285D01*
X23830000Y-101641428D01*
X23901428Y-101570000D01*
X24044285Y-101498571D01*
X24401428Y-101498571D01*
X24615714Y-101570000D01*
X25044285Y-101498571D02*
X25901428Y-101498571D01*
X25472857Y-102998571D02*
X25472857Y-101498571D01*
X27544285Y-102998571D02*
X27544285Y-101498571D01*
X28258571Y-102998571D02*
X28258571Y-101498571D01*
X29115714Y-102998571D01*
X29115714Y-101498571D01*
X29830000Y-102998571D02*
X29830000Y-101498571D01*
X30401428Y-101498571D01*
X30544285Y-101570000D01*
X30615714Y-101641428D01*
X30687142Y-101784285D01*
X30687142Y-101998571D01*
X30615714Y-102141428D01*
X30544285Y-102212857D01*
X30401428Y-102284285D01*
X29830000Y-102284285D01*
X31330000Y-101498571D02*
X31330000Y-102712857D01*
X31401428Y-102855714D01*
X31472857Y-102927142D01*
X31615714Y-102998571D01*
X31901428Y-102998571D01*
X32044285Y-102927142D01*
X32115714Y-102855714D01*
X32187142Y-102712857D01*
X32187142Y-101498571D01*
X32687142Y-101498571D02*
X33544285Y-101498571D01*
X33115714Y-102998571D02*
X33115714Y-101498571D01*
D11*
X73035714Y-45904761D02*
X74178571Y-45904761D01*
X73607142Y-47904761D02*
X73607142Y-45904761D01*
X75226190Y-45904761D02*
X75607142Y-45904761D01*
X75797619Y-46000000D01*
X75988095Y-46190476D01*
X76083333Y-46571428D01*
X76083333Y-47238095D01*
X75988095Y-47619047D01*
X75797619Y-47809523D01*
X75607142Y-47904761D01*
X75226190Y-47904761D01*
X75035714Y-47809523D01*
X74845238Y-47619047D01*
X74750000Y-47238095D01*
X74750000Y-46571428D01*
X74845238Y-46190476D01*
X75035714Y-46000000D01*
X75226190Y-45904761D01*
X76940476Y-45904761D02*
X76940476Y-47523809D01*
X77035714Y-47714285D01*
X77130952Y-47809523D01*
X77321428Y-47904761D01*
X77702380Y-47904761D01*
X77892857Y-47809523D01*
X77988095Y-47714285D01*
X78083333Y-47523809D01*
X78083333Y-45904761D01*
X80178571Y-47714285D02*
X80083333Y-47809523D01*
X79797619Y-47904761D01*
X79607142Y-47904761D01*
X79321428Y-47809523D01*
X79130952Y-47619047D01*
X79035714Y-47428571D01*
X78940476Y-47047619D01*
X78940476Y-46761904D01*
X79035714Y-46380952D01*
X79130952Y-46190476D01*
X79321428Y-46000000D01*
X79607142Y-45904761D01*
X79797619Y-45904761D01*
X80083333Y-46000000D01*
X80178571Y-46095238D01*
X81035714Y-47904761D02*
X81035714Y-45904761D01*
X81035714Y-46857142D02*
X82178571Y-46857142D01*
X82178571Y-47904761D02*
X82178571Y-45904761D01*
X57256666Y-47904761D02*
X56304285Y-47904761D01*
X56304285Y-45904761D01*
X57732857Y-45904761D02*
X58970952Y-45904761D01*
X58304285Y-46666666D01*
X58590000Y-46666666D01*
X58780476Y-46761904D01*
X58875714Y-46857142D01*
X58970952Y-47047619D01*
X58970952Y-47523809D01*
X58875714Y-47714285D01*
X58780476Y-47809523D01*
X58590000Y-47904761D01*
X58018571Y-47904761D01*
X57828095Y-47809523D01*
X57732857Y-47714285D01*
X85986666Y-57319761D02*
X86129523Y-57367380D01*
X86367619Y-57367380D01*
X86462857Y-57319761D01*
X86510476Y-57272142D01*
X86558095Y-57176904D01*
X86558095Y-57081666D01*
X86510476Y-56986428D01*
X86462857Y-56938809D01*
X86367619Y-56891190D01*
X86177142Y-56843571D01*
X86081904Y-56795952D01*
X86034285Y-56748333D01*
X85986666Y-56653095D01*
X85986666Y-56557857D01*
X86034285Y-56462619D01*
X86081904Y-56415000D01*
X86177142Y-56367380D01*
X86415238Y-56367380D01*
X86558095Y-56415000D01*
X86891428Y-56367380D02*
X87129523Y-57367380D01*
X87320000Y-56653095D01*
X87510476Y-57367380D01*
X87748571Y-56367380D01*
X88272380Y-56795952D02*
X88177142Y-56748333D01*
X88129523Y-56700714D01*
X88081904Y-56605476D01*
X88081904Y-56557857D01*
X88129523Y-56462619D01*
X88177142Y-56415000D01*
X88272380Y-56367380D01*
X88462857Y-56367380D01*
X88558095Y-56415000D01*
X88605714Y-56462619D01*
X88653333Y-56557857D01*
X88653333Y-56605476D01*
X88605714Y-56700714D01*
X88558095Y-56748333D01*
X88462857Y-56795952D01*
X88272380Y-56795952D01*
X88177142Y-56843571D01*
X88129523Y-56891190D01*
X88081904Y-56986428D01*
X88081904Y-57176904D01*
X88129523Y-57272142D01*
X88177142Y-57319761D01*
X88272380Y-57367380D01*
X88462857Y-57367380D01*
X88558095Y-57319761D01*
X88605714Y-57272142D01*
X88653333Y-57176904D01*
X88653333Y-56986428D01*
X88605714Y-56891190D01*
X88558095Y-56843571D01*
X88462857Y-56795952D01*
X112586666Y-68669761D02*
X112729523Y-68717380D01*
X112967619Y-68717380D01*
X113062857Y-68669761D01*
X113110476Y-68622142D01*
X113158095Y-68526904D01*
X113158095Y-68431666D01*
X113110476Y-68336428D01*
X113062857Y-68288809D01*
X112967619Y-68241190D01*
X112777142Y-68193571D01*
X112681904Y-68145952D01*
X112634285Y-68098333D01*
X112586666Y-68003095D01*
X112586666Y-67907857D01*
X112634285Y-67812619D01*
X112681904Y-67765000D01*
X112777142Y-67717380D01*
X113015238Y-67717380D01*
X113158095Y-67765000D01*
X113491428Y-67717380D02*
X113729523Y-68717380D01*
X113920000Y-68003095D01*
X114110476Y-68717380D01*
X114348571Y-67717380D01*
X114777142Y-68717380D02*
X114967619Y-68717380D01*
X115062857Y-68669761D01*
X115110476Y-68622142D01*
X115205714Y-68479285D01*
X115253333Y-68288809D01*
X115253333Y-67907857D01*
X115205714Y-67812619D01*
X115158095Y-67765000D01*
X115062857Y-67717380D01*
X114872380Y-67717380D01*
X114777142Y-67765000D01*
X114729523Y-67812619D01*
X114681904Y-67907857D01*
X114681904Y-68145952D01*
X114729523Y-68241190D01*
X114777142Y-68288809D01*
X114872380Y-68336428D01*
X115062857Y-68336428D01*
X115158095Y-68288809D01*
X115205714Y-68241190D01*
X115253333Y-68145952D01*
X129610476Y-121769761D02*
X129753333Y-121817380D01*
X129991428Y-121817380D01*
X130086666Y-121769761D01*
X130134285Y-121722142D01*
X130181904Y-121626904D01*
X130181904Y-121531666D01*
X130134285Y-121436428D01*
X130086666Y-121388809D01*
X129991428Y-121341190D01*
X129800952Y-121293571D01*
X129705714Y-121245952D01*
X129658095Y-121198333D01*
X129610476Y-121103095D01*
X129610476Y-121007857D01*
X129658095Y-120912619D01*
X129705714Y-120865000D01*
X129800952Y-120817380D01*
X130039047Y-120817380D01*
X130181904Y-120865000D01*
X130515238Y-120817380D02*
X130753333Y-121817380D01*
X130943809Y-121103095D01*
X131134285Y-121817380D01*
X131372380Y-120817380D01*
X132277142Y-121817380D02*
X131705714Y-121817380D01*
X131991428Y-121817380D02*
X131991428Y-120817380D01*
X131896190Y-120960238D01*
X131800952Y-121055476D01*
X131705714Y-121103095D01*
X132848571Y-121245952D02*
X132753333Y-121198333D01*
X132705714Y-121150714D01*
X132658095Y-121055476D01*
X132658095Y-121007857D01*
X132705714Y-120912619D01*
X132753333Y-120865000D01*
X132848571Y-120817380D01*
X133039047Y-120817380D01*
X133134285Y-120865000D01*
X133181904Y-120912619D01*
X133229523Y-121007857D01*
X133229523Y-121055476D01*
X133181904Y-121150714D01*
X133134285Y-121198333D01*
X133039047Y-121245952D01*
X132848571Y-121245952D01*
X132753333Y-121293571D01*
X132705714Y-121341190D01*
X132658095Y-121436428D01*
X132658095Y-121626904D01*
X132705714Y-121722142D01*
X132753333Y-121769761D01*
X132848571Y-121817380D01*
X133039047Y-121817380D01*
X133134285Y-121769761D01*
X133181904Y-121722142D01*
X133229523Y-121626904D01*
X133229523Y-121436428D01*
X133181904Y-121341190D01*
X133134285Y-121293571D01*
X133039047Y-121245952D01*
X147050476Y-57259761D02*
X147193333Y-57307380D01*
X147431428Y-57307380D01*
X147526666Y-57259761D01*
X147574285Y-57212142D01*
X147621904Y-57116904D01*
X147621904Y-57021666D01*
X147574285Y-56926428D01*
X147526666Y-56878809D01*
X147431428Y-56831190D01*
X147240952Y-56783571D01*
X147145714Y-56735952D01*
X147098095Y-56688333D01*
X147050476Y-56593095D01*
X147050476Y-56497857D01*
X147098095Y-56402619D01*
X147145714Y-56355000D01*
X147240952Y-56307380D01*
X147479047Y-56307380D01*
X147621904Y-56355000D01*
X147955238Y-56307380D02*
X148193333Y-57307380D01*
X148383809Y-56593095D01*
X148574285Y-57307380D01*
X148812380Y-56307380D01*
X149717142Y-57307380D02*
X149145714Y-57307380D01*
X149431428Y-57307380D02*
X149431428Y-56307380D01*
X149336190Y-56450238D01*
X149240952Y-56545476D01*
X149145714Y-56593095D01*
X150336190Y-56307380D02*
X150431428Y-56307380D01*
X150526666Y-56355000D01*
X150574285Y-56402619D01*
X150621904Y-56497857D01*
X150669523Y-56688333D01*
X150669523Y-56926428D01*
X150621904Y-57116904D01*
X150574285Y-57212142D01*
X150526666Y-57259761D01*
X150431428Y-57307380D01*
X150336190Y-57307380D01*
X150240952Y-57259761D01*
X150193333Y-57212142D01*
X150145714Y-57116904D01*
X150098095Y-56926428D01*
X150098095Y-56688333D01*
X150145714Y-56497857D01*
X150193333Y-56402619D01*
X150240952Y-56355000D01*
X150336190Y-56307380D01*
X173610476Y-45729761D02*
X173753333Y-45777380D01*
X173991428Y-45777380D01*
X174086666Y-45729761D01*
X174134285Y-45682142D01*
X174181904Y-45586904D01*
X174181904Y-45491666D01*
X174134285Y-45396428D01*
X174086666Y-45348809D01*
X173991428Y-45301190D01*
X173800952Y-45253571D01*
X173705714Y-45205952D01*
X173658095Y-45158333D01*
X173610476Y-45063095D01*
X173610476Y-44967857D01*
X173658095Y-44872619D01*
X173705714Y-44825000D01*
X173800952Y-44777380D01*
X174039047Y-44777380D01*
X174181904Y-44825000D01*
X174515238Y-44777380D02*
X174753333Y-45777380D01*
X174943809Y-45063095D01*
X175134285Y-45777380D01*
X175372380Y-44777380D01*
X176277142Y-45777380D02*
X175705714Y-45777380D01*
X175991428Y-45777380D02*
X175991428Y-44777380D01*
X175896190Y-44920238D01*
X175800952Y-45015476D01*
X175705714Y-45063095D01*
X177229523Y-45777380D02*
X176658095Y-45777380D01*
X176943809Y-45777380D02*
X176943809Y-44777380D01*
X176848571Y-44920238D01*
X176753333Y-45015476D01*
X176658095Y-45063095D01*
X202580476Y-45609761D02*
X202723333Y-45657380D01*
X202961428Y-45657380D01*
X203056666Y-45609761D01*
X203104285Y-45562142D01*
X203151904Y-45466904D01*
X203151904Y-45371666D01*
X203104285Y-45276428D01*
X203056666Y-45228809D01*
X202961428Y-45181190D01*
X202770952Y-45133571D01*
X202675714Y-45085952D01*
X202628095Y-45038333D01*
X202580476Y-44943095D01*
X202580476Y-44847857D01*
X202628095Y-44752619D01*
X202675714Y-44705000D01*
X202770952Y-44657380D01*
X203009047Y-44657380D01*
X203151904Y-44705000D01*
X203485238Y-44657380D02*
X203723333Y-45657380D01*
X203913809Y-44943095D01*
X204104285Y-45657380D01*
X204342380Y-44657380D01*
X205247142Y-45657380D02*
X204675714Y-45657380D01*
X204961428Y-45657380D02*
X204961428Y-44657380D01*
X204866190Y-44800238D01*
X204770952Y-44895476D01*
X204675714Y-44943095D01*
X205628095Y-44752619D02*
X205675714Y-44705000D01*
X205770952Y-44657380D01*
X206009047Y-44657380D01*
X206104285Y-44705000D01*
X206151904Y-44752619D01*
X206199523Y-44847857D01*
X206199523Y-44943095D01*
X206151904Y-45085952D01*
X205580476Y-45657380D01*
X206199523Y-45657380D01*
X231526876Y-49100161D02*
X231669733Y-49147780D01*
X231907828Y-49147780D01*
X232003066Y-49100161D01*
X232050685Y-49052542D01*
X232098304Y-48957304D01*
X232098304Y-48862066D01*
X232050685Y-48766828D01*
X232003066Y-48719209D01*
X231907828Y-48671590D01*
X231717352Y-48623971D01*
X231622114Y-48576352D01*
X231574495Y-48528733D01*
X231526876Y-48433495D01*
X231526876Y-48338257D01*
X231574495Y-48243019D01*
X231622114Y-48195400D01*
X231717352Y-48147780D01*
X231955447Y-48147780D01*
X232098304Y-48195400D01*
X232431638Y-48147780D02*
X232669733Y-49147780D01*
X232860209Y-48433495D01*
X233050685Y-49147780D01*
X233288780Y-48147780D01*
X234193542Y-49147780D02*
X233622114Y-49147780D01*
X233907828Y-49147780D02*
X233907828Y-48147780D01*
X233812590Y-48290638D01*
X233717352Y-48385876D01*
X233622114Y-48433495D01*
X234526876Y-48147780D02*
X235145923Y-48147780D01*
X234812590Y-48528733D01*
X234955447Y-48528733D01*
X235050685Y-48576352D01*
X235098304Y-48623971D01*
X235145923Y-48719209D01*
X235145923Y-48957304D01*
X235098304Y-49052542D01*
X235050685Y-49100161D01*
X234955447Y-49147780D01*
X234669733Y-49147780D01*
X234574495Y-49100161D01*
X234526876Y-49052542D01*
X141440476Y-88299761D02*
X141583333Y-88347380D01*
X141821428Y-88347380D01*
X141916666Y-88299761D01*
X141964285Y-88252142D01*
X142011904Y-88156904D01*
X142011904Y-88061666D01*
X141964285Y-87966428D01*
X141916666Y-87918809D01*
X141821428Y-87871190D01*
X141630952Y-87823571D01*
X141535714Y-87775952D01*
X141488095Y-87728333D01*
X141440476Y-87633095D01*
X141440476Y-87537857D01*
X141488095Y-87442619D01*
X141535714Y-87395000D01*
X141630952Y-87347380D01*
X141869047Y-87347380D01*
X142011904Y-87395000D01*
X142345238Y-87347380D02*
X142583333Y-88347380D01*
X142773809Y-87633095D01*
X142964285Y-88347380D01*
X143202380Y-87347380D01*
X144107142Y-88347380D02*
X143535714Y-88347380D01*
X143821428Y-88347380D02*
X143821428Y-87347380D01*
X143726190Y-87490238D01*
X143630952Y-87585476D01*
X143535714Y-87633095D01*
X144964285Y-87680714D02*
X144964285Y-88347380D01*
X144726190Y-87299761D02*
X144488095Y-88014047D01*
X145107142Y-88014047D01*
X168050476Y-77189761D02*
X168193333Y-77237380D01*
X168431428Y-77237380D01*
X168526666Y-77189761D01*
X168574285Y-77142142D01*
X168621904Y-77046904D01*
X168621904Y-76951666D01*
X168574285Y-76856428D01*
X168526666Y-76808809D01*
X168431428Y-76761190D01*
X168240952Y-76713571D01*
X168145714Y-76665952D01*
X168098095Y-76618333D01*
X168050476Y-76523095D01*
X168050476Y-76427857D01*
X168098095Y-76332619D01*
X168145714Y-76285000D01*
X168240952Y-76237380D01*
X168479047Y-76237380D01*
X168621904Y-76285000D01*
X168955238Y-76237380D02*
X169193333Y-77237380D01*
X169383809Y-76523095D01*
X169574285Y-77237380D01*
X169812380Y-76237380D01*
X170717142Y-77237380D02*
X170145714Y-77237380D01*
X170431428Y-77237380D02*
X170431428Y-76237380D01*
X170336190Y-76380238D01*
X170240952Y-76475476D01*
X170145714Y-76523095D01*
X171621904Y-76237380D02*
X171145714Y-76237380D01*
X171098095Y-76713571D01*
X171145714Y-76665952D01*
X171240952Y-76618333D01*
X171479047Y-76618333D01*
X171574285Y-76665952D01*
X171621904Y-76713571D01*
X171669523Y-76808809D01*
X171669523Y-77046904D01*
X171621904Y-77142142D01*
X171574285Y-77189761D01*
X171479047Y-77237380D01*
X171240952Y-77237380D01*
X171145714Y-77189761D01*
X171098095Y-77142142D01*
X196900476Y-77189761D02*
X197043333Y-77237380D01*
X197281428Y-77237380D01*
X197376666Y-77189761D01*
X197424285Y-77142142D01*
X197471904Y-77046904D01*
X197471904Y-76951666D01*
X197424285Y-76856428D01*
X197376666Y-76808809D01*
X197281428Y-76761190D01*
X197090952Y-76713571D01*
X196995714Y-76665952D01*
X196948095Y-76618333D01*
X196900476Y-76523095D01*
X196900476Y-76427857D01*
X196948095Y-76332619D01*
X196995714Y-76285000D01*
X197090952Y-76237380D01*
X197329047Y-76237380D01*
X197471904Y-76285000D01*
X197805238Y-76237380D02*
X198043333Y-77237380D01*
X198233809Y-76523095D01*
X198424285Y-77237380D01*
X198662380Y-76237380D01*
X199567142Y-77237380D02*
X198995714Y-77237380D01*
X199281428Y-77237380D02*
X199281428Y-76237380D01*
X199186190Y-76380238D01*
X199090952Y-76475476D01*
X198995714Y-76523095D01*
X200424285Y-76237380D02*
X200233809Y-76237380D01*
X200138571Y-76285000D01*
X200090952Y-76332619D01*
X199995714Y-76475476D01*
X199948095Y-76665952D01*
X199948095Y-77046904D01*
X199995714Y-77142142D01*
X200043333Y-77189761D01*
X200138571Y-77237380D01*
X200329047Y-77237380D01*
X200424285Y-77189761D01*
X200471904Y-77142142D01*
X200519523Y-77046904D01*
X200519523Y-76808809D01*
X200471904Y-76713571D01*
X200424285Y-76665952D01*
X200329047Y-76618333D01*
X200138571Y-76618333D01*
X200043333Y-76665952D01*
X199995714Y-76713571D01*
X199948095Y-76808809D01*
X226086876Y-80440161D02*
X226229733Y-80487780D01*
X226467828Y-80487780D01*
X226563066Y-80440161D01*
X226610685Y-80392542D01*
X226658304Y-80297304D01*
X226658304Y-80202066D01*
X226610685Y-80106828D01*
X226563066Y-80059209D01*
X226467828Y-80011590D01*
X226277352Y-79963971D01*
X226182114Y-79916352D01*
X226134495Y-79868733D01*
X226086876Y-79773495D01*
X226086876Y-79678257D01*
X226134495Y-79583019D01*
X226182114Y-79535400D01*
X226277352Y-79487780D01*
X226515447Y-79487780D01*
X226658304Y-79535400D01*
X226991638Y-79487780D02*
X227229733Y-80487780D01*
X227420209Y-79773495D01*
X227610685Y-80487780D01*
X227848780Y-79487780D01*
X228753542Y-80487780D02*
X228182114Y-80487780D01*
X228467828Y-80487780D02*
X228467828Y-79487780D01*
X228372590Y-79630638D01*
X228277352Y-79725876D01*
X228182114Y-79773495D01*
X229086876Y-79487780D02*
X229753542Y-79487780D01*
X229324971Y-80487780D01*
X56891666Y-57199761D02*
X57034523Y-57247380D01*
X57272619Y-57247380D01*
X57367857Y-57199761D01*
X57415476Y-57152142D01*
X57463095Y-57056904D01*
X57463095Y-56961666D01*
X57415476Y-56866428D01*
X57367857Y-56818809D01*
X57272619Y-56771190D01*
X57082142Y-56723571D01*
X56986904Y-56675952D01*
X56939285Y-56628333D01*
X56891666Y-56533095D01*
X56891666Y-56437857D01*
X56939285Y-56342619D01*
X56986904Y-56295000D01*
X57082142Y-56247380D01*
X57320238Y-56247380D01*
X57463095Y-56295000D01*
X57796428Y-56247380D02*
X58034523Y-57247380D01*
X58225000Y-56533095D01*
X58415476Y-57247380D01*
X58653571Y-56247380D01*
X58939285Y-56247380D02*
X59605952Y-56247380D01*
X59177380Y-57247380D01*
X87104761Y-41083333D02*
X87152380Y-40940476D01*
X87152380Y-40702380D01*
X87104761Y-40607142D01*
X87057142Y-40559523D01*
X86961904Y-40511904D01*
X86866666Y-40511904D01*
X86771428Y-40559523D01*
X86723809Y-40607142D01*
X86676190Y-40702380D01*
X86628571Y-40892857D01*
X86580952Y-40988095D01*
X86533333Y-41035714D01*
X86438095Y-41083333D01*
X86342857Y-41083333D01*
X86247619Y-41035714D01*
X86200000Y-40988095D01*
X86152380Y-40892857D01*
X86152380Y-40654761D01*
X86200000Y-40511904D01*
X86152380Y-40178571D02*
X87152380Y-39940476D01*
X86438095Y-39750000D01*
X87152380Y-39559523D01*
X86152380Y-39321428D01*
X86485714Y-38511904D02*
X87152380Y-38511904D01*
X86104761Y-38750000D02*
X86819047Y-38988095D01*
X86819047Y-38369047D01*
X64104761Y-41083333D02*
X64152380Y-40940476D01*
X64152380Y-40702380D01*
X64104761Y-40607142D01*
X64057142Y-40559523D01*
X63961904Y-40511904D01*
X63866666Y-40511904D01*
X63771428Y-40559523D01*
X63723809Y-40607142D01*
X63676190Y-40702380D01*
X63628571Y-40892857D01*
X63580952Y-40988095D01*
X63533333Y-41035714D01*
X63438095Y-41083333D01*
X63342857Y-41083333D01*
X63247619Y-41035714D01*
X63200000Y-40988095D01*
X63152380Y-40892857D01*
X63152380Y-40654761D01*
X63200000Y-40511904D01*
X63152380Y-40178571D02*
X64152380Y-39940476D01*
X63438095Y-39750000D01*
X64152380Y-39559523D01*
X63152380Y-39321428D01*
X63247619Y-38988095D02*
X63200000Y-38940476D01*
X63152380Y-38845238D01*
X63152380Y-38607142D01*
X63200000Y-38511904D01*
X63247619Y-38464285D01*
X63342857Y-38416666D01*
X63438095Y-38416666D01*
X63580952Y-38464285D01*
X64152380Y-39035714D01*
X64152380Y-38416666D01*
X97104761Y-41083333D02*
X97152380Y-40940476D01*
X97152380Y-40702380D01*
X97104761Y-40607142D01*
X97057142Y-40559523D01*
X96961904Y-40511904D01*
X96866666Y-40511904D01*
X96771428Y-40559523D01*
X96723809Y-40607142D01*
X96676190Y-40702380D01*
X96628571Y-40892857D01*
X96580952Y-40988095D01*
X96533333Y-41035714D01*
X96438095Y-41083333D01*
X96342857Y-41083333D01*
X96247619Y-41035714D01*
X96200000Y-40988095D01*
X96152380Y-40892857D01*
X96152380Y-40654761D01*
X96200000Y-40511904D01*
X96152380Y-40178571D02*
X97152380Y-39940476D01*
X96438095Y-39750000D01*
X97152380Y-39559523D01*
X96152380Y-39321428D01*
X96152380Y-38464285D02*
X96152380Y-38940476D01*
X96628571Y-38988095D01*
X96580952Y-38940476D01*
X96533333Y-38845238D01*
X96533333Y-38607142D01*
X96580952Y-38511904D01*
X96628571Y-38464285D01*
X96723809Y-38416666D01*
X96961904Y-38416666D01*
X97057142Y-38464285D01*
X97104761Y-38511904D01*
X97152380Y-38607142D01*
X97152380Y-38845238D01*
X97104761Y-38940476D01*
X97057142Y-38988095D01*
X54104761Y-41083333D02*
X54152380Y-40940476D01*
X54152380Y-40702380D01*
X54104761Y-40607142D01*
X54057142Y-40559523D01*
X53961904Y-40511904D01*
X53866666Y-40511904D01*
X53771428Y-40559523D01*
X53723809Y-40607142D01*
X53676190Y-40702380D01*
X53628571Y-40892857D01*
X53580952Y-40988095D01*
X53533333Y-41035714D01*
X53438095Y-41083333D01*
X53342857Y-41083333D01*
X53247619Y-41035714D01*
X53200000Y-40988095D01*
X53152380Y-40892857D01*
X53152380Y-40654761D01*
X53200000Y-40511904D01*
X53152380Y-40178571D02*
X54152380Y-39940476D01*
X53438095Y-39750000D01*
X54152380Y-39559523D01*
X53152380Y-39321428D01*
X54152380Y-38416666D02*
X54152380Y-38988095D01*
X54152380Y-38702380D02*
X53152380Y-38702380D01*
X53295238Y-38797619D01*
X53390476Y-38892857D01*
X53438095Y-38988095D01*
X74104761Y-41083333D02*
X74152380Y-40940476D01*
X74152380Y-40702380D01*
X74104761Y-40607142D01*
X74057142Y-40559523D01*
X73961904Y-40511904D01*
X73866666Y-40511904D01*
X73771428Y-40559523D01*
X73723809Y-40607142D01*
X73676190Y-40702380D01*
X73628571Y-40892857D01*
X73580952Y-40988095D01*
X73533333Y-41035714D01*
X73438095Y-41083333D01*
X73342857Y-41083333D01*
X73247619Y-41035714D01*
X73200000Y-40988095D01*
X73152380Y-40892857D01*
X73152380Y-40654761D01*
X73200000Y-40511904D01*
X73152380Y-40178571D02*
X74152380Y-39940476D01*
X73438095Y-39750000D01*
X74152380Y-39559523D01*
X73152380Y-39321428D01*
X73152380Y-39035714D02*
X73152380Y-38416666D01*
X73533333Y-38750000D01*
X73533333Y-38607142D01*
X73580952Y-38511904D01*
X73628571Y-38464285D01*
X73723809Y-38416666D01*
X73961904Y-38416666D01*
X74057142Y-38464285D01*
X74104761Y-38511904D01*
X74152380Y-38607142D01*
X74152380Y-38892857D01*
X74104761Y-38988095D01*
X74057142Y-39035714D01*
X107104761Y-41083333D02*
X107152380Y-40940476D01*
X107152380Y-40702380D01*
X107104761Y-40607142D01*
X107057142Y-40559523D01*
X106961904Y-40511904D01*
X106866666Y-40511904D01*
X106771428Y-40559523D01*
X106723809Y-40607142D01*
X106676190Y-40702380D01*
X106628571Y-40892857D01*
X106580952Y-40988095D01*
X106533333Y-41035714D01*
X106438095Y-41083333D01*
X106342857Y-41083333D01*
X106247619Y-41035714D01*
X106200000Y-40988095D01*
X106152380Y-40892857D01*
X106152380Y-40654761D01*
X106200000Y-40511904D01*
X106152380Y-40178571D02*
X107152380Y-39940476D01*
X106438095Y-39750000D01*
X107152380Y-39559523D01*
X106152380Y-39321428D01*
X106152380Y-38511904D02*
X106152380Y-38702380D01*
X106200000Y-38797619D01*
X106247619Y-38845238D01*
X106390476Y-38940476D01*
X106580952Y-38988095D01*
X106961904Y-38988095D01*
X107057142Y-38940476D01*
X107104761Y-38892857D01*
X107152380Y-38797619D01*
X107152380Y-38607142D01*
X107104761Y-38511904D01*
X107057142Y-38464285D01*
X106961904Y-38416666D01*
X106723809Y-38416666D01*
X106628571Y-38464285D01*
X106580952Y-38511904D01*
X106533333Y-38607142D01*
X106533333Y-38797619D01*
X106580952Y-38892857D01*
X106628571Y-38940476D01*
X106723809Y-38988095D01*
X78785714Y-135166666D02*
X79261904Y-135166666D01*
X78690476Y-135452380D02*
X79023809Y-134452380D01*
X79357142Y-135452380D01*
X80214285Y-135452380D02*
X79642857Y-135452380D01*
X79928571Y-135452380D02*
X79928571Y-134452380D01*
X79833333Y-134595238D01*
X79738095Y-134690476D01*
X79642857Y-134738095D01*
D12*
X69285714Y-113857142D02*
X69571428Y-113952380D01*
X69666666Y-114047619D01*
X69761904Y-114238095D01*
X69761904Y-114523809D01*
X69666666Y-114714285D01*
X69571428Y-114809523D01*
X69380952Y-114904761D01*
X68619047Y-114904761D01*
X68619047Y-112904761D01*
X69285714Y-112904761D01*
X69476190Y-113000000D01*
X69571428Y-113095238D01*
X69666666Y-113285714D01*
X69666666Y-113476190D01*
X69571428Y-113666666D01*
X69476190Y-113761904D01*
X69285714Y-113857142D01*
X68619047Y-113857142D01*
X70619047Y-114904761D02*
X70619047Y-113571428D01*
X70619047Y-113952380D02*
X70714285Y-113761904D01*
X70809523Y-113666666D01*
X70999999Y-113571428D01*
X71190476Y-113571428D01*
X72142857Y-114904761D02*
X71952380Y-114809523D01*
X71857142Y-114714285D01*
X71761904Y-114523809D01*
X71761904Y-113952380D01*
X71857142Y-113761904D01*
X71952380Y-113666666D01*
X72142857Y-113571428D01*
X72428571Y-113571428D01*
X72619047Y-113666666D01*
X72714285Y-113761904D01*
X72809523Y-113952380D01*
X72809523Y-114523809D01*
X72714285Y-114714285D01*
X72619047Y-114809523D01*
X72428571Y-114904761D01*
X72142857Y-114904761D01*
X73952380Y-114904761D02*
X73761904Y-114809523D01*
X73666666Y-114714285D01*
X73571428Y-114523809D01*
X73571428Y-113952380D01*
X73666666Y-113761904D01*
X73761904Y-113666666D01*
X73952380Y-113571428D01*
X74238095Y-113571428D01*
X74428571Y-113666666D01*
X74523809Y-113761904D01*
X74619047Y-113952380D01*
X74619047Y-114523809D01*
X74523809Y-114714285D01*
X74428571Y-114809523D01*
X74238095Y-114904761D01*
X73952380Y-114904761D01*
X75476190Y-114904761D02*
X75476190Y-112904761D01*
X75666666Y-114142857D02*
X76238095Y-114904761D01*
X76238095Y-113571428D02*
X75476190Y-114333333D01*
X78619047Y-114904761D02*
X78619047Y-112904761D01*
X79380952Y-112904761D01*
X79571428Y-113000000D01*
X79666666Y-113095238D01*
X79761904Y-113285714D01*
X79761904Y-113571428D01*
X79666666Y-113761904D01*
X79571428Y-113857142D01*
X79380952Y-113952380D01*
X78619047Y-113952380D01*
X80523809Y-114809523D02*
X80809523Y-114904761D01*
X81285714Y-114904761D01*
X81476190Y-114809523D01*
X81571428Y-114714285D01*
X81666666Y-114523809D01*
X81666666Y-114333333D01*
X81571428Y-114142857D01*
X81476190Y-114047619D01*
X81285714Y-113952380D01*
X80904761Y-113857142D01*
X80714285Y-113761904D01*
X80619047Y-113666666D01*
X80523809Y-113476190D01*
X80523809Y-113285714D01*
X80619047Y-113095238D01*
X80714285Y-113000000D01*
X80904761Y-112904761D01*
X81380952Y-112904761D01*
X81666666Y-113000000D01*
X82333333Y-112904761D02*
X83571428Y-112904761D01*
X82904761Y-113666666D01*
X83190476Y-113666666D01*
X83380952Y-113761904D01*
X83476190Y-113857142D01*
X83571428Y-114047619D01*
X83571428Y-114523809D01*
X83476190Y-114714285D01*
X83380952Y-114809523D01*
X83190476Y-114904761D01*
X82619047Y-114904761D01*
X82428571Y-114809523D01*
X82333333Y-114714285D01*
X85857142Y-112809523D02*
X84142857Y-115380952D01*
X86523809Y-114904761D02*
X86523809Y-112904761D01*
X87285714Y-112904761D01*
X87476190Y-113000000D01*
X87571428Y-113095238D01*
X87666666Y-113285714D01*
X87666666Y-113571428D01*
X87571428Y-113761904D01*
X87476190Y-113857142D01*
X87285714Y-113952380D01*
X86523809Y-113952380D01*
X88428571Y-114809523D02*
X88714285Y-114904761D01*
X89190476Y-114904761D01*
X89380952Y-114809523D01*
X89476190Y-114714285D01*
X89571428Y-114523809D01*
X89571428Y-114333333D01*
X89476190Y-114142857D01*
X89380952Y-114047619D01*
X89190476Y-113952380D01*
X88809523Y-113857142D01*
X88619047Y-113761904D01*
X88523809Y-113666666D01*
X88428571Y-113476190D01*
X88428571Y-113285714D01*
X88523809Y-113095238D01*
X88619047Y-113000000D01*
X88809523Y-112904761D01*
X89285714Y-112904761D01*
X89571428Y-113000000D01*
X91285714Y-113571428D02*
X91285714Y-114904761D01*
X90809523Y-112809523D02*
X90333333Y-114238095D01*
X91571428Y-114238095D01*
D11*
X137233333Y-44782380D02*
X136900000Y-44306190D01*
X136661904Y-44782380D02*
X136661904Y-43782380D01*
X137042857Y-43782380D01*
X137138095Y-43830000D01*
X137185714Y-43877619D01*
X137233333Y-43972857D01*
X137233333Y-44115714D01*
X137185714Y-44210952D01*
X137138095Y-44258571D01*
X137042857Y-44306190D01*
X136661904Y-44306190D01*
X137614285Y-43877619D02*
X137661904Y-43830000D01*
X137757142Y-43782380D01*
X137995238Y-43782380D01*
X138090476Y-43830000D01*
X138138095Y-43877619D01*
X138185714Y-43972857D01*
X138185714Y-44068095D01*
X138138095Y-44210952D01*
X137566666Y-44782380D01*
X138185714Y-44782380D01*
X133261904Y-38899180D02*
X133261904Y-39708704D01*
X133309523Y-39803942D01*
X133357142Y-39851561D01*
X133452380Y-39899180D01*
X133642857Y-39899180D01*
X133738095Y-39851561D01*
X133785714Y-39803942D01*
X133833333Y-39708704D01*
X133833333Y-38899180D01*
X134261904Y-39851561D02*
X134404761Y-39899180D01*
X134642857Y-39899180D01*
X134738095Y-39851561D01*
X134785714Y-39803942D01*
X134833333Y-39708704D01*
X134833333Y-39613466D01*
X134785714Y-39518228D01*
X134738095Y-39470609D01*
X134642857Y-39422990D01*
X134452380Y-39375371D01*
X134357142Y-39327752D01*
X134309523Y-39280133D01*
X134261904Y-39184895D01*
X134261904Y-39089657D01*
X134309523Y-38994419D01*
X134357142Y-38946800D01*
X134452380Y-38899180D01*
X134690476Y-38899180D01*
X134833333Y-38946800D01*
X135595238Y-39375371D02*
X135738095Y-39422990D01*
X135785714Y-39470609D01*
X135833333Y-39565847D01*
X135833333Y-39708704D01*
X135785714Y-39803942D01*
X135738095Y-39851561D01*
X135642857Y-39899180D01*
X135261904Y-39899180D01*
X135261904Y-38899180D01*
X135595238Y-38899180D01*
X135690476Y-38946800D01*
X135738095Y-38994419D01*
X135785714Y-39089657D01*
X135785714Y-39184895D01*
X135738095Y-39280133D01*
X135690476Y-39327752D01*
X135595238Y-39375371D01*
X135261904Y-39375371D01*
X136785714Y-39899180D02*
X136214285Y-39899180D01*
X136500000Y-39899180D02*
X136500000Y-38899180D01*
X136404761Y-39042038D01*
X136309523Y-39137276D01*
X136214285Y-39184895D01*
X132333333Y-44782380D02*
X132000000Y-44306190D01*
X131761904Y-44782380D02*
X131761904Y-43782380D01*
X132142857Y-43782380D01*
X132238095Y-43830000D01*
X132285714Y-43877619D01*
X132333333Y-43972857D01*
X132333333Y-44115714D01*
X132285714Y-44210952D01*
X132238095Y-44258571D01*
X132142857Y-44306190D01*
X131761904Y-44306190D01*
X133285714Y-44782380D02*
X132714285Y-44782380D01*
X133000000Y-44782380D02*
X133000000Y-43782380D01*
X132904761Y-43925238D01*
X132809523Y-44020476D01*
X132714285Y-44068095D01*
X26604761Y-66849523D02*
X26652380Y-66706666D01*
X26652380Y-66468571D01*
X26604761Y-66373333D01*
X26557142Y-66325714D01*
X26461904Y-66278095D01*
X26366666Y-66278095D01*
X26271428Y-66325714D01*
X26223809Y-66373333D01*
X26176190Y-66468571D01*
X26128571Y-66659047D01*
X26080952Y-66754285D01*
X26033333Y-66801904D01*
X25938095Y-66849523D01*
X25842857Y-66849523D01*
X25747619Y-66801904D01*
X25700000Y-66754285D01*
X25652380Y-66659047D01*
X25652380Y-66420952D01*
X25700000Y-66278095D01*
X25652380Y-65944761D02*
X26652380Y-65706666D01*
X25938095Y-65516190D01*
X26652380Y-65325714D01*
X25652380Y-65087619D01*
X26652380Y-64182857D02*
X26652380Y-64754285D01*
X26652380Y-64468571D02*
X25652380Y-64468571D01*
X25795238Y-64563809D01*
X25890476Y-64659047D01*
X25938095Y-64754285D01*
X26652380Y-63706666D02*
X26652380Y-63516190D01*
X26604761Y-63420952D01*
X26557142Y-63373333D01*
X26414285Y-63278095D01*
X26223809Y-63230476D01*
X25842857Y-63230476D01*
X25747619Y-63278095D01*
X25700000Y-63325714D01*
X25652380Y-63420952D01*
X25652380Y-63611428D01*
X25700000Y-63706666D01*
X25747619Y-63754285D01*
X25842857Y-63801904D01*
X26080952Y-63801904D01*
X26176190Y-63754285D01*
X26223809Y-63706666D01*
X26271428Y-63611428D01*
X26271428Y-63420952D01*
X26223809Y-63325714D01*
X26176190Y-63278095D01*
X26080952Y-63230476D01*
X26604761Y-97959523D02*
X26652380Y-97816666D01*
X26652380Y-97578571D01*
X26604761Y-97483333D01*
X26557142Y-97435714D01*
X26461904Y-97388095D01*
X26366666Y-97388095D01*
X26271428Y-97435714D01*
X26223809Y-97483333D01*
X26176190Y-97578571D01*
X26128571Y-97769047D01*
X26080952Y-97864285D01*
X26033333Y-97911904D01*
X25938095Y-97959523D01*
X25842857Y-97959523D01*
X25747619Y-97911904D01*
X25700000Y-97864285D01*
X25652380Y-97769047D01*
X25652380Y-97530952D01*
X25700000Y-97388095D01*
X25652380Y-97054761D02*
X26652380Y-96816666D01*
X25938095Y-96626190D01*
X26652380Y-96435714D01*
X25652380Y-96197619D01*
X25747619Y-95864285D02*
X25700000Y-95816666D01*
X25652380Y-95721428D01*
X25652380Y-95483333D01*
X25700000Y-95388095D01*
X25747619Y-95340476D01*
X25842857Y-95292857D01*
X25938095Y-95292857D01*
X26080952Y-95340476D01*
X26652380Y-95911904D01*
X26652380Y-95292857D01*
X25652380Y-94673809D02*
X25652380Y-94578571D01*
X25700000Y-94483333D01*
X25747619Y-94435714D01*
X25842857Y-94388095D01*
X26033333Y-94340476D01*
X26271428Y-94340476D01*
X26461904Y-94388095D01*
X26557142Y-94435714D01*
X26604761Y-94483333D01*
X26652380Y-94578571D01*
X26652380Y-94673809D01*
X26604761Y-94769047D01*
X26557142Y-94816666D01*
X26461904Y-94864285D01*
X26271428Y-94911904D01*
X26033333Y-94911904D01*
X25842857Y-94864285D01*
X25747619Y-94816666D01*
X25700000Y-94769047D01*
X25652380Y-94673809D01*
X94320000Y-58170000D02*
X93320000Y-58170000D01*
X81320000Y-58170000D02*
X80320000Y-58170000D01*
X80320000Y-72170000D02*
X81320000Y-72170000D01*
X94320000Y-58170000D02*
X94320000Y-59170000D01*
X93320000Y-72170000D02*
X94320000Y-72170000D01*
X94320000Y-71170000D02*
X94320000Y-72170000D01*
X80320000Y-59170000D02*
X80320000Y-58170000D01*
X80320000Y-72170000D02*
X80320000Y-71170000D01*
X106920000Y-70520000D02*
X106920000Y-69520000D01*
X119920000Y-83520000D02*
X120920000Y-83520000D01*
X107920000Y-69520000D02*
X106920000Y-69520000D01*
X120920000Y-69520000D02*
X120920000Y-70520000D01*
X106920000Y-83520000D02*
X107920000Y-83520000D01*
X106920000Y-83520000D02*
X106920000Y-82520000D01*
X120920000Y-69520000D02*
X119920000Y-69520000D01*
X120920000Y-82520000D02*
X120920000Y-83520000D01*
X124420000Y-123620000D02*
X124420000Y-122620000D01*
X138420000Y-122620000D02*
X137420000Y-122620000D01*
X138420000Y-122620000D02*
X138420000Y-123620000D01*
X125420000Y-122620000D02*
X124420000Y-122620000D01*
X124420000Y-136620000D02*
X125420000Y-136620000D01*
X124420000Y-136620000D02*
X124420000Y-135620000D01*
X137420000Y-136620000D02*
X138420000Y-136620000D01*
X138420000Y-135620000D02*
X138420000Y-136620000D01*
X141860000Y-59110000D02*
X141860000Y-58110000D01*
X155860000Y-71110000D02*
X155860000Y-72110000D01*
X141860000Y-72110000D02*
X142860000Y-72110000D01*
X155860000Y-58110000D02*
X155860000Y-59110000D01*
X154860000Y-72110000D02*
X155860000Y-72110000D01*
X155860000Y-58110000D02*
X154860000Y-58110000D01*
X142860000Y-58110000D02*
X141860000Y-58110000D01*
X141860000Y-72110000D02*
X141860000Y-71110000D01*
X168420000Y-60580000D02*
X168420000Y-59580000D01*
X181420000Y-60580000D02*
X182420000Y-60580000D01*
X168420000Y-60580000D02*
X169420000Y-60580000D01*
X182420000Y-46580000D02*
X182420000Y-47580000D01*
X182420000Y-46580000D02*
X181420000Y-46580000D01*
X182420000Y-59580000D02*
X182420000Y-60580000D01*
X169420000Y-46580000D02*
X168420000Y-46580000D01*
X168420000Y-47580000D02*
X168420000Y-46580000D01*
X197390000Y-60460000D02*
X197390000Y-59460000D01*
X210390000Y-60460000D02*
X211390000Y-60460000D01*
X197390000Y-60460000D02*
X198390000Y-60460000D01*
X211390000Y-46460000D02*
X211390000Y-47460000D01*
X198390000Y-46460000D02*
X197390000Y-46460000D01*
X211390000Y-59460000D02*
X211390000Y-60460000D01*
X197390000Y-47460000D02*
X197390000Y-46460000D01*
X211390000Y-46460000D02*
X210390000Y-46460000D01*
X227336400Y-49950400D02*
X226336400Y-49950400D01*
X240336400Y-62950400D02*
X240336400Y-63950400D01*
X226336400Y-63950400D02*
X227336400Y-63950400D01*
X226336400Y-63950400D02*
X226336400Y-62950400D01*
X226336400Y-50950400D02*
X226336400Y-49950400D01*
X239336400Y-63950400D02*
X240336400Y-63950400D01*
X240336400Y-49950400D02*
X240336400Y-50950400D01*
X240336400Y-49950400D02*
X239336400Y-49950400D01*
X149250000Y-103150000D02*
X150250000Y-103150000D01*
X136250000Y-103150000D02*
X136250000Y-102150000D01*
X137250000Y-89150000D02*
X136250000Y-89150000D01*
X136250000Y-90150000D02*
X136250000Y-89150000D01*
X150250000Y-89150000D02*
X150250000Y-90150000D01*
X136250000Y-103150000D02*
X137250000Y-103150000D01*
X150250000Y-102150000D02*
X150250000Y-103150000D01*
X150250000Y-89150000D02*
X149250000Y-89150000D01*
X162860000Y-79040000D02*
X162860000Y-78040000D01*
X175860000Y-92040000D02*
X176860000Y-92040000D01*
X162860000Y-92040000D02*
X162860000Y-91040000D01*
X162860000Y-92040000D02*
X163860000Y-92040000D01*
X176860000Y-78040000D02*
X176860000Y-79040000D01*
X176860000Y-78040000D02*
X175860000Y-78040000D01*
X163860000Y-78040000D02*
X162860000Y-78040000D01*
X176860000Y-91040000D02*
X176860000Y-92040000D01*
X205710000Y-91040000D02*
X205710000Y-92040000D01*
X205710000Y-78040000D02*
X205710000Y-79040000D01*
X191710000Y-79040000D02*
X191710000Y-78040000D01*
X191710000Y-92040000D02*
X191710000Y-91040000D01*
X205710000Y-78040000D02*
X204710000Y-78040000D01*
X192710000Y-78040000D02*
X191710000Y-78040000D01*
X191710000Y-92040000D02*
X192710000Y-92040000D01*
X204710000Y-92040000D02*
X205710000Y-92040000D01*
X220896400Y-95290400D02*
X221896400Y-95290400D01*
X221896400Y-81290400D02*
X220896400Y-81290400D01*
X234896400Y-81290400D02*
X234896400Y-82290400D01*
X233896400Y-95290400D02*
X234896400Y-95290400D01*
X220896400Y-82290400D02*
X220896400Y-81290400D01*
X234896400Y-94290400D02*
X234896400Y-95290400D01*
X234896400Y-81290400D02*
X233896400Y-81290400D01*
X220896400Y-95290400D02*
X220896400Y-94290400D01*
X65225000Y-58050000D02*
X65225000Y-59050000D01*
X65225000Y-58050000D02*
X64225000Y-58050000D01*
X64225000Y-72050000D02*
X65225000Y-72050000D01*
X65225000Y-71050000D02*
X65225000Y-72050000D01*
X51225000Y-72050000D02*
X51225000Y-71050000D01*
X51225000Y-72050000D02*
X52225000Y-72050000D01*
X51225000Y-59050000D02*
X51225000Y-58050000D01*
X52225000Y-58050000D02*
X51225000Y-58050000D01*
D13*
X87520000Y-42980000D02*
X87520000Y-36520000D01*
X93980000Y-42980000D02*
X93980000Y-36520000D01*
X93980000Y-36520000D02*
X93950000Y-36520000D01*
X93980000Y-42980000D02*
X93950000Y-42980000D01*
X87550000Y-42980000D02*
X87520000Y-42980000D01*
X89450000Y-36520000D02*
X92050000Y-36520000D01*
X89450000Y-42980000D02*
X92050000Y-42980000D01*
X87520000Y-36520000D02*
X87550000Y-36520000D01*
X64520000Y-36520000D02*
X64550000Y-36520000D01*
X66450000Y-36520000D02*
X69050000Y-36520000D01*
X64550000Y-42980000D02*
X64520000Y-42980000D01*
X66450000Y-42980000D02*
X69050000Y-42980000D01*
X70980000Y-42980000D02*
X70950000Y-42980000D01*
X64520000Y-42980000D02*
X64520000Y-36520000D01*
X70980000Y-42980000D02*
X70980000Y-36520000D01*
X70980000Y-36520000D02*
X70950000Y-36520000D01*
X103980000Y-42980000D02*
X103980000Y-36520000D01*
X97550000Y-42980000D02*
X97520000Y-42980000D01*
X97520000Y-42980000D02*
X97520000Y-36520000D01*
X97520000Y-36520000D02*
X97550000Y-36520000D01*
X103980000Y-36520000D02*
X103950000Y-36520000D01*
X103980000Y-42980000D02*
X103950000Y-42980000D01*
X99450000Y-36520000D02*
X102050000Y-36520000D01*
X99450000Y-42980000D02*
X102050000Y-42980000D01*
X60980000Y-42980000D02*
X60950000Y-42980000D01*
X60980000Y-36520000D02*
X60950000Y-36520000D01*
X60980000Y-42980000D02*
X60980000Y-36520000D01*
X54520000Y-36520000D02*
X54550000Y-36520000D01*
X54520000Y-42980000D02*
X54520000Y-36520000D01*
X56450000Y-36520000D02*
X59050000Y-36520000D01*
X54550000Y-42980000D02*
X54520000Y-42980000D01*
X56450000Y-42980000D02*
X59050000Y-42980000D01*
X76450000Y-42980000D02*
X79050000Y-42980000D01*
X80980000Y-36520000D02*
X80950000Y-36520000D01*
X74520000Y-42980000D02*
X74520000Y-36520000D01*
X80980000Y-42980000D02*
X80950000Y-42980000D01*
X74550000Y-42980000D02*
X74520000Y-42980000D01*
X74520000Y-36520000D02*
X74550000Y-36520000D01*
X76450000Y-36520000D02*
X79050000Y-36520000D01*
X80980000Y-42980000D02*
X80980000Y-36520000D01*
X113980000Y-42980000D02*
X113980000Y-36520000D01*
X109450000Y-36520000D02*
X112050000Y-36520000D01*
X109450000Y-42980000D02*
X112050000Y-42980000D01*
X113980000Y-42980000D02*
X113950000Y-42980000D01*
X107550000Y-42980000D02*
X107520000Y-42980000D01*
X107520000Y-42980000D02*
X107520000Y-36520000D01*
X113980000Y-36520000D02*
X113950000Y-36520000D01*
X107520000Y-36520000D02*
X107550000Y-36520000D01*
X60000000Y-94000000D02*
X60000000Y-134000000D01*
X60000000Y-134000000D02*
X100000000Y-134000000D01*
X100000000Y-134000000D02*
X100000000Y-94000000D01*
X100000000Y-94000000D02*
X60000000Y-94000000D01*
X137272936Y-41945000D02*
X137727064Y-41945000D01*
X137272936Y-43415000D02*
X137727064Y-43415000D01*
X132727064Y-43415000D02*
X132272936Y-43415000D01*
X132727064Y-41945000D02*
X132272936Y-41945000D01*
X19980000Y-64940000D02*
X21270000Y-64940000D01*
X23070000Y-61590000D02*
X22280000Y-61590000D01*
X19980000Y-63640000D02*
X19770000Y-63840000D01*
X21270000Y-63640000D02*
X19980000Y-63640000D01*
X24120000Y-66440000D02*
X24120000Y-66640000D01*
X21270000Y-62190000D02*
X21270000Y-67890000D01*
X19770000Y-63840000D02*
X19770000Y-64740000D01*
X19980000Y-64940000D02*
X19770000Y-64740000D01*
X22280000Y-68490000D02*
X23070000Y-68490000D01*
X24120000Y-63440000D02*
X24120000Y-65140000D01*
X19770000Y-94950000D02*
X19770000Y-95850000D01*
X19980000Y-96050000D02*
X21270000Y-96050000D01*
X24120000Y-94550000D02*
X24120000Y-96250000D01*
X24120000Y-97550000D02*
X24120000Y-97750000D01*
X19980000Y-94750000D02*
X19770000Y-94950000D01*
X21270000Y-93300000D02*
X21270000Y-99000000D01*
X19980000Y-96050000D02*
X19770000Y-95850000D01*
X21270000Y-94750000D02*
X19980000Y-94750000D01*
X23070000Y-92700000D02*
X22280000Y-92700000D01*
X22280000Y-99600000D02*
X23070000Y-99600000D01*
%LPC*%
D12*
X243892857Y-118956919D02*
X244011904Y-119090848D01*
X244130952Y-119462872D01*
X244130952Y-119700967D01*
X244011904Y-120043229D01*
X243773809Y-120251562D01*
X243535714Y-120340848D01*
X243059523Y-120400372D01*
X242702380Y-120355729D01*
X242226190Y-120177157D01*
X241988095Y-120028348D01*
X241750000Y-119760491D01*
X241630952Y-119388467D01*
X241630952Y-119150372D01*
X241750000Y-118808110D01*
X241869047Y-118703943D01*
X244130952Y-117915252D02*
X241630952Y-117602752D01*
X242821428Y-117751562D02*
X242821428Y-116322991D01*
X244130952Y-116486681D02*
X241630952Y-116174181D01*
X243416666Y-115325967D02*
X243416666Y-114135491D01*
X244130952Y-115653348D02*
X241630952Y-114507514D01*
X244130952Y-113986681D01*
X244011904Y-113257514D02*
X244130952Y-112915252D01*
X244130952Y-112320014D01*
X244011904Y-112067038D01*
X243892857Y-111933110D01*
X243654761Y-111784300D01*
X243416666Y-111754538D01*
X243178571Y-111843824D01*
X243059523Y-111947991D01*
X242940476Y-112171205D01*
X242821428Y-112632514D01*
X242702380Y-112855729D01*
X242583333Y-112959895D01*
X242345238Y-113049181D01*
X242107142Y-113019419D01*
X241869047Y-112870610D01*
X241750000Y-112736681D01*
X241630952Y-112483705D01*
X241630952Y-111888467D01*
X241750000Y-111546205D01*
X241630952Y-110817038D02*
X241630952Y-109388467D01*
X244130952Y-110415252D02*
X241630952Y-110102752D01*
X244130952Y-108867633D02*
X241630952Y-108555133D01*
X241630952Y-107721800D02*
X241630952Y-106293229D01*
X244130952Y-107320014D02*
X241630952Y-107007514D01*
X242940476Y-105147395D02*
X244130952Y-105296205D01*
X241630952Y-105817038D02*
X242940476Y-105147395D01*
X241630952Y-104150372D01*
X244130952Y-101724776D02*
X241630952Y-101412276D01*
X241630952Y-100817038D01*
X241750000Y-100474776D01*
X241988095Y-100266443D01*
X242226190Y-100177157D01*
X242702380Y-100117633D01*
X243059523Y-100162276D01*
X243535714Y-100340848D01*
X243773809Y-100489657D01*
X244011904Y-100757514D01*
X244130952Y-101129538D01*
X244130952Y-101724776D01*
X242821428Y-99061086D02*
X242821428Y-98227752D01*
X244130952Y-98034300D02*
X244130952Y-99224776D01*
X241630952Y-98912276D01*
X241630952Y-97721800D01*
X241630952Y-97007514D02*
X244130952Y-96486681D01*
X241630952Y-95340848D01*
X244130952Y-94820014D02*
X241630952Y-94507514D01*
X243892857Y-92171205D02*
X244011904Y-92305133D01*
X244130952Y-92677157D01*
X244130952Y-92915252D01*
X244011904Y-93257514D01*
X243773809Y-93465848D01*
X243535714Y-93555133D01*
X243059523Y-93614657D01*
X242702380Y-93570014D01*
X242226190Y-93391443D01*
X241988095Y-93242633D01*
X241750000Y-92974776D01*
X241630952Y-92602752D01*
X241630952Y-92364657D01*
X241750000Y-92022395D01*
X241869047Y-91918229D01*
X242821428Y-90965848D02*
X242821428Y-90132514D01*
X244130952Y-89939062D02*
X244130952Y-91129538D01*
X241630952Y-90817038D01*
X241630952Y-89626562D01*
D14*
X81820000Y-65170000D03*
D15*
X87320000Y-65170000D03*
D14*
X92820000Y-65170000D03*
D16*
X87320000Y-71070000D03*
X82320000Y-68970000D03*
D15*
X113920000Y-76520000D03*
D14*
X108420000Y-76520000D03*
X119420000Y-76520000D03*
D16*
X113920000Y-82420000D03*
X108920000Y-80320000D03*
D15*
X131420000Y-129620000D03*
D14*
X136920000Y-129620000D03*
X125920000Y-129620000D03*
D16*
X131420000Y-135520000D03*
X126420000Y-133420000D03*
D14*
X143360000Y-65110000D03*
D15*
X148860000Y-65110000D03*
D14*
X154360000Y-65110000D03*
D16*
X148860000Y-71010000D03*
X143860000Y-68910000D03*
D14*
X169920000Y-53580000D03*
X180920000Y-53580000D03*
D15*
X175420000Y-53580000D03*
D16*
X175420000Y-59480000D03*
X170420000Y-57380000D03*
D15*
X204390000Y-53460000D03*
D14*
X198890000Y-53460000D03*
X209890000Y-53460000D03*
D16*
X204390000Y-59360000D03*
X199390000Y-57260000D03*
D14*
X227836400Y-56950400D03*
D15*
X233336400Y-56950400D03*
D14*
X238836400Y-56950400D03*
D16*
X233336400Y-62850400D03*
X228336400Y-60750400D03*
D15*
X143250000Y-96150000D03*
D14*
X148750000Y-96150000D03*
X137750000Y-96150000D03*
D16*
X143250000Y-102050000D03*
X138250000Y-99950000D03*
D15*
X169860000Y-85040000D03*
D14*
X175360000Y-85040000D03*
X164360000Y-85040000D03*
D16*
X169860000Y-90940000D03*
X164860000Y-88840000D03*
D15*
X198710000Y-85040000D03*
D14*
X204210000Y-85040000D03*
X193210000Y-85040000D03*
D16*
X198710000Y-90940000D03*
X193710000Y-88840000D03*
D15*
X227896400Y-88290400D03*
D14*
X233396400Y-88290400D03*
X222396400Y-88290400D03*
D16*
X227896400Y-94190400D03*
X222896400Y-92090400D03*
D17*
X27000000Y-37000000D03*
X27000000Y-143000000D03*
X243000000Y-143000000D03*
X243000000Y-37000000D03*
D14*
X52725000Y-65050000D03*
X63725000Y-65050000D03*
D15*
X58225000Y-65050000D03*
D16*
X58225000Y-70950000D03*
X53225000Y-68850000D03*
D18*
X88500000Y-35775000D03*
X88500000Y-43725000D03*
X93000000Y-35775000D03*
X93000000Y-43725000D03*
X65500000Y-43725000D03*
X65500000Y-35775000D03*
X70000000Y-35775000D03*
X70000000Y-43725000D03*
X98500000Y-35775000D03*
X98500000Y-43725000D03*
X103000000Y-35775000D03*
X103000000Y-43725000D03*
X55500000Y-35775000D03*
X55500000Y-43725000D03*
X60000000Y-35775000D03*
X60000000Y-43725000D03*
X75500000Y-35775000D03*
X75500000Y-43725000D03*
X80000000Y-35775000D03*
X80000000Y-43725000D03*
X108500000Y-43725000D03*
X108500000Y-35775000D03*
X113000000Y-35775000D03*
X113000000Y-43725000D03*
D19*
X82850000Y-96940000D03*
X63960000Y-130350000D03*
X71050000Y-96760000D03*
X97550000Y-130350000D03*
X80850000Y-96940000D03*
X62600000Y-100920000D03*
X97810000Y-126000000D03*
X73960000Y-130350000D03*
X77050000Y-96760000D03*
X97810000Y-112000000D03*
X97790000Y-95460000D03*
X62600000Y-102920000D03*
X62600000Y-104920000D03*
X62600000Y-106920000D03*
X62600000Y-108920000D03*
X62600000Y-110920000D03*
X62600000Y-112920000D03*
X62600000Y-114920000D03*
X62600000Y-116920000D03*
X97790000Y-97460000D03*
X97790000Y-99460000D03*
X97790000Y-101460000D03*
X97790000Y-103460000D03*
X97790000Y-105460000D03*
X97790000Y-107460000D03*
X97790000Y-109460000D03*
X97810000Y-114000000D03*
X97810000Y-116000000D03*
X97810000Y-118000000D03*
X97810000Y-120000000D03*
X97810000Y-122000000D03*
X97810000Y-124000000D03*
X61960000Y-130350000D03*
X65960000Y-130350000D03*
X71960000Y-130350000D03*
X73050000Y-96760000D03*
X75050000Y-96760000D03*
X84850000Y-96940000D03*
X86850000Y-96940000D03*
X67960000Y-130350000D03*
X69960000Y-130350000D03*
X91550000Y-130350000D03*
X93550000Y-130350000D03*
X95550000Y-130350000D03*
X88850000Y-96940000D03*
X68550000Y-96760000D03*
D20*
X136587500Y-42680000D03*
X138412500Y-42680000D03*
D21*
X132110000Y-36446800D03*
X137890000Y-36446800D03*
D22*
X138250000Y-37891800D03*
X137450000Y-37891800D03*
D23*
X136750000Y-37891800D03*
X136250000Y-37891800D03*
X135750000Y-37891800D03*
X135250000Y-37891800D03*
X134750000Y-37891800D03*
X134250000Y-37891800D03*
X133750000Y-37891800D03*
X133250000Y-37891800D03*
D22*
X132550000Y-37891800D03*
X131750000Y-37891800D03*
D24*
X139320000Y-32796800D03*
D25*
X130680000Y-36976800D03*
X139320000Y-36976800D03*
D24*
X130680000Y-32796800D03*
D26*
X133412500Y-42680000D03*
X131587500Y-42680000D03*
D27*
X22670000Y-66540000D03*
D28*
X21570000Y-61390000D03*
D27*
X22670000Y-63540000D03*
D28*
X23780000Y-68690000D03*
X23780000Y-61390000D03*
X21570000Y-68690000D03*
D29*
X24430000Y-62790000D03*
X24430000Y-65790000D03*
X24430000Y-67290000D03*
D27*
X22670000Y-94650000D03*
D28*
X21570000Y-92500000D03*
D27*
X22670000Y-97650000D03*
D28*
X23780000Y-92500000D03*
X23780000Y-99800000D03*
X21570000Y-99800000D03*
D29*
X24430000Y-93900000D03*
X24430000Y-96900000D03*
X24430000Y-98400000D03*
D17*
X26980000Y-132020000D03*
M02*
