M48
; DRILL file {KiCad (6.0.5)} date Tue Aug 23 15:34:56 2022
; FORMAT={-:-/ absolute / inch / decimal}
; #@! TF.CreationDate,2022-08-23T15:34:56-07:00
; #@! TF.GenerationSoftware,Kicad,Pcbnew,(6.0.5)
; #@! TF.FileFunction,NonPlated,1,2,NPTH
FMAT,2
INCH
; #@! TA.AperFunction,NonPlated,NPTH,ComponentDrill
T1C0.0256
; #@! TA.AperFunction,NonPlated,NPTH,ComponentDrill
T2C0.0354
; #@! TA.AperFunction,NonPlated,NPTH,ComponentDrill
T3C0.0670
; #@! TA.AperFunction,NonPlated,NPTH,ComponentDrill
T4C0.1350
; #@! TA.AperFunction,NonPlated,NPTH,ComponentDrill
T5C0.1949
%
G90
G05
T1
X5.2012Y-1.4349
X5.4287Y-1.4349
T2
X0.8925Y-2.5016
X0.8925Y-2.6197
X0.8925Y-3.7264
X0.8925Y-3.8445
T3
X2.0758Y-2.561
X2.5089Y-2.561
X3.2213Y-2.5657
X3.6543Y-2.5657
X4.2685Y-3.0126
X4.7016Y-3.0126
X4.9575Y-5.1031
X5.3906Y-5.1031
X5.4232Y-3.7854
X5.6441Y-2.5634
X5.8563Y-3.7854
X6.0772Y-2.5634
X6.4709Y-3.348
X6.6898Y-2.1094
X6.9039Y-3.348
X7.1228Y-2.1094
X7.6067Y-3.348
X7.8303Y-2.1047
X8.0398Y-3.348
X8.2634Y-2.1047
X8.7558Y-3.476
X8.9699Y-2.2421
X9.1888Y-3.476
X9.403Y-2.2421
T4
X2.2923Y-2.561
X3.4378Y-2.5657
X4.485Y-3.0126
X5.174Y-5.1031
X5.6398Y-3.7854
X5.8606Y-2.5634
X6.6874Y-3.348
X6.9063Y-2.1094
X7.8232Y-3.348
X8.0469Y-2.1047
X8.9723Y-3.476
X9.1865Y-2.2421
T5
X1.0622Y-5.1976
X1.063Y-1.4567
X1.063Y-5.6299
X9.5669Y-1.4567
X9.5669Y-5.6299
T0
M30
