%TF.GenerationSoftware,KiCad,Pcbnew,(6.0.5)*%
%TF.CreationDate,2022-08-30T07:27:48-07:00*%
%TF.ProjectId,chastity-device-rev2,63686173-7469-4747-992d-646576696365,rev?*%
%TF.SameCoordinates,Original*%
%TF.FileFunction,Paste,Top*%
%TF.FilePolarity,Positive*%
%FSLAX46Y46*%
G04 Gerber Fmt 4.6, Leading zero omitted, Abs format (unit mm)*
G04 Created by KiCad (PCBNEW (6.0.5)) date 2022-08-30 07:27:48*
%MOMM*%
%LPD*%
G01*
G04 APERTURE LIST*
G04 Aperture macros list*
%AMRoundRect*
0 Rectangle with rounded corners*
0 $1 Rounding radius*
0 $2 $3 $4 $5 $6 $7 $8 $9 X,Y pos of 4 corners*
0 Add a 4 corners polygon primitive as box body*
4,1,4,$2,$3,$4,$5,$6,$7,$8,$9,$2,$3,0*
0 Add four circle primitives for the rounded corners*
1,1,$1+$1,$2,$3*
1,1,$1+$1,$4,$5*
1,1,$1+$1,$6,$7*
1,1,$1+$1,$8,$9*
0 Add four rect primitives between the rounded corners*
20,1,$1+$1,$2,$3,$4,$5,0*
20,1,$1+$1,$4,$5,$6,$7,0*
20,1,$1+$1,$6,$7,$8,$9,0*
20,1,$1+$1,$8,$9,$2,$3,0*%
G04 Aperture macros list end*
%ADD10R,1.300000X1.550000*%
%ADD11RoundRect,0.249999X-0.262501X-0.450001X0.262501X-0.450001X0.262501X0.450001X-0.262501X0.450001X0*%
%ADD12R,0.600000X1.450000*%
%ADD13R,0.300000X1.450000*%
%ADD14RoundRect,0.249999X0.262501X0.450001X-0.262501X0.450001X-0.262501X-0.450001X0.262501X-0.450001X0*%
%ADD15R,0.800000X1.000000*%
%ADD16R,1.500000X0.700000*%
G04 APERTURE END LIST*
D10*
X88500000Y-35775000D03*
X88500000Y-43725000D03*
X93000000Y-35775000D03*
X93000000Y-43725000D03*
X65500000Y-43725000D03*
X65500000Y-35775000D03*
X70000000Y-35775000D03*
X70000000Y-43725000D03*
X98500000Y-35775000D03*
X98500000Y-43725000D03*
X103000000Y-35775000D03*
X103000000Y-43725000D03*
X55500000Y-35775000D03*
X55500000Y-43725000D03*
X60000000Y-35775000D03*
X60000000Y-43725000D03*
X75500000Y-35775000D03*
X75500000Y-43725000D03*
X80000000Y-35775000D03*
X80000000Y-43725000D03*
X108500000Y-43725000D03*
X108500000Y-35775000D03*
X113000000Y-35775000D03*
X113000000Y-43725000D03*
D11*
X136587500Y-42680000D03*
X138412500Y-42680000D03*
D12*
X138250000Y-37891800D03*
X137450000Y-37891800D03*
D13*
X136750000Y-37891800D03*
X136250000Y-37891800D03*
X135750000Y-37891800D03*
X135250000Y-37891800D03*
X134750000Y-37891800D03*
X134250000Y-37891800D03*
X133750000Y-37891800D03*
X133250000Y-37891800D03*
D12*
X132550000Y-37891800D03*
X131750000Y-37891800D03*
D14*
X133412500Y-42680000D03*
X131587500Y-42680000D03*
D15*
X21570000Y-61390000D03*
X23780000Y-68690000D03*
X23780000Y-61390000D03*
X21570000Y-68690000D03*
D16*
X24430000Y-62790000D03*
X24430000Y-65790000D03*
X24430000Y-67290000D03*
D15*
X21570000Y-92500000D03*
X23780000Y-92500000D03*
X23780000Y-99800000D03*
X21570000Y-99800000D03*
D16*
X24430000Y-93900000D03*
X24430000Y-96900000D03*
X24430000Y-98400000D03*
M02*
