%TF.GenerationSoftware,KiCad,Pcbnew,(6.0.5)*%
%TF.CreationDate,2022-08-30T07:27:48-07:00*%
%TF.ProjectId,chastity-device-rev2,63686173-7469-4747-992d-646576696365,rev?*%
%TF.SameCoordinates,Original*%
%TF.FileFunction,Soldermask,Top*%
%TF.FilePolarity,Negative*%
%FSLAX46Y46*%
G04 Gerber Fmt 4.6, Leading zero omitted, Abs format (unit mm)*
G04 Created by KiCad (PCBNEW (6.0.5)) date 2022-08-30 07:27:48*
%MOMM*%
%LPD*%
G01*
G04 APERTURE LIST*
G04 Aperture macros list*
%AMRoundRect*
0 Rectangle with rounded corners*
0 $1 Rounding radius*
0 $2 $3 $4 $5 $6 $7 $8 $9 X,Y pos of 4 corners*
0 Add a 4 corners polygon primitive as box body*
4,1,4,$2,$3,$4,$5,$6,$7,$8,$9,$2,$3,0*
0 Add four circle primitives for the rounded corners*
1,1,$1+$1,$2,$3*
1,1,$1+$1,$4,$5*
1,1,$1+$1,$6,$7*
1,1,$1+$1,$8,$9*
0 Add four rect primitives between the rounded corners*
20,1,$1+$1,$2,$3,$4,$5,0*
20,1,$1+$1,$4,$5,$6,$7,0*
20,1,$1+$1,$6,$7,$8,$9,0*
20,1,$1+$1,$8,$9,$2,$3,0*%
G04 Aperture macros list end*
%ADD10C,0.300000*%
%ADD11C,1.701800*%
%ADD12C,3.429000*%
%ADD13C,2.032000*%
%ADD14C,4.950000*%
%ADD15R,1.300000X1.550000*%
%ADD16C,1.524000*%
%ADD17RoundRect,0.249999X-0.262501X-0.450001X0.262501X-0.450001X0.262501X0.450001X-0.262501X0.450001X0*%
%ADD18C,0.650000*%
%ADD19R,0.600000X1.450000*%
%ADD20R,0.300000X1.450000*%
%ADD21O,1.000000X1.600000*%
%ADD22O,1.000000X2.100000*%
%ADD23RoundRect,0.249999X0.262501X0.450001X-0.262501X0.450001X-0.262501X-0.450001X0.262501X-0.450001X0*%
%ADD24C,0.900000*%
%ADD25R,0.800000X1.000000*%
%ADD26R,1.500000X0.700000*%
G04 APERTURE END LIST*
D10*
X243892857Y-118956919D02*
X244011904Y-119090848D01*
X244130952Y-119462872D01*
X244130952Y-119700967D01*
X244011904Y-120043229D01*
X243773809Y-120251562D01*
X243535714Y-120340848D01*
X243059523Y-120400372D01*
X242702380Y-120355729D01*
X242226190Y-120177157D01*
X241988095Y-120028348D01*
X241750000Y-119760491D01*
X241630952Y-119388467D01*
X241630952Y-119150372D01*
X241750000Y-118808110D01*
X241869047Y-118703943D01*
X244130952Y-117915252D02*
X241630952Y-117602752D01*
X242821428Y-117751562D02*
X242821428Y-116322991D01*
X244130952Y-116486681D02*
X241630952Y-116174181D01*
X243416666Y-115325967D02*
X243416666Y-114135491D01*
X244130952Y-115653348D02*
X241630952Y-114507514D01*
X244130952Y-113986681D01*
X244011904Y-113257514D02*
X244130952Y-112915252D01*
X244130952Y-112320014D01*
X244011904Y-112067038D01*
X243892857Y-111933110D01*
X243654761Y-111784300D01*
X243416666Y-111754538D01*
X243178571Y-111843824D01*
X243059523Y-111947991D01*
X242940476Y-112171205D01*
X242821428Y-112632514D01*
X242702380Y-112855729D01*
X242583333Y-112959895D01*
X242345238Y-113049181D01*
X242107142Y-113019419D01*
X241869047Y-112870610D01*
X241750000Y-112736681D01*
X241630952Y-112483705D01*
X241630952Y-111888467D01*
X241750000Y-111546205D01*
X241630952Y-110817038D02*
X241630952Y-109388467D01*
X244130952Y-110415252D02*
X241630952Y-110102752D01*
X244130952Y-108867633D02*
X241630952Y-108555133D01*
X241630952Y-107721800D02*
X241630952Y-106293229D01*
X244130952Y-107320014D02*
X241630952Y-107007514D01*
X242940476Y-105147395D02*
X244130952Y-105296205D01*
X241630952Y-105817038D02*
X242940476Y-105147395D01*
X241630952Y-104150372D01*
X244130952Y-101724776D02*
X241630952Y-101412276D01*
X241630952Y-100817038D01*
X241750000Y-100474776D01*
X241988095Y-100266443D01*
X242226190Y-100177157D01*
X242702380Y-100117633D01*
X243059523Y-100162276D01*
X243535714Y-100340848D01*
X243773809Y-100489657D01*
X244011904Y-100757514D01*
X244130952Y-101129538D01*
X244130952Y-101724776D01*
X242821428Y-99061086D02*
X242821428Y-98227752D01*
X244130952Y-98034300D02*
X244130952Y-99224776D01*
X241630952Y-98912276D01*
X241630952Y-97721800D01*
X241630952Y-97007514D02*
X244130952Y-96486681D01*
X241630952Y-95340848D01*
X244130952Y-94820014D02*
X241630952Y-94507514D01*
X243892857Y-92171205D02*
X244011904Y-92305133D01*
X244130952Y-92677157D01*
X244130952Y-92915252D01*
X244011904Y-93257514D01*
X243773809Y-93465848D01*
X243535714Y-93555133D01*
X243059523Y-93614657D01*
X242702380Y-93570014D01*
X242226190Y-93391443D01*
X241988095Y-93242633D01*
X241750000Y-92974776D01*
X241630952Y-92602752D01*
X241630952Y-92364657D01*
X241750000Y-92022395D01*
X241869047Y-91918229D01*
X242821428Y-90965848D02*
X242821428Y-90132514D01*
X244130952Y-89939062D02*
X244130952Y-91129538D01*
X241630952Y-90817038D01*
X241630952Y-89626562D01*
D11*
X81820000Y-65170000D03*
D12*
X87320000Y-65170000D03*
D11*
X92820000Y-65170000D03*
D13*
X87320000Y-71070000D03*
X82320000Y-68970000D03*
D12*
X113920000Y-76520000D03*
D11*
X108420000Y-76520000D03*
X119420000Y-76520000D03*
D13*
X113920000Y-82420000D03*
X108920000Y-80320000D03*
D12*
X131420000Y-129620000D03*
D11*
X136920000Y-129620000D03*
X125920000Y-129620000D03*
D13*
X131420000Y-135520000D03*
X126420000Y-133420000D03*
D11*
X143360000Y-65110000D03*
D12*
X148860000Y-65110000D03*
D11*
X154360000Y-65110000D03*
D13*
X148860000Y-71010000D03*
X143860000Y-68910000D03*
D11*
X169920000Y-53580000D03*
X180920000Y-53580000D03*
D12*
X175420000Y-53580000D03*
D13*
X175420000Y-59480000D03*
X170420000Y-57380000D03*
D12*
X204390000Y-53460000D03*
D11*
X198890000Y-53460000D03*
X209890000Y-53460000D03*
D13*
X204390000Y-59360000D03*
X199390000Y-57260000D03*
D11*
X227836400Y-56950400D03*
D12*
X233336400Y-56950400D03*
D11*
X238836400Y-56950400D03*
D13*
X233336400Y-62850400D03*
X228336400Y-60750400D03*
D12*
X143250000Y-96150000D03*
D11*
X148750000Y-96150000D03*
X137750000Y-96150000D03*
D13*
X143250000Y-102050000D03*
X138250000Y-99950000D03*
D12*
X169860000Y-85040000D03*
D11*
X175360000Y-85040000D03*
X164360000Y-85040000D03*
D13*
X169860000Y-90940000D03*
X164860000Y-88840000D03*
D12*
X198710000Y-85040000D03*
D11*
X204210000Y-85040000D03*
X193210000Y-85040000D03*
D13*
X198710000Y-90940000D03*
X193710000Y-88840000D03*
D12*
X227896400Y-88290400D03*
D11*
X233396400Y-88290400D03*
X222396400Y-88290400D03*
D13*
X227896400Y-94190400D03*
X222896400Y-92090400D03*
D14*
X27000000Y-37000000D03*
X27000000Y-143000000D03*
X243000000Y-143000000D03*
X243000000Y-37000000D03*
D11*
X52725000Y-65050000D03*
X63725000Y-65050000D03*
D12*
X58225000Y-65050000D03*
D13*
X58225000Y-70950000D03*
X53225000Y-68850000D03*
D15*
X88500000Y-35775000D03*
X88500000Y-43725000D03*
X93000000Y-35775000D03*
X93000000Y-43725000D03*
X65500000Y-43725000D03*
X65500000Y-35775000D03*
X70000000Y-35775000D03*
X70000000Y-43725000D03*
X98500000Y-35775000D03*
X98500000Y-43725000D03*
X103000000Y-35775000D03*
X103000000Y-43725000D03*
X55500000Y-35775000D03*
X55500000Y-43725000D03*
X60000000Y-35775000D03*
X60000000Y-43725000D03*
X75500000Y-35775000D03*
X75500000Y-43725000D03*
X80000000Y-35775000D03*
X80000000Y-43725000D03*
X108500000Y-43725000D03*
X108500000Y-35775000D03*
X113000000Y-35775000D03*
X113000000Y-43725000D03*
D16*
X82850000Y-96940000D03*
X63960000Y-130350000D03*
X71050000Y-96760000D03*
X97550000Y-130350000D03*
X80850000Y-96940000D03*
X62600000Y-100920000D03*
X97810000Y-126000000D03*
X73960000Y-130350000D03*
X77050000Y-96760000D03*
X97810000Y-112000000D03*
X97790000Y-95460000D03*
X62600000Y-102920000D03*
X62600000Y-104920000D03*
X62600000Y-106920000D03*
X62600000Y-108920000D03*
X62600000Y-110920000D03*
X62600000Y-112920000D03*
X62600000Y-114920000D03*
X62600000Y-116920000D03*
X97790000Y-97460000D03*
X97790000Y-99460000D03*
X97790000Y-101460000D03*
X97790000Y-103460000D03*
X97790000Y-105460000D03*
X97790000Y-107460000D03*
X97790000Y-109460000D03*
X97810000Y-114000000D03*
X97810000Y-116000000D03*
X97810000Y-118000000D03*
X97810000Y-120000000D03*
X97810000Y-122000000D03*
X97810000Y-124000000D03*
X61960000Y-130350000D03*
X65960000Y-130350000D03*
X71960000Y-130350000D03*
X73050000Y-96760000D03*
X75050000Y-96760000D03*
X84850000Y-96940000D03*
X86850000Y-96940000D03*
X67960000Y-130350000D03*
X69960000Y-130350000D03*
X91550000Y-130350000D03*
X93550000Y-130350000D03*
X95550000Y-130350000D03*
X88850000Y-96940000D03*
X68550000Y-96760000D03*
D17*
X136587500Y-42680000D03*
X138412500Y-42680000D03*
D18*
X132110000Y-36446800D03*
X137890000Y-36446800D03*
D19*
X138250000Y-37891800D03*
X137450000Y-37891800D03*
D20*
X136750000Y-37891800D03*
X136250000Y-37891800D03*
X135750000Y-37891800D03*
X135250000Y-37891800D03*
X134750000Y-37891800D03*
X134250000Y-37891800D03*
X133750000Y-37891800D03*
X133250000Y-37891800D03*
D19*
X132550000Y-37891800D03*
X131750000Y-37891800D03*
D21*
X139320000Y-32796800D03*
D22*
X130680000Y-36976800D03*
X139320000Y-36976800D03*
D21*
X130680000Y-32796800D03*
D23*
X133412500Y-42680000D03*
X131587500Y-42680000D03*
D24*
X22670000Y-66540000D03*
D25*
X21570000Y-61390000D03*
D24*
X22670000Y-63540000D03*
D25*
X23780000Y-68690000D03*
X23780000Y-61390000D03*
X21570000Y-68690000D03*
D26*
X24430000Y-62790000D03*
X24430000Y-65790000D03*
X24430000Y-67290000D03*
D24*
X22670000Y-94650000D03*
D25*
X21570000Y-92500000D03*
D24*
X22670000Y-97650000D03*
D25*
X23780000Y-92500000D03*
X23780000Y-99800000D03*
X21570000Y-99800000D03*
D26*
X24430000Y-93900000D03*
X24430000Y-96900000D03*
X24430000Y-98400000D03*
D14*
X26980000Y-132020000D03*
M02*
