M48
; DRILL file {KiCad (6.0.5)} date Tue Aug 23 15:34:56 2022
; FORMAT={-:-/ absolute / inch / decimal}
; #@! TF.CreationDate,2022-08-23T15:34:56-07:00
; #@! TF.GenerationSoftware,Kicad,Pcbnew,(6.0.5)
; #@! TF.FileFunction,Plated,1,2,PTH
FMAT,2
INCH
; #@! TA.AperFunction,Plated,PTH,ViaDrill
T1C0.0157
; #@! TA.AperFunction,Plated,PTH,ComponentDrill
T2C0.0236
; #@! TA.AperFunction,Plated,PTH,ComponentDrill
T3C0.0300
; #@! TA.AperFunction,Plated,PTH,ComponentDrill
T4C0.0500
%
G90
G05
T1
X1.0705Y-2.589
X1.111Y-3.8154
X2.0146Y-4.6181
X2.0996Y-3.4236
X2.1244Y-2.022
X2.1374Y-3.1945
X2.2421Y-2.0217
X2.3378Y-4.2154
X2.5882Y-4.0173
X2.5882Y-4.2638
X2.6634Y-3.1909
X2.6937Y-3.5043
X2.7417Y-4.7016
X2.974Y-2.7039
X3.8776Y-2.0748
X4.1173Y-3.3815
X4.1173Y-3.6398
X4.1173Y-4.3016
X4.6185Y-3.9094
X4.7429Y-3.9138
X4.887Y-3.7697
X5.1417Y-3.6681
X5.2189Y-1.5768
X5.4114Y-1.5783
X7.0906Y-2.6713
T3
X2.4394Y-5.1319
X2.4646Y-3.9732
X2.4646Y-4.052
X2.4646Y-4.1307
X2.4646Y-4.2094
X2.4646Y-4.2882
X2.4646Y-4.3669
X2.4646Y-4.4457
X2.4646Y-4.5244
X2.4646Y-4.6031
X2.5181Y-5.1319
X2.5969Y-5.1319
X2.6756Y-5.1319
X2.6988Y-3.8094
X2.7543Y-5.1319
X2.7972Y-3.8094
X2.8331Y-5.1319
X2.876Y-3.8094
X2.9118Y-5.1319
X2.9547Y-3.8094
X3.0335Y-3.8094
X3.1831Y-3.8165
X3.2618Y-3.8165
X3.3406Y-3.8165
X3.4193Y-3.8165
X3.498Y-3.8165
X3.6043Y-5.1319
X3.6831Y-5.1319
X3.7618Y-5.1319
X3.8406Y-5.1319
X3.85Y-3.7583
X3.85Y-3.837
X3.85Y-3.9157
X3.85Y-3.9945
X3.85Y-4.0732
X3.85Y-4.152
X3.85Y-4.2307
X3.85Y-4.3094
X3.8508Y-4.4094
X3.8508Y-4.4882
X3.8508Y-4.5669
X3.8508Y-4.6457
X3.8508Y-4.7244
X3.8508Y-4.8031
X3.8508Y-4.8819
X3.8508Y-4.9606
T4
X2.0955Y-2.7106
X2.2923Y-2.7933
X3.2409Y-2.7154
X3.4378Y-2.798
X4.2882Y-3.1622
X4.485Y-3.2449
X4.9772Y-5.2528
X5.174Y-5.3354
X5.4429Y-3.935
X5.6398Y-4.0177
X5.6638Y-2.713
X5.8606Y-2.7957
X6.4906Y-3.4976
X6.6874Y-3.5803
X6.7094Y-2.2591
X6.9063Y-2.3417
X7.6264Y-3.4976
X7.8232Y-3.5803
X7.85Y-2.2543
X8.0469Y-2.337
X8.7754Y-3.6256
X8.9723Y-3.7083
X8.9896Y-2.3917
X9.1865Y-2.4744
T2
G00X5.1449Y-1.303
M15
G01X5.1449Y-1.2794
M16
G05
G00X5.1449Y-1.4774
M15
G01X5.1449Y-1.4341
M16
G05
G00X5.485Y-1.303
M15
G01X5.485Y-1.2794
M16
G05
G00X5.485Y-1.4774
M15
G01X5.485Y-1.4341
M16
G05
T0
M30
