%TF.GenerationSoftware,KiCad,Pcbnew,(6.0.5)*%
%TF.CreationDate,2022-08-30T07:27:48-07:00*%
%TF.ProjectId,chastity-device-rev2,63686173-7469-4747-992d-646576696365,rev?*%
%TF.SameCoordinates,Original*%
%TF.FileFunction,Copper,L1,Top*%
%TF.FilePolarity,Positive*%
%FSLAX46Y46*%
G04 Gerber Fmt 4.6, Leading zero omitted, Abs format (unit mm)*
G04 Created by KiCad (PCBNEW (6.0.5)) date 2022-08-30 07:27:48*
%MOMM*%
%LPD*%
G01*
G04 APERTURE LIST*
G04 Aperture macros list*
%AMRoundRect*
0 Rectangle with rounded corners*
0 $1 Rounding radius*
0 $2 $3 $4 $5 $6 $7 $8 $9 X,Y pos of 4 corners*
0 Add a 4 corners polygon primitive as box body*
4,1,4,$2,$3,$4,$5,$6,$7,$8,$9,$2,$3,0*
0 Add four circle primitives for the rounded corners*
1,1,$1+$1,$2,$3*
1,1,$1+$1,$4,$5*
1,1,$1+$1,$6,$7*
1,1,$1+$1,$8,$9*
0 Add four rect primitives between the rounded corners*
20,1,$1+$1,$2,$3,$4,$5,0*
20,1,$1+$1,$4,$5,$6,$7,0*
20,1,$1+$1,$6,$7,$8,$9,0*
20,1,$1+$1,$8,$9,$2,$3,0*%
G04 Aperture macros list end*
%TA.AperFunction,ComponentPad*%
%ADD10C,2.032000*%
%TD*%
%TA.AperFunction,SMDPad,CuDef*%
%ADD11R,1.300000X1.550000*%
%TD*%
%TA.AperFunction,ComponentPad*%
%ADD12C,1.524000*%
%TD*%
%TA.AperFunction,SMDPad,CuDef*%
%ADD13RoundRect,0.249999X-0.262501X-0.450001X0.262501X-0.450001X0.262501X0.450001X-0.262501X0.450001X0*%
%TD*%
%TA.AperFunction,SMDPad,CuDef*%
%ADD14R,0.600000X1.450000*%
%TD*%
%TA.AperFunction,SMDPad,CuDef*%
%ADD15R,0.300000X1.450000*%
%TD*%
%TA.AperFunction,ComponentPad*%
%ADD16O,1.000000X1.600000*%
%TD*%
%TA.AperFunction,ComponentPad*%
%ADD17O,1.000000X2.100000*%
%TD*%
%TA.AperFunction,SMDPad,CuDef*%
%ADD18RoundRect,0.249999X0.262501X0.450001X-0.262501X0.450001X-0.262501X-0.450001X0.262501X-0.450001X0*%
%TD*%
%TA.AperFunction,SMDPad,CuDef*%
%ADD19R,0.800000X1.000000*%
%TD*%
%TA.AperFunction,SMDPad,CuDef*%
%ADD20R,1.500000X0.700000*%
%TD*%
%TA.AperFunction,ViaPad*%
%ADD21C,0.800000*%
%TD*%
%TA.AperFunction,Conductor*%
%ADD22C,0.381000*%
%TD*%
%TA.AperFunction,Conductor*%
%ADD23C,0.200000*%
%TD*%
%TA.AperFunction,Conductor*%
%ADD24C,0.254000*%
%TD*%
G04 APERTURE END LIST*
D10*
X87320000Y-71070000D03*
X82320000Y-68970000D03*
X113920000Y-82420000D03*
X108920000Y-80320000D03*
X131420000Y-135520000D03*
X126420000Y-133420000D03*
X148860000Y-71010000D03*
X143860000Y-68910000D03*
X175420000Y-59480000D03*
X170420000Y-57380000D03*
X204390000Y-59360000D03*
X199390000Y-57260000D03*
X233336400Y-62850400D03*
X228336400Y-60750400D03*
X143250000Y-102050000D03*
X138250000Y-99950000D03*
X169860000Y-90940000D03*
X164860000Y-88840000D03*
X198710000Y-90940000D03*
X193710000Y-88840000D03*
X227896400Y-94190400D03*
X222896400Y-92090400D03*
X58225000Y-70950000D03*
X53225000Y-68850000D03*
D11*
X88500000Y-35775000D03*
X88500000Y-43725000D03*
X93000000Y-35775000D03*
X93000000Y-43725000D03*
X65500000Y-43725000D03*
X65500000Y-35775000D03*
X70000000Y-35775000D03*
X70000000Y-43725000D03*
X98500000Y-35775000D03*
X98500000Y-43725000D03*
X103000000Y-35775000D03*
X103000000Y-43725000D03*
X55500000Y-35775000D03*
X55500000Y-43725000D03*
X60000000Y-35775000D03*
X60000000Y-43725000D03*
X75500000Y-35775000D03*
X75500000Y-43725000D03*
X80000000Y-35775000D03*
X80000000Y-43725000D03*
X108500000Y-43725000D03*
X108500000Y-35775000D03*
X113000000Y-35775000D03*
X113000000Y-43725000D03*
D12*
X82850000Y-96940000D03*
X63960000Y-130350000D03*
X71050000Y-96760000D03*
X97550000Y-130350000D03*
X80850000Y-96940000D03*
X62600000Y-100920000D03*
X97810000Y-126000000D03*
X73960000Y-130350000D03*
X77050000Y-96760000D03*
X97810000Y-112000000D03*
X97790000Y-95460000D03*
X62600000Y-102920000D03*
X62600000Y-104920000D03*
X62600000Y-106920000D03*
X62600000Y-108920000D03*
X62600000Y-110920000D03*
X62600000Y-112920000D03*
X62600000Y-114920000D03*
X62600000Y-116920000D03*
X97790000Y-97460000D03*
X97790000Y-99460000D03*
X97790000Y-101460000D03*
X97790000Y-103460000D03*
X97790000Y-105460000D03*
X97790000Y-107460000D03*
X97790000Y-109460000D03*
X97810000Y-114000000D03*
X97810000Y-116000000D03*
X97810000Y-118000000D03*
X97810000Y-120000000D03*
X97810000Y-122000000D03*
X97810000Y-124000000D03*
X61960000Y-130350000D03*
X65960000Y-130350000D03*
X71960000Y-130350000D03*
X73050000Y-96760000D03*
X75050000Y-96760000D03*
X84850000Y-96940000D03*
X86850000Y-96940000D03*
X67960000Y-130350000D03*
X69960000Y-130350000D03*
X91550000Y-130350000D03*
X93550000Y-130350000D03*
X95550000Y-130350000D03*
X88850000Y-96940000D03*
X68550000Y-96760000D03*
D13*
X136587500Y-42680000D03*
X138412500Y-42680000D03*
D14*
X138250000Y-37891800D03*
X137450000Y-37891800D03*
D15*
X136750000Y-37891800D03*
X136250000Y-37891800D03*
X135750000Y-37891800D03*
X135250000Y-37891800D03*
X134750000Y-37891800D03*
X134250000Y-37891800D03*
X133750000Y-37891800D03*
X133250000Y-37891800D03*
D14*
X132550000Y-37891800D03*
X131750000Y-37891800D03*
D16*
X139320000Y-32796800D03*
D17*
X130680000Y-36976800D03*
X139320000Y-36976800D03*
D16*
X130680000Y-32796800D03*
D18*
X133412500Y-42680000D03*
X131587500Y-42680000D03*
D19*
X21570000Y-61390000D03*
X23780000Y-68690000D03*
X23780000Y-61390000D03*
X21570000Y-68690000D03*
D20*
X24430000Y-62790000D03*
X24430000Y-65790000D03*
X24430000Y-67290000D03*
D19*
X21570000Y-92500000D03*
X23780000Y-92500000D03*
X23780000Y-99800000D03*
X21570000Y-99800000D03*
D20*
X24430000Y-93900000D03*
X24430000Y-96900000D03*
X24430000Y-98400000D03*
D21*
X28220000Y-96910000D03*
X27190000Y-65760000D03*
X137450000Y-40090000D03*
X132560000Y-40050000D03*
X59380000Y-107070000D03*
X68420000Y-89010000D03*
X69640000Y-119420000D03*
X180100000Y-67850000D03*
X67650000Y-81050000D03*
X54290000Y-81140000D03*
X65740000Y-102040000D03*
X65740000Y-108300000D03*
X117310000Y-99300000D03*
X130600000Y-93170000D03*
X120470000Y-99410000D03*
X124130000Y-95750000D03*
X104580000Y-109260000D03*
X104580000Y-85890000D03*
X104580000Y-92450000D03*
X98490000Y-52700000D03*
X75540000Y-68680000D03*
X53330000Y-86960000D03*
X56950000Y-51350000D03*
X53960000Y-51360000D03*
X51170000Y-117300000D03*
D22*
X24430000Y-65790000D02*
X27160000Y-65790000D01*
X27160000Y-65790000D02*
X27190000Y-65760000D01*
X24430000Y-96900000D02*
X28210000Y-96900000D01*
X138250000Y-37891800D02*
X138250000Y-42517500D01*
X138250000Y-42517500D02*
X138412500Y-42680000D01*
X131769989Y-42497511D02*
X131587500Y-42680000D01*
X131769989Y-37911789D02*
X131769989Y-42497511D01*
X131750000Y-37891800D02*
X131769989Y-37911789D01*
X28210000Y-96900000D02*
X28220000Y-96910000D01*
X132550000Y-40040000D02*
X132560000Y-40050000D01*
X132550000Y-37891800D02*
X132550000Y-40040000D01*
X88850000Y-92410000D02*
X88850000Y-96940000D01*
X137490020Y-40130020D02*
X137490020Y-43769980D01*
X137450000Y-40090000D02*
X137450000Y-37891800D01*
X137450000Y-40090000D02*
X137490020Y-40130020D01*
X137490020Y-43769980D02*
X88850000Y-92410000D01*
D23*
X86850000Y-92490000D02*
X135240000Y-44100000D01*
X134750000Y-38865822D02*
X135240000Y-39355822D01*
X135750000Y-38865822D02*
X135260000Y-39355822D01*
X135260000Y-39355822D02*
X135240000Y-39355822D01*
X135240000Y-44100000D02*
X135240000Y-39355822D01*
X135750000Y-37891800D02*
X135750000Y-38865822D01*
X86850000Y-96940000D02*
X86850000Y-92490000D01*
X134750000Y-37891800D02*
X134750000Y-38865822D01*
X134250000Y-44470000D02*
X84850000Y-93870000D01*
X134250000Y-36917778D02*
X134567778Y-36600000D01*
X134250000Y-37891800D02*
X134250000Y-36917778D01*
X134250000Y-37891800D02*
X134250000Y-44470000D01*
X84850000Y-93870000D02*
X84850000Y-96940000D01*
X134930000Y-36600000D02*
X135250000Y-36920000D01*
X135250000Y-36920000D02*
X135250000Y-37891800D01*
X134567778Y-36600000D02*
X134930000Y-36600000D01*
D24*
X58225000Y-70950000D02*
X58225000Y-102545000D01*
X58225000Y-102545000D02*
X62600000Y-106920000D01*
X87320000Y-71070000D02*
X69380000Y-89010000D01*
X61230000Y-108920000D02*
X62600000Y-108920000D01*
X69380000Y-89010000D02*
X68420000Y-89010000D01*
X59380000Y-107070000D02*
X61230000Y-108920000D01*
X106230000Y-82420000D02*
X113920000Y-82420000D01*
X62600000Y-104920000D02*
X83730000Y-104920000D01*
X83730000Y-104920000D02*
X106230000Y-82420000D01*
X87200000Y-135520000D02*
X62600000Y-110920000D01*
X131420000Y-135520000D02*
X87200000Y-135520000D01*
X108500000Y-43725000D02*
X108500000Y-60040000D01*
X108500000Y-60040000D02*
X78660000Y-89880000D01*
X78660000Y-89880000D02*
X78660000Y-99420000D01*
X108500000Y-35775000D02*
X108500000Y-43725000D01*
X78660000Y-99420000D02*
X75160000Y-102920000D01*
X75160000Y-102920000D02*
X62600000Y-102920000D01*
X55500000Y-35775000D02*
X55500000Y-43725000D01*
X55500000Y-43725000D02*
X55500000Y-105820000D01*
X55500000Y-105820000D02*
X62600000Y-112920000D01*
X65120000Y-114990000D02*
X69550000Y-119420000D01*
X180170000Y-67920000D02*
X228266800Y-67920000D01*
X62600000Y-114920000D02*
X65050000Y-114920000D01*
X69550000Y-119420000D02*
X69640000Y-119420000D01*
X180100000Y-67850000D02*
X180170000Y-67920000D01*
X228266800Y-67920000D02*
X233336400Y-62850400D01*
X65050000Y-114920000D02*
X65120000Y-114990000D01*
X62600000Y-116920000D02*
X54290000Y-108610000D01*
X78740000Y-53485000D02*
X88500000Y-43725000D01*
X54290000Y-108610000D02*
X54290000Y-81140000D01*
X67650000Y-81050000D02*
X78740000Y-69960000D01*
X88500000Y-35775000D02*
X88500000Y-43725000D01*
X78740000Y-69960000D02*
X78740000Y-53485000D01*
X184980000Y-59360000D02*
X157750000Y-86590000D01*
X157750000Y-86590000D02*
X140440000Y-86590000D01*
X204390000Y-59360000D02*
X184980000Y-59360000D01*
X140440000Y-86590000D02*
X129570000Y-97460000D01*
X129570000Y-97460000D02*
X97790000Y-97460000D01*
X97790000Y-99460000D02*
X88950000Y-108300000D01*
X65500000Y-35775000D02*
X65500000Y-43725000D01*
X88950000Y-108300000D02*
X65740000Y-108300000D01*
X65740000Y-102040000D02*
X65500000Y-101800000D01*
X65500000Y-101800000D02*
X65500000Y-43725000D01*
X130600000Y-93140000D02*
X140120000Y-83620000D01*
X151200000Y-83620000D02*
X175340000Y-59480000D01*
X115150000Y-101460000D02*
X117310000Y-99300000D01*
X97790000Y-101460000D02*
X115150000Y-101460000D01*
X175340000Y-59480000D02*
X175420000Y-59480000D01*
X130600000Y-93170000D02*
X130600000Y-93140000D01*
X140120000Y-83620000D02*
X151200000Y-83620000D01*
X124130000Y-95740000D02*
X124130000Y-95750000D01*
X116420000Y-103460000D02*
X97790000Y-103460000D01*
X148860000Y-71010000D02*
X124130000Y-95740000D01*
X120470000Y-99410000D02*
X116420000Y-103460000D01*
X123990000Y-105460000D02*
X97790000Y-105460000D01*
X135790000Y-93660000D02*
X123990000Y-105460000D01*
X169860000Y-90940000D02*
X165150000Y-90940000D01*
X165150000Y-90940000D02*
X162430000Y-93660000D01*
X162430000Y-93660000D02*
X135790000Y-93660000D01*
X137840000Y-107460000D02*
X143250000Y-102050000D01*
X97790000Y-107460000D02*
X137840000Y-107460000D01*
X98490000Y-52700000D02*
X98500000Y-52690000D01*
X104580000Y-92450000D02*
X104580000Y-85890000D01*
X98500000Y-35775000D02*
X98500000Y-43725000D01*
X98500000Y-52690000D02*
X98500000Y-43725000D01*
X97790000Y-109460000D02*
X104380000Y-109460000D01*
X104380000Y-109460000D02*
X104580000Y-109260000D01*
X198710000Y-90940000D02*
X189910000Y-99740000D01*
X189910000Y-99740000D02*
X152690000Y-99740000D01*
X138430000Y-114000000D02*
X97810000Y-114000000D01*
X152690000Y-99740000D02*
X138430000Y-114000000D01*
X156330000Y-102820000D02*
X138890000Y-120260000D01*
X101550000Y-120260000D02*
X97810000Y-124000000D01*
X138890000Y-120260000D02*
X101550000Y-120260000D01*
X227896400Y-94190400D02*
X219266800Y-102820000D01*
X219266800Y-102820000D02*
X156330000Y-102820000D01*
X75500000Y-68640000D02*
X75500000Y-43725000D01*
X75540000Y-68680000D02*
X75500000Y-68640000D01*
X61960000Y-130350000D02*
X53330000Y-121720000D01*
X53330000Y-121720000D02*
X53330000Y-86960000D01*
X75500000Y-35775000D02*
X75500000Y-43725000D01*
X133410000Y-39079822D02*
X133410000Y-42677500D01*
X133410000Y-42677500D02*
X133412500Y-42680000D01*
X133250000Y-38919822D02*
X133410000Y-39079822D01*
X133250000Y-37891800D02*
X133250000Y-38919822D01*
X136250000Y-37891800D02*
X136250000Y-42342500D01*
X136250000Y-42342500D02*
X136587500Y-42680000D01*
X78155000Y-33930000D02*
X80000000Y-35775000D01*
X80000000Y-35775000D02*
X81845000Y-33930000D01*
X60000000Y-48300000D02*
X56950000Y-51350000D01*
X53960000Y-51360000D02*
X53930000Y-51390000D01*
X104805000Y-33970000D02*
X111195000Y-33970000D01*
X80000000Y-35775000D02*
X80000000Y-43725000D01*
X111195000Y-33970000D02*
X113000000Y-35775000D01*
X61855000Y-33920000D02*
X68145000Y-33920000D01*
X93000000Y-35775000D02*
X94825000Y-33950000D01*
X81845000Y-33930000D02*
X91155000Y-33930000D01*
X53930000Y-51390000D02*
X53930000Y-62150000D01*
X113000000Y-35775000D02*
X113000000Y-43725000D01*
X60000000Y-43725000D02*
X60000000Y-48300000D01*
X68145000Y-33920000D02*
X70000000Y-35775000D01*
X71845000Y-33930000D02*
X78155000Y-33930000D01*
X91155000Y-33930000D02*
X93000000Y-35775000D01*
X103000000Y-43725000D02*
X103000000Y-35775000D01*
X101175000Y-33950000D02*
X103000000Y-35775000D01*
X70000000Y-43725000D02*
X70000000Y-35775000D01*
X70000000Y-35775000D02*
X71845000Y-33930000D01*
X60000000Y-35775000D02*
X60000000Y-43725000D01*
X94825000Y-33950000D02*
X101175000Y-33950000D01*
X103000000Y-35775000D02*
X104805000Y-33970000D01*
X93000000Y-35775000D02*
X93000000Y-43725000D01*
X53930000Y-62150000D02*
X53290000Y-62790000D01*
X60000000Y-35775000D02*
X61855000Y-33920000D01*
X53290000Y-62790000D02*
X24430000Y-62790000D01*
X51170000Y-117300000D02*
X32270000Y-98400000D01*
X32270000Y-98400000D02*
X24430000Y-98400000D01*
%TA.AperFunction,Conductor*%
G36*
X131683621Y-37657802D02*
G01*
X131730114Y-37711458D01*
X131741500Y-37763800D01*
X131741500Y-38019800D01*
X131741441Y-38020000D01*
X130902044Y-38020000D01*
X130902000Y-38019800D01*
X130902000Y-37763800D01*
X130922002Y-37695679D01*
X130975658Y-37649186D01*
X131028000Y-37637800D01*
X131615500Y-37637800D01*
X131683621Y-37657802D01*
G37*
%TD.AperFunction*%
%TA.AperFunction,Conductor*%
G36*
X139040121Y-37657802D02*
G01*
X139086614Y-37711458D01*
X139098000Y-37763800D01*
X139098000Y-38019800D01*
X139097941Y-38020000D01*
X138258544Y-38020000D01*
X138258500Y-38019800D01*
X138258500Y-37763800D01*
X138278502Y-37695679D01*
X138332158Y-37649186D01*
X138384500Y-37637800D01*
X138972000Y-37637800D01*
X139040121Y-37657802D01*
G37*
%TD.AperFunction*%
%TA.AperFunction,Conductor*%
G36*
X138950353Y-31340002D02*
G01*
X138996846Y-31393658D01*
X139006950Y-31463932D01*
X138977456Y-31528512D01*
X138939514Y-31555656D01*
X138940570Y-31557677D01*
X138770846Y-31646407D01*
X138760585Y-31653121D01*
X138616127Y-31769268D01*
X138607368Y-31777846D01*
X138488222Y-31919839D01*
X138481292Y-31929959D01*
X138391998Y-32092385D01*
X138387166Y-32103658D01*
X138331120Y-32280338D01*
X138328570Y-32292332D01*
X138312393Y-32436561D01*
X138312000Y-32443585D01*
X138312000Y-32524685D01*
X138316475Y-32539924D01*
X138317865Y-32541129D01*
X138325548Y-32542800D01*
X140309885Y-32542800D01*
X140325124Y-32538325D01*
X140326329Y-32536935D01*
X140328000Y-32529252D01*
X140328000Y-32450143D01*
X140327699Y-32443995D01*
X140314188Y-32306197D01*
X140311805Y-32294162D01*
X140258233Y-32116724D01*
X140253559Y-32105384D01*
X140166540Y-31941723D01*
X140159751Y-31931506D01*
X140042603Y-31787867D01*
X140033959Y-31779163D01*
X139891144Y-31661016D01*
X139880973Y-31654156D01*
X139717922Y-31565994D01*
X139708790Y-31562156D01*
X139653742Y-31517321D01*
X139631672Y-31449842D01*
X139649587Y-31381143D01*
X139701800Y-31333036D01*
X139757613Y-31320000D01*
X140604000Y-31320000D01*
X140672121Y-31340002D01*
X140718614Y-31393658D01*
X140730000Y-31446000D01*
X140730000Y-37894000D01*
X140709998Y-37962121D01*
X140656342Y-38008614D01*
X140604000Y-38020000D01*
X140393251Y-38020000D01*
X140325130Y-37999998D01*
X140278637Y-37946342D01*
X140268533Y-37876068D01*
X140273149Y-37855902D01*
X140308880Y-37743262D01*
X140311430Y-37731268D01*
X140327607Y-37587039D01*
X140328000Y-37580015D01*
X140328000Y-37248915D01*
X140323525Y-37233676D01*
X140322135Y-37232471D01*
X140314452Y-37230800D01*
X138590674Y-37230800D01*
X138522553Y-37210798D01*
X138476060Y-37157142D01*
X138465956Y-37086868D01*
X138495450Y-37022288D01*
X138504101Y-37013252D01*
X138523527Y-36994882D01*
X138523529Y-36994880D01*
X138528485Y-36990193D01*
X138532317Y-36984555D01*
X138532320Y-36984551D01*
X138626442Y-36846055D01*
X138630277Y-36840412D01*
X138645638Y-36802006D01*
X138689505Y-36746187D01*
X138762626Y-36722800D01*
X139047885Y-36722800D01*
X139063124Y-36718325D01*
X139064329Y-36716935D01*
X139066000Y-36709252D01*
X139066000Y-36704685D01*
X139574000Y-36704685D01*
X139578475Y-36719924D01*
X139579865Y-36721129D01*
X139587548Y-36722800D01*
X140309885Y-36722800D01*
X140325124Y-36718325D01*
X140326329Y-36716935D01*
X140328000Y-36709252D01*
X140328000Y-36380143D01*
X140327699Y-36373995D01*
X140314188Y-36236197D01*
X140311805Y-36224162D01*
X140258233Y-36046724D01*
X140253559Y-36035384D01*
X140166540Y-35871723D01*
X140159751Y-35861506D01*
X140042603Y-35717867D01*
X140033959Y-35709163D01*
X139891144Y-35591016D01*
X139880973Y-35584156D01*
X139717924Y-35495996D01*
X139706619Y-35491244D01*
X139591308Y-35455550D01*
X139577205Y-35455344D01*
X139574000Y-35462099D01*
X139574000Y-36704685D01*
X139066000Y-36704685D01*
X139066000Y-35468876D01*
X139062027Y-35455345D01*
X139054232Y-35454225D01*
X138946479Y-35485938D01*
X138935111Y-35490531D01*
X138770846Y-35576407D01*
X138760585Y-35583121D01*
X138616127Y-35699268D01*
X138607368Y-35707846D01*
X138563000Y-35760721D01*
X138503890Y-35800048D01*
X138432902Y-35801174D01*
X138389952Y-35779828D01*
X138324322Y-35729650D01*
X138184511Y-35664455D01*
X138166369Y-35655995D01*
X138166366Y-35655994D01*
X138160192Y-35653115D01*
X138153544Y-35651629D01*
X138153541Y-35651628D01*
X137988494Y-35614736D01*
X137988495Y-35614736D01*
X137983457Y-35613610D01*
X137977912Y-35613300D01*
X137844756Y-35613300D01*
X137709963Y-35627943D01*
X137626609Y-35655995D01*
X137544796Y-35683528D01*
X137544794Y-35683529D01*
X137538325Y-35685706D01*
X137383095Y-35778977D01*
X137378138Y-35783665D01*
X137378135Y-35783667D01*
X137256473Y-35898718D01*
X137251515Y-35903407D01*
X137247683Y-35909045D01*
X137247680Y-35909049D01*
X137178855Y-36010322D01*
X137149723Y-36053188D01*
X137082470Y-36221334D01*
X137081356Y-36228062D01*
X137081355Y-36228066D01*
X137056179Y-36380143D01*
X137052892Y-36399998D01*
X137053249Y-36406815D01*
X137053249Y-36406819D01*
X137059480Y-36525706D01*
X137043071Y-36594780D01*
X136991922Y-36644017D01*
X136933653Y-36658300D01*
X136551866Y-36658300D01*
X136548471Y-36658669D01*
X136548467Y-36658669D01*
X136522469Y-36661493D01*
X136513606Y-36662456D01*
X136486394Y-36662456D01*
X136477531Y-36661493D01*
X136451533Y-36658669D01*
X136451529Y-36658669D01*
X136448134Y-36658300D01*
X136051866Y-36658300D01*
X136048471Y-36658669D01*
X136048467Y-36658669D01*
X136022469Y-36661493D01*
X136013606Y-36662456D01*
X135986394Y-36662456D01*
X135977531Y-36661493D01*
X135951533Y-36658669D01*
X135951529Y-36658669D01*
X135948134Y-36658300D01*
X135878324Y-36658300D01*
X135810203Y-36638298D01*
X135778364Y-36609007D01*
X135756756Y-36580847D01*
X135708477Y-36517928D01*
X135708474Y-36517925D01*
X135694976Y-36500334D01*
X135689016Y-36492566D01*
X135689013Y-36492563D01*
X135683987Y-36486013D01*
X135674540Y-36478764D01*
X135658621Y-36466548D01*
X135646230Y-36455681D01*
X135394315Y-36203766D01*
X135383448Y-36191375D01*
X135369013Y-36172563D01*
X135363987Y-36166013D01*
X135332075Y-36141526D01*
X135332072Y-36141523D01*
X135236876Y-36068476D01*
X135088851Y-36007162D01*
X135080664Y-36006084D01*
X135080663Y-36006084D01*
X135069458Y-36004609D01*
X135038262Y-36000502D01*
X134969885Y-35991500D01*
X134969882Y-35991500D01*
X134969874Y-35991499D01*
X134938189Y-35987328D01*
X134930000Y-35986250D01*
X134898307Y-35990422D01*
X134881864Y-35991500D01*
X134615914Y-35991500D01*
X134599471Y-35990422D01*
X134567778Y-35986250D01*
X134559589Y-35987328D01*
X134527904Y-35991499D01*
X134527895Y-35991500D01*
X134527893Y-35991500D01*
X134527887Y-35991501D01*
X134527885Y-35991501D01*
X134428321Y-36004609D01*
X134417114Y-36006084D01*
X134417112Y-36006085D01*
X134408927Y-36007162D01*
X134260902Y-36068476D01*
X134180546Y-36130136D01*
X134133791Y-36166013D01*
X134128765Y-36172563D01*
X134114330Y-36191375D01*
X134103463Y-36203767D01*
X133853766Y-36453463D01*
X133841376Y-36464329D01*
X133816013Y-36483791D01*
X133791526Y-36515703D01*
X133791523Y-36515706D01*
X133730847Y-36594780D01*
X133719932Y-36609005D01*
X133662594Y-36650872D01*
X133619970Y-36658300D01*
X133551866Y-36658300D01*
X133548471Y-36658669D01*
X133548467Y-36658669D01*
X133522469Y-36661493D01*
X133513606Y-36662456D01*
X133486394Y-36662456D01*
X133477531Y-36661493D01*
X133451533Y-36658669D01*
X133451529Y-36658669D01*
X133448134Y-36658300D01*
X133068416Y-36658300D01*
X133000295Y-36638298D01*
X132953802Y-36584642D01*
X132944108Y-36511721D01*
X132947108Y-36493602D01*
X132946711Y-36486013D01*
X132937987Y-36319566D01*
X132937630Y-36312753D01*
X132914304Y-36228066D01*
X132891352Y-36144741D01*
X132889539Y-36138159D01*
X132805078Y-35977964D01*
X132800673Y-35972751D01*
X132800670Y-35972747D01*
X132692594Y-35844857D01*
X132692590Y-35844853D01*
X132688187Y-35839643D01*
X132682762Y-35835495D01*
X132549743Y-35733794D01*
X132549739Y-35733791D01*
X132544322Y-35729650D01*
X132404511Y-35664455D01*
X132386369Y-35655995D01*
X132386366Y-35655994D01*
X132380192Y-35653115D01*
X132373544Y-35651629D01*
X132373541Y-35651628D01*
X132208494Y-35614736D01*
X132208495Y-35614736D01*
X132203457Y-35613610D01*
X132197912Y-35613300D01*
X132064756Y-35613300D01*
X131929963Y-35627943D01*
X131846609Y-35655995D01*
X131764796Y-35683528D01*
X131764794Y-35683529D01*
X131758325Y-35685706D01*
X131606349Y-35777022D01*
X131606346Y-35777023D01*
X131603095Y-35778977D01*
X131602745Y-35778394D01*
X131541083Y-35801865D01*
X131471609Y-35787239D01*
X131433609Y-35755885D01*
X131402603Y-35717867D01*
X131393959Y-35709163D01*
X131251144Y-35591016D01*
X131240973Y-35584156D01*
X131077924Y-35495996D01*
X131066619Y-35491244D01*
X130951308Y-35455550D01*
X130937205Y-35455344D01*
X130934000Y-35462099D01*
X130934000Y-36704685D01*
X130938475Y-36719924D01*
X130939865Y-36721129D01*
X130947548Y-36722800D01*
X131237243Y-36722800D01*
X131305364Y-36742802D01*
X131348700Y-36790035D01*
X131414922Y-36915636D01*
X131419327Y-36920849D01*
X131419330Y-36920853D01*
X131506051Y-37023472D01*
X131534743Y-37088413D01*
X131523770Y-37158556D01*
X131476617Y-37211633D01*
X131409813Y-37230800D01*
X130552000Y-37230800D01*
X130483879Y-37210798D01*
X130437386Y-37157142D01*
X130426000Y-37104800D01*
X130426000Y-35468876D01*
X130422027Y-35455345D01*
X130414232Y-35454225D01*
X130306479Y-35485938D01*
X130295111Y-35490531D01*
X130130846Y-35576407D01*
X130120585Y-35583121D01*
X129976127Y-35699268D01*
X129967368Y-35707846D01*
X129952522Y-35725538D01*
X129893412Y-35764865D01*
X129822424Y-35765991D01*
X129762097Y-35728560D01*
X129731583Y-35664455D01*
X129730000Y-35644547D01*
X129730000Y-33880765D01*
X129750002Y-33812644D01*
X129803658Y-33766151D01*
X129873932Y-33756047D01*
X129938512Y-33785541D01*
X129953645Y-33801131D01*
X129957400Y-33805736D01*
X129966041Y-33814437D01*
X130108856Y-33932584D01*
X130119027Y-33939444D01*
X130282076Y-34027604D01*
X130293381Y-34032356D01*
X130408692Y-34068050D01*
X130422795Y-34068256D01*
X130426000Y-34061501D01*
X130426000Y-34054724D01*
X130934000Y-34054724D01*
X130937973Y-34068255D01*
X130945768Y-34069375D01*
X131053521Y-34037662D01*
X131064889Y-34033069D01*
X131229154Y-33947193D01*
X131239415Y-33940479D01*
X131383873Y-33824332D01*
X131392632Y-33815754D01*
X131511778Y-33673761D01*
X131518708Y-33663641D01*
X131608002Y-33501215D01*
X131612834Y-33489942D01*
X131668880Y-33313262D01*
X131671430Y-33301268D01*
X131687607Y-33157039D01*
X131688000Y-33150015D01*
X131688000Y-33143457D01*
X138312000Y-33143457D01*
X138312301Y-33149605D01*
X138325812Y-33287403D01*
X138328195Y-33299438D01*
X138381767Y-33476876D01*
X138386441Y-33488216D01*
X138473460Y-33651877D01*
X138480249Y-33662094D01*
X138597397Y-33805733D01*
X138606041Y-33814437D01*
X138748856Y-33932584D01*
X138759027Y-33939444D01*
X138922076Y-34027604D01*
X138933381Y-34032356D01*
X139048692Y-34068050D01*
X139062795Y-34068256D01*
X139066000Y-34061501D01*
X139066000Y-34054724D01*
X139574000Y-34054724D01*
X139577973Y-34068255D01*
X139585768Y-34069375D01*
X139693521Y-34037662D01*
X139704889Y-34033069D01*
X139869154Y-33947193D01*
X139879415Y-33940479D01*
X140023873Y-33824332D01*
X140032632Y-33815754D01*
X140151778Y-33673761D01*
X140158708Y-33663641D01*
X140248002Y-33501215D01*
X140252834Y-33489942D01*
X140308880Y-33313262D01*
X140311430Y-33301268D01*
X140327607Y-33157039D01*
X140328000Y-33150015D01*
X140328000Y-33068915D01*
X140323525Y-33053676D01*
X140322135Y-33052471D01*
X140314452Y-33050800D01*
X139592115Y-33050800D01*
X139576876Y-33055275D01*
X139575671Y-33056665D01*
X139574000Y-33064348D01*
X139574000Y-34054724D01*
X139066000Y-34054724D01*
X139066000Y-33068915D01*
X139061525Y-33053676D01*
X139060135Y-33052471D01*
X139052452Y-33050800D01*
X138330115Y-33050800D01*
X138314876Y-33055275D01*
X138313671Y-33056665D01*
X138312000Y-33064348D01*
X138312000Y-33143457D01*
X131688000Y-33143457D01*
X131688000Y-33068915D01*
X131683525Y-33053676D01*
X131682135Y-33052471D01*
X131674452Y-33050800D01*
X130952115Y-33050800D01*
X130936876Y-33055275D01*
X130935671Y-33056665D01*
X130934000Y-33064348D01*
X130934000Y-34054724D01*
X130426000Y-34054724D01*
X130426000Y-32668800D01*
X130446002Y-32600679D01*
X130499658Y-32554186D01*
X130552000Y-32542800D01*
X131669885Y-32542800D01*
X131685124Y-32538325D01*
X131686329Y-32536935D01*
X131688000Y-32529252D01*
X131688000Y-32450143D01*
X131687699Y-32443995D01*
X131674188Y-32306197D01*
X131671805Y-32294162D01*
X131618233Y-32116724D01*
X131613559Y-32105384D01*
X131526540Y-31941723D01*
X131519751Y-31931506D01*
X131402603Y-31787867D01*
X131393959Y-31779163D01*
X131251144Y-31661016D01*
X131240973Y-31654156D01*
X131077922Y-31565994D01*
X131068790Y-31562156D01*
X131013742Y-31517321D01*
X130991672Y-31449842D01*
X131009587Y-31381143D01*
X131061800Y-31333036D01*
X131117613Y-31320000D01*
X138882232Y-31320000D01*
X138950353Y-31340002D01*
G37*
%TD.AperFunction*%
%TA.AperFunction,NonConductor*%
G36*
X245742121Y-74990002D02*
G01*
X245788614Y-75043658D01*
X245800000Y-75096000D01*
X245800000Y-134364000D01*
X245779998Y-134432121D01*
X245726342Y-134478614D01*
X245674000Y-134490000D01*
X240296000Y-134490000D01*
X240227879Y-134469998D01*
X240181386Y-134416342D01*
X240170000Y-134364000D01*
X240170000Y-75096000D01*
X240190002Y-75027879D01*
X240243658Y-74981386D01*
X240296000Y-74970000D01*
X245674000Y-74970000D01*
X245742121Y-74990002D01*
G37*
%TD.AperFunction*%
M02*
