%TF.GenerationSoftware,KiCad,Pcbnew,(6.0.5)*%
%TF.CreationDate,2022-08-30T07:27:48-07:00*%
%TF.ProjectId,chastity-device-rev2,63686173-7469-4747-992d-646576696365,rev?*%
%TF.SameCoordinates,Original*%
%TF.FileFunction,Legend,Bot*%
%TF.FilePolarity,Positive*%
%FSLAX46Y46*%
G04 Gerber Fmt 4.6, Leading zero omitted, Abs format (unit mm)*
G04 Created by KiCad (PCBNEW (6.0.5)) date 2022-08-30 07:27:48*
%MOMM*%
%LPD*%
G01*
G04 APERTURE LIST*
%ADD10C,0.150000*%
%ADD11C,1.701800*%
%ADD12C,3.429000*%
%ADD13C,2.032000*%
%ADD14C,4.950000*%
%ADD15C,1.524000*%
%ADD16C,0.650000*%
%ADD17O,1.000000X1.600000*%
%ADD18O,1.000000X2.100000*%
%ADD19C,0.900000*%
G04 APERTURE END LIST*
D10*
X230854404Y-146947380D02*
X230854404Y-145947380D01*
X230425833Y-146947380D02*
X230425833Y-146423571D01*
X230473452Y-146328333D01*
X230568690Y-146280714D01*
X230711547Y-146280714D01*
X230806785Y-146328333D01*
X230854404Y-146375952D01*
X230092500Y-146280714D02*
X229711547Y-146280714D01*
X229949642Y-145947380D02*
X229949642Y-146804523D01*
X229902023Y-146899761D01*
X229806785Y-146947380D01*
X229711547Y-146947380D01*
X229521071Y-146280714D02*
X229140119Y-146280714D01*
X229378214Y-145947380D02*
X229378214Y-146804523D01*
X229330595Y-146899761D01*
X229235357Y-146947380D01*
X229140119Y-146947380D01*
X228806785Y-146280714D02*
X228806785Y-147280714D01*
X228806785Y-146328333D02*
X228711547Y-146280714D01*
X228521071Y-146280714D01*
X228425833Y-146328333D01*
X228378214Y-146375952D01*
X228330595Y-146471190D01*
X228330595Y-146756904D01*
X228378214Y-146852142D01*
X228425833Y-146899761D01*
X228521071Y-146947380D01*
X228711547Y-146947380D01*
X228806785Y-146899761D01*
X227949642Y-146899761D02*
X227854404Y-146947380D01*
X227663928Y-146947380D01*
X227568690Y-146899761D01*
X227521071Y-146804523D01*
X227521071Y-146756904D01*
X227568690Y-146661666D01*
X227663928Y-146614047D01*
X227806785Y-146614047D01*
X227902023Y-146566428D01*
X227949642Y-146471190D01*
X227949642Y-146423571D01*
X227902023Y-146328333D01*
X227806785Y-146280714D01*
X227663928Y-146280714D01*
X227568690Y-146328333D01*
X227092500Y-146852142D02*
X227044880Y-146899761D01*
X227092500Y-146947380D01*
X227140119Y-146899761D01*
X227092500Y-146852142D01*
X227092500Y-146947380D01*
X227092500Y-146328333D02*
X227044880Y-146375952D01*
X227092500Y-146423571D01*
X227140119Y-146375952D01*
X227092500Y-146328333D01*
X227092500Y-146423571D01*
X225902023Y-145899761D02*
X226759166Y-147185476D01*
X224854404Y-145899761D02*
X225711547Y-147185476D01*
X224092500Y-146280714D02*
X224092500Y-147090238D01*
X224140119Y-147185476D01*
X224187738Y-147233095D01*
X224282976Y-147280714D01*
X224425833Y-147280714D01*
X224521071Y-147233095D01*
X224092500Y-146899761D02*
X224187738Y-146947380D01*
X224378214Y-146947380D01*
X224473452Y-146899761D01*
X224521071Y-146852142D01*
X224568690Y-146756904D01*
X224568690Y-146471190D01*
X224521071Y-146375952D01*
X224473452Y-146328333D01*
X224378214Y-146280714D01*
X224187738Y-146280714D01*
X224092500Y-146328333D01*
X223616309Y-146947380D02*
X223616309Y-146280714D01*
X223616309Y-145947380D02*
X223663928Y-145995000D01*
X223616309Y-146042619D01*
X223568690Y-145995000D01*
X223616309Y-145947380D01*
X223616309Y-146042619D01*
X223282976Y-146280714D02*
X222902023Y-146280714D01*
X223140119Y-145947380D02*
X223140119Y-146804523D01*
X223092500Y-146899761D01*
X222997261Y-146947380D01*
X222902023Y-146947380D01*
X222568690Y-146947380D02*
X222568690Y-145947380D01*
X222140119Y-146947380D02*
X222140119Y-146423571D01*
X222187738Y-146328333D01*
X222282976Y-146280714D01*
X222425833Y-146280714D01*
X222521071Y-146328333D01*
X222568690Y-146375952D01*
X221235357Y-146280714D02*
X221235357Y-146947380D01*
X221663928Y-146280714D02*
X221663928Y-146804523D01*
X221616309Y-146899761D01*
X221521071Y-146947380D01*
X221378214Y-146947380D01*
X221282976Y-146899761D01*
X221235357Y-146852142D01*
X220759166Y-146947380D02*
X220759166Y-145947380D01*
X220759166Y-146328333D02*
X220663928Y-146280714D01*
X220473452Y-146280714D01*
X220378214Y-146328333D01*
X220330595Y-146375952D01*
X220282976Y-146471190D01*
X220282976Y-146756904D01*
X220330595Y-146852142D01*
X220378214Y-146899761D01*
X220473452Y-146947380D01*
X220663928Y-146947380D01*
X220759166Y-146899761D01*
X219854404Y-146852142D02*
X219806785Y-146899761D01*
X219854404Y-146947380D01*
X219902023Y-146899761D01*
X219854404Y-146852142D01*
X219854404Y-146947380D01*
X218949642Y-146899761D02*
X219044880Y-146947380D01*
X219235357Y-146947380D01*
X219330595Y-146899761D01*
X219378214Y-146852142D01*
X219425833Y-146756904D01*
X219425833Y-146471190D01*
X219378214Y-146375952D01*
X219330595Y-146328333D01*
X219235357Y-146280714D01*
X219044880Y-146280714D01*
X218949642Y-146328333D01*
X218378214Y-146947380D02*
X218473452Y-146899761D01*
X218521071Y-146852142D01*
X218568690Y-146756904D01*
X218568690Y-146471190D01*
X218521071Y-146375952D01*
X218473452Y-146328333D01*
X218378214Y-146280714D01*
X218235357Y-146280714D01*
X218140119Y-146328333D01*
X218092500Y-146375952D01*
X218044880Y-146471190D01*
X218044880Y-146756904D01*
X218092500Y-146852142D01*
X218140119Y-146899761D01*
X218235357Y-146947380D01*
X218378214Y-146947380D01*
X217616309Y-146947380D02*
X217616309Y-146280714D01*
X217616309Y-146375952D02*
X217568690Y-146328333D01*
X217473452Y-146280714D01*
X217330595Y-146280714D01*
X217235357Y-146328333D01*
X217187738Y-146423571D01*
X217187738Y-146947380D01*
X217187738Y-146423571D02*
X217140119Y-146328333D01*
X217044880Y-146280714D01*
X216902023Y-146280714D01*
X216806785Y-146328333D01*
X216759166Y-146423571D01*
X216759166Y-146947380D01*
X215568690Y-145899761D02*
X216425833Y-147185476D01*
X214806785Y-146899761D02*
X214902023Y-146947380D01*
X215092500Y-146947380D01*
X215187738Y-146899761D01*
X215235357Y-146852142D01*
X215282976Y-146756904D01*
X215282976Y-146471190D01*
X215235357Y-146375952D01*
X215187738Y-146328333D01*
X215092500Y-146280714D01*
X214902023Y-146280714D01*
X214806785Y-146328333D01*
X214378214Y-146947380D02*
X214378214Y-145947380D01*
X213949642Y-146947380D02*
X213949642Y-146423571D01*
X213997261Y-146328333D01*
X214092500Y-146280714D01*
X214235357Y-146280714D01*
X214330595Y-146328333D01*
X214378214Y-146375952D01*
X213044880Y-146947380D02*
X213044880Y-146423571D01*
X213092500Y-146328333D01*
X213187738Y-146280714D01*
X213378214Y-146280714D01*
X213473452Y-146328333D01*
X213044880Y-146899761D02*
X213140119Y-146947380D01*
X213378214Y-146947380D01*
X213473452Y-146899761D01*
X213521071Y-146804523D01*
X213521071Y-146709285D01*
X213473452Y-146614047D01*
X213378214Y-146566428D01*
X213140119Y-146566428D01*
X213044880Y-146518809D01*
X212616309Y-146899761D02*
X212521071Y-146947380D01*
X212330595Y-146947380D01*
X212235357Y-146899761D01*
X212187738Y-146804523D01*
X212187738Y-146756904D01*
X212235357Y-146661666D01*
X212330595Y-146614047D01*
X212473452Y-146614047D01*
X212568690Y-146566428D01*
X212616309Y-146471190D01*
X212616309Y-146423571D01*
X212568690Y-146328333D01*
X212473452Y-146280714D01*
X212330595Y-146280714D01*
X212235357Y-146328333D01*
X211902023Y-146280714D02*
X211521071Y-146280714D01*
X211759166Y-145947380D02*
X211759166Y-146804523D01*
X211711547Y-146899761D01*
X211616309Y-146947380D01*
X211521071Y-146947380D01*
X210806785Y-146899761D02*
X210902023Y-146947380D01*
X211092500Y-146947380D01*
X211187738Y-146899761D01*
X211235357Y-146804523D01*
X211235357Y-146423571D01*
X211187738Y-146328333D01*
X211092500Y-146280714D01*
X210902023Y-146280714D01*
X210806785Y-146328333D01*
X210759166Y-146423571D01*
X210759166Y-146518809D01*
X211235357Y-146614047D01*
X210473452Y-146280714D02*
X210092500Y-146280714D01*
X210330595Y-145947380D02*
X210330595Y-146804523D01*
X210282976Y-146899761D01*
X210187738Y-146947380D01*
X210092500Y-146947380D01*
X209759166Y-146947380D02*
X209759166Y-146280714D01*
X209759166Y-145947380D02*
X209806785Y-145995000D01*
X209759166Y-146042619D01*
X209711547Y-145995000D01*
X209759166Y-145947380D01*
X209759166Y-146042619D01*
X208854404Y-146947380D02*
X208854404Y-145947380D01*
X208854404Y-146899761D02*
X208949642Y-146947380D01*
X209140119Y-146947380D01*
X209235357Y-146899761D01*
X209282976Y-146852142D01*
X209330595Y-146756904D01*
X209330595Y-146471190D01*
X209282976Y-146375952D01*
X209235357Y-146328333D01*
X209140119Y-146280714D01*
X208949642Y-146280714D01*
X208854404Y-146328333D01*
X207949642Y-146947380D02*
X207949642Y-145947380D01*
X207949642Y-146899761D02*
X208044880Y-146947380D01*
X208235357Y-146947380D01*
X208330595Y-146899761D01*
X208378214Y-146852142D01*
X208425833Y-146756904D01*
X208425833Y-146471190D01*
X208378214Y-146375952D01*
X208330595Y-146328333D01*
X208235357Y-146280714D01*
X208044880Y-146280714D01*
X207949642Y-146328333D01*
X207568690Y-146280714D02*
X207330595Y-146947380D01*
X207092500Y-146280714D02*
X207330595Y-146947380D01*
X207425833Y-147185476D01*
X207473452Y-147233095D01*
X207568690Y-147280714D01*
X205997261Y-145899761D02*
X206854404Y-147185476D01*
X205235357Y-146899761D02*
X205330595Y-146947380D01*
X205521071Y-146947380D01*
X205616309Y-146899761D01*
X205663928Y-146852142D01*
X205711547Y-146756904D01*
X205711547Y-146471190D01*
X205663928Y-146375952D01*
X205616309Y-146328333D01*
X205521071Y-146280714D01*
X205330595Y-146280714D01*
X205235357Y-146328333D01*
X204806785Y-146947380D02*
X204806785Y-145947380D01*
X204378214Y-146947380D02*
X204378214Y-146423571D01*
X204425833Y-146328333D01*
X204521071Y-146280714D01*
X204663928Y-146280714D01*
X204759166Y-146328333D01*
X204806785Y-146375952D01*
X203473452Y-146947380D02*
X203473452Y-146423571D01*
X203521071Y-146328333D01*
X203616309Y-146280714D01*
X203806785Y-146280714D01*
X203902023Y-146328333D01*
X203473452Y-146899761D02*
X203568690Y-146947380D01*
X203806785Y-146947380D01*
X203902023Y-146899761D01*
X203949642Y-146804523D01*
X203949642Y-146709285D01*
X203902023Y-146614047D01*
X203806785Y-146566428D01*
X203568690Y-146566428D01*
X203473452Y-146518809D01*
X203044880Y-146899761D02*
X202949642Y-146947380D01*
X202759166Y-146947380D01*
X202663928Y-146899761D01*
X202616309Y-146804523D01*
X202616309Y-146756904D01*
X202663928Y-146661666D01*
X202759166Y-146614047D01*
X202902023Y-146614047D01*
X202997261Y-146566428D01*
X203044880Y-146471190D01*
X203044880Y-146423571D01*
X202997261Y-146328333D01*
X202902023Y-146280714D01*
X202759166Y-146280714D01*
X202663928Y-146328333D01*
X202330595Y-146280714D02*
X201949642Y-146280714D01*
X202187738Y-145947380D02*
X202187738Y-146804523D01*
X202140119Y-146899761D01*
X202044880Y-146947380D01*
X201949642Y-146947380D01*
X201616309Y-146947380D02*
X201616309Y-146280714D01*
X201616309Y-145947380D02*
X201663928Y-145995000D01*
X201616309Y-146042619D01*
X201568690Y-145995000D01*
X201616309Y-145947380D01*
X201616309Y-146042619D01*
X201282976Y-146280714D02*
X200902023Y-146280714D01*
X201140119Y-145947380D02*
X201140119Y-146804523D01*
X201092500Y-146899761D01*
X200997261Y-146947380D01*
X200902023Y-146947380D01*
X200663928Y-146280714D02*
X200425833Y-146947380D01*
X200187738Y-146280714D02*
X200425833Y-146947380D01*
X200521071Y-147185476D01*
X200568690Y-147233095D01*
X200663928Y-147280714D01*
X200044880Y-147042619D02*
X199282976Y-147042619D01*
X198616309Y-146947380D02*
X198616309Y-145947380D01*
X198616309Y-146899761D02*
X198711547Y-146947380D01*
X198902023Y-146947380D01*
X198997261Y-146899761D01*
X199044880Y-146852142D01*
X199092500Y-146756904D01*
X199092500Y-146471190D01*
X199044880Y-146375952D01*
X198997261Y-146328333D01*
X198902023Y-146280714D01*
X198711547Y-146280714D01*
X198616309Y-146328333D01*
X197759166Y-146899761D02*
X197854404Y-146947380D01*
X198044880Y-146947380D01*
X198140119Y-146899761D01*
X198187738Y-146804523D01*
X198187738Y-146423571D01*
X198140119Y-146328333D01*
X198044880Y-146280714D01*
X197854404Y-146280714D01*
X197759166Y-146328333D01*
X197711547Y-146423571D01*
X197711547Y-146518809D01*
X198187738Y-146614047D01*
X197378214Y-146280714D02*
X197140119Y-146947380D01*
X196902023Y-146280714D01*
X196521071Y-146947380D02*
X196521071Y-146280714D01*
X196521071Y-145947380D02*
X196568690Y-145995000D01*
X196521071Y-146042619D01*
X196473452Y-145995000D01*
X196521071Y-145947380D01*
X196521071Y-146042619D01*
X195616309Y-146899761D02*
X195711547Y-146947380D01*
X195902023Y-146947380D01*
X195997261Y-146899761D01*
X196044880Y-146852142D01*
X196092500Y-146756904D01*
X196092500Y-146471190D01*
X196044880Y-146375952D01*
X195997261Y-146328333D01*
X195902023Y-146280714D01*
X195711547Y-146280714D01*
X195616309Y-146328333D01*
X194806785Y-146899761D02*
X194902023Y-146947380D01*
X195092500Y-146947380D01*
X195187738Y-146899761D01*
X195235357Y-146804523D01*
X195235357Y-146423571D01*
X195187738Y-146328333D01*
X195092500Y-146280714D01*
X194902023Y-146280714D01*
X194806785Y-146328333D01*
X194759166Y-146423571D01*
X194759166Y-146518809D01*
X195235357Y-146614047D01*
X230425833Y-148557380D02*
X230425833Y-148033571D01*
X230473452Y-147938333D01*
X230568690Y-147890714D01*
X230759166Y-147890714D01*
X230854404Y-147938333D01*
X230425833Y-148509761D02*
X230521071Y-148557380D01*
X230759166Y-148557380D01*
X230854404Y-148509761D01*
X230902023Y-148414523D01*
X230902023Y-148319285D01*
X230854404Y-148224047D01*
X230759166Y-148176428D01*
X230521071Y-148176428D01*
X230425833Y-148128809D01*
X229521071Y-148557380D02*
X229521071Y-147557380D01*
X229521071Y-148509761D02*
X229616309Y-148557380D01*
X229806785Y-148557380D01*
X229902023Y-148509761D01*
X229949642Y-148462142D01*
X229997261Y-148366904D01*
X229997261Y-148081190D01*
X229949642Y-147985952D01*
X229902023Y-147938333D01*
X229806785Y-147890714D01*
X229616309Y-147890714D01*
X229521071Y-147938333D01*
X228616309Y-148557380D02*
X228616309Y-148033571D01*
X228663928Y-147938333D01*
X228759166Y-147890714D01*
X228949642Y-147890714D01*
X229044880Y-147938333D01*
X228616309Y-148509761D02*
X228711547Y-148557380D01*
X228949642Y-148557380D01*
X229044880Y-148509761D01*
X229092500Y-148414523D01*
X229092500Y-148319285D01*
X229044880Y-148224047D01*
X228949642Y-148176428D01*
X228711547Y-148176428D01*
X228616309Y-148128809D01*
X228140119Y-147890714D02*
X228140119Y-148890714D01*
X228140119Y-147938333D02*
X228044880Y-147890714D01*
X227854404Y-147890714D01*
X227759166Y-147938333D01*
X227711547Y-147985952D01*
X227663928Y-148081190D01*
X227663928Y-148366904D01*
X227711547Y-148462142D01*
X227759166Y-148509761D01*
X227854404Y-148557380D01*
X228044880Y-148557380D01*
X228140119Y-148509761D01*
X227378214Y-147890714D02*
X226997261Y-147890714D01*
X227235357Y-147557380D02*
X227235357Y-148414523D01*
X227187738Y-148509761D01*
X227092500Y-148557380D01*
X226997261Y-148557380D01*
X226282976Y-148509761D02*
X226378214Y-148557380D01*
X226568690Y-148557380D01*
X226663928Y-148509761D01*
X226711547Y-148414523D01*
X226711547Y-148033571D01*
X226663928Y-147938333D01*
X226568690Y-147890714D01*
X226378214Y-147890714D01*
X226282976Y-147938333D01*
X226235357Y-148033571D01*
X226235357Y-148128809D01*
X226711547Y-148224047D01*
X225378214Y-148557380D02*
X225378214Y-147557380D01*
X225378214Y-148509761D02*
X225473452Y-148557380D01*
X225663928Y-148557380D01*
X225759166Y-148509761D01*
X225806785Y-148462142D01*
X225854404Y-148366904D01*
X225854404Y-148081190D01*
X225806785Y-147985952D01*
X225759166Y-147938333D01*
X225663928Y-147890714D01*
X225473452Y-147890714D01*
X225378214Y-147938333D01*
X224282976Y-147890714D02*
X223902023Y-147890714D01*
X224140119Y-148557380D02*
X224140119Y-147700238D01*
X224092500Y-147605000D01*
X223997261Y-147557380D01*
X223902023Y-147557380D01*
X223568690Y-148557380D02*
X223568690Y-147890714D01*
X223568690Y-148081190D02*
X223521071Y-147985952D01*
X223473452Y-147938333D01*
X223378214Y-147890714D01*
X223282976Y-147890714D01*
X222806785Y-148557380D02*
X222902023Y-148509761D01*
X222949642Y-148462142D01*
X222997261Y-148366904D01*
X222997261Y-148081190D01*
X222949642Y-147985952D01*
X222902023Y-147938333D01*
X222806785Y-147890714D01*
X222663928Y-147890714D01*
X222568690Y-147938333D01*
X222521071Y-147985952D01*
X222473452Y-148081190D01*
X222473452Y-148366904D01*
X222521071Y-148462142D01*
X222568690Y-148509761D01*
X222663928Y-148557380D01*
X222806785Y-148557380D01*
X222044880Y-148557380D02*
X222044880Y-147890714D01*
X222044880Y-147985952D02*
X221997261Y-147938333D01*
X221902023Y-147890714D01*
X221759166Y-147890714D01*
X221663928Y-147938333D01*
X221616309Y-148033571D01*
X221616309Y-148557380D01*
X221616309Y-148033571D02*
X221568690Y-147938333D01*
X221473452Y-147890714D01*
X221330595Y-147890714D01*
X221235357Y-147938333D01*
X221187738Y-148033571D01*
X221187738Y-148557380D01*
X219949642Y-147890714D02*
X219949642Y-148747857D01*
X219997261Y-148843095D01*
X220092500Y-148890714D01*
X220140119Y-148890714D01*
X219949642Y-147557380D02*
X219997261Y-147605000D01*
X219949642Y-147652619D01*
X219902023Y-147605000D01*
X219949642Y-147557380D01*
X219949642Y-147652619D01*
X219616309Y-147890714D02*
X219235357Y-147890714D01*
X219473452Y-148557380D02*
X219473452Y-147700238D01*
X219425833Y-147605000D01*
X219330595Y-147557380D01*
X219235357Y-147557380D01*
X218521071Y-148509761D02*
X218616309Y-148557380D01*
X218806785Y-148557380D01*
X218902023Y-148509761D01*
X218949642Y-148414523D01*
X218949642Y-148033571D01*
X218902023Y-147938333D01*
X218806785Y-147890714D01*
X218616309Y-147890714D01*
X218521071Y-147938333D01*
X218473452Y-148033571D01*
X218473452Y-148128809D01*
X218949642Y-148224047D01*
X217616309Y-148557380D02*
X217616309Y-147557380D01*
X217616309Y-148509761D02*
X217711547Y-148557380D01*
X217902023Y-148557380D01*
X217997261Y-148509761D01*
X218044880Y-148462142D01*
X218092500Y-148366904D01*
X218092500Y-148081190D01*
X218044880Y-147985952D01*
X217997261Y-147938333D01*
X217902023Y-147890714D01*
X217711547Y-147890714D01*
X217616309Y-147938333D01*
X216997261Y-148557380D02*
X217092500Y-148509761D01*
X217140119Y-148462142D01*
X217187738Y-148366904D01*
X217187738Y-148081190D01*
X217140119Y-147985952D01*
X217092500Y-147938333D01*
X216997261Y-147890714D01*
X216854404Y-147890714D01*
X216759166Y-147938333D01*
X216711547Y-147985952D01*
X216663928Y-148081190D01*
X216663928Y-148366904D01*
X216711547Y-148462142D01*
X216759166Y-148509761D01*
X216854404Y-148557380D01*
X216997261Y-148557380D01*
X216235357Y-148557380D02*
X216235357Y-147890714D01*
X216235357Y-148081190D02*
X216187738Y-147985952D01*
X216140119Y-147938333D01*
X216044880Y-147890714D01*
X215949642Y-147890714D01*
X215663928Y-147652619D02*
X215616309Y-147605000D01*
X215521071Y-147557380D01*
X215282976Y-147557380D01*
X215187738Y-147605000D01*
X215140119Y-147652619D01*
X215092500Y-147747857D01*
X215092500Y-147843095D01*
X215140119Y-147985952D01*
X215711547Y-148557380D01*
X215092500Y-148557380D01*
X214616309Y-147557380D02*
X214711547Y-147747857D01*
X214235357Y-148509761D02*
X214140119Y-148557380D01*
X213949642Y-148557380D01*
X213854404Y-148509761D01*
X213806785Y-148414523D01*
X213806785Y-148366904D01*
X213854404Y-148271666D01*
X213949642Y-148224047D01*
X214092500Y-148224047D01*
X214187738Y-148176428D01*
X214235357Y-148081190D01*
X214235357Y-148033571D01*
X214187738Y-147938333D01*
X214092500Y-147890714D01*
X213949642Y-147890714D01*
X213854404Y-147938333D01*
X212759166Y-147890714D02*
X212378214Y-147890714D01*
X212616309Y-148557380D02*
X212616309Y-147700238D01*
X212568690Y-147605000D01*
X212473452Y-147557380D01*
X212378214Y-147557380D01*
X211902023Y-148557380D02*
X211997261Y-148509761D01*
X212044880Y-148414523D01*
X212044880Y-147557380D01*
X211092500Y-148557380D02*
X211092500Y-148033571D01*
X211140119Y-147938333D01*
X211235357Y-147890714D01*
X211425833Y-147890714D01*
X211521071Y-147938333D01*
X211092500Y-148509761D02*
X211187738Y-148557380D01*
X211425833Y-148557380D01*
X211521071Y-148509761D01*
X211568690Y-148414523D01*
X211568690Y-148319285D01*
X211521071Y-148224047D01*
X211425833Y-148176428D01*
X211187738Y-148176428D01*
X211092500Y-148128809D01*
X210759166Y-147890714D02*
X210378214Y-147890714D01*
X210616309Y-147557380D02*
X210616309Y-148414523D01*
X210568690Y-148509761D01*
X210473452Y-148557380D01*
X210378214Y-148557380D01*
X210044880Y-148557380D02*
X210044880Y-147557380D01*
X210044880Y-147938333D02*
X209949642Y-147890714D01*
X209759166Y-147890714D01*
X209663928Y-147938333D01*
X209616309Y-147985952D01*
X209568690Y-148081190D01*
X209568690Y-148366904D01*
X209616309Y-148462142D01*
X209663928Y-148509761D01*
X209759166Y-148557380D01*
X209949642Y-148557380D01*
X210044880Y-148509761D01*
X208997261Y-148557380D02*
X209092500Y-148509761D01*
X209140119Y-148462142D01*
X209187738Y-148366904D01*
X209187738Y-148081190D01*
X209140119Y-147985952D01*
X209092500Y-147938333D01*
X208997261Y-147890714D01*
X208854404Y-147890714D01*
X208759166Y-147938333D01*
X208711547Y-147985952D01*
X208663928Y-148081190D01*
X208663928Y-148366904D01*
X208711547Y-148462142D01*
X208759166Y-148509761D01*
X208854404Y-148557380D01*
X208997261Y-148557380D01*
X208330595Y-148557380D02*
X207806785Y-147890714D01*
X208330595Y-147890714D02*
X207806785Y-148557380D01*
X206663928Y-148557380D02*
X206663928Y-147890714D01*
X206663928Y-148081190D02*
X206616309Y-147985952D01*
X206568690Y-147938333D01*
X206473452Y-147890714D01*
X206378214Y-147890714D01*
X205663928Y-148509761D02*
X205759166Y-148557380D01*
X205949642Y-148557380D01*
X206044880Y-148509761D01*
X206092500Y-148414523D01*
X206092500Y-148033571D01*
X206044880Y-147938333D01*
X205949642Y-147890714D01*
X205759166Y-147890714D01*
X205663928Y-147938333D01*
X205616309Y-148033571D01*
X205616309Y-148128809D01*
X206092500Y-148224047D01*
X205282976Y-147890714D02*
X205044880Y-148557380D01*
X204806785Y-147890714D01*
X204521071Y-147557380D02*
X203902023Y-147557380D01*
X204235357Y-147938333D01*
X204092500Y-147938333D01*
X203997261Y-147985952D01*
X203949642Y-148033571D01*
X203902023Y-148128809D01*
X203902023Y-148366904D01*
X203949642Y-148462142D01*
X203997261Y-148509761D01*
X204092500Y-148557380D01*
X204378214Y-148557380D01*
X204473452Y-148509761D01*
X204521071Y-148462142D01*
X202711547Y-148557380D02*
X202711547Y-147557380D01*
X202711547Y-147938333D02*
X202616309Y-147890714D01*
X202425833Y-147890714D01*
X202330595Y-147938333D01*
X202282976Y-147985952D01*
X202235357Y-148081190D01*
X202235357Y-148366904D01*
X202282976Y-148462142D01*
X202330595Y-148509761D01*
X202425833Y-148557380D01*
X202616309Y-148557380D01*
X202711547Y-148509761D01*
X201902023Y-147890714D02*
X201663928Y-148557380D01*
X201425833Y-147890714D02*
X201663928Y-148557380D01*
X201759166Y-148795476D01*
X201806785Y-148843095D01*
X201902023Y-148890714D01*
X199854404Y-148509761D02*
X199949642Y-148557380D01*
X200140119Y-148557380D01*
X200235357Y-148509761D01*
X200282976Y-148462142D01*
X200330595Y-148366904D01*
X200330595Y-148081190D01*
X200282976Y-147985952D01*
X200235357Y-147938333D01*
X200140119Y-147890714D01*
X199949642Y-147890714D01*
X199854404Y-147938333D01*
X199425833Y-148557380D02*
X199425833Y-147557380D01*
X198997261Y-148557380D02*
X198997261Y-148033571D01*
X199044880Y-147938333D01*
X199140119Y-147890714D01*
X199282976Y-147890714D01*
X199378214Y-147938333D01*
X199425833Y-147985952D01*
X198092500Y-148557380D02*
X198092500Y-148033571D01*
X198140119Y-147938333D01*
X198235357Y-147890714D01*
X198425833Y-147890714D01*
X198521071Y-147938333D01*
X198092500Y-148509761D02*
X198187738Y-148557380D01*
X198425833Y-148557380D01*
X198521071Y-148509761D01*
X198568690Y-148414523D01*
X198568690Y-148319285D01*
X198521071Y-148224047D01*
X198425833Y-148176428D01*
X198187738Y-148176428D01*
X198092500Y-148128809D01*
X197663928Y-148509761D02*
X197568690Y-148557380D01*
X197378214Y-148557380D01*
X197282976Y-148509761D01*
X197235357Y-148414523D01*
X197235357Y-148366904D01*
X197282976Y-148271666D01*
X197378214Y-148224047D01*
X197521071Y-148224047D01*
X197616309Y-148176428D01*
X197663928Y-148081190D01*
X197663928Y-148033571D01*
X197616309Y-147938333D01*
X197521071Y-147890714D01*
X197378214Y-147890714D01*
X197282976Y-147938333D01*
X196949642Y-147890714D02*
X196568690Y-147890714D01*
X196806785Y-147557380D02*
X196806785Y-148414523D01*
X196759166Y-148509761D01*
X196663928Y-148557380D01*
X196568690Y-148557380D01*
X196235357Y-148557380D02*
X196235357Y-147890714D01*
X196235357Y-147557380D02*
X196282976Y-147605000D01*
X196235357Y-147652619D01*
X196187738Y-147605000D01*
X196235357Y-147557380D01*
X196235357Y-147652619D01*
X195902023Y-147890714D02*
X195521071Y-147890714D01*
X195759166Y-147557380D02*
X195759166Y-148414523D01*
X195711547Y-148509761D01*
X195616309Y-148557380D01*
X195521071Y-148557380D01*
X195282976Y-147890714D02*
X195044880Y-148557380D01*
X194806785Y-147890714D02*
X195044880Y-148557380D01*
X195140119Y-148795476D01*
X195187738Y-148843095D01*
X195282976Y-148890714D01*
X193235357Y-148557380D02*
X193235357Y-148033571D01*
X193282976Y-147938333D01*
X193378214Y-147890714D01*
X193568690Y-147890714D01*
X193663928Y-147938333D01*
X193235357Y-148509761D02*
X193330595Y-148557380D01*
X193568690Y-148557380D01*
X193663928Y-148509761D01*
X193711547Y-148414523D01*
X193711547Y-148319285D01*
X193663928Y-148224047D01*
X193568690Y-148176428D01*
X193330595Y-148176428D01*
X193235357Y-148128809D01*
X192759166Y-147890714D02*
X192759166Y-148557380D01*
X192759166Y-147985952D02*
X192711547Y-147938333D01*
X192616309Y-147890714D01*
X192473452Y-147890714D01*
X192378214Y-147938333D01*
X192330595Y-148033571D01*
X192330595Y-148557380D01*
X191425833Y-148557380D02*
X191425833Y-148033571D01*
X191473452Y-147938333D01*
X191568690Y-147890714D01*
X191759166Y-147890714D01*
X191854404Y-147938333D01*
X191425833Y-148509761D02*
X191521071Y-148557380D01*
X191759166Y-148557380D01*
X191854404Y-148509761D01*
X191902023Y-148414523D01*
X191902023Y-148319285D01*
X191854404Y-148224047D01*
X191759166Y-148176428D01*
X191521071Y-148176428D01*
X191425833Y-148128809D01*
X191092500Y-147890714D02*
X190711547Y-147890714D01*
X190949642Y-147557380D02*
X190949642Y-148414523D01*
X190902023Y-148509761D01*
X190806785Y-148557380D01*
X190711547Y-148557380D01*
X190378214Y-148557380D02*
X190378214Y-147557380D01*
X189949642Y-148557380D02*
X189949642Y-148033571D01*
X189997261Y-147938333D01*
X190092500Y-147890714D01*
X190235357Y-147890714D01*
X190330595Y-147938333D01*
X190378214Y-147985952D01*
X189092500Y-148509761D02*
X189187738Y-148557380D01*
X189378214Y-148557380D01*
X189473452Y-148509761D01*
X189521071Y-148414523D01*
X189521071Y-148033571D01*
X189473452Y-147938333D01*
X189378214Y-147890714D01*
X189187738Y-147890714D01*
X189092500Y-147938333D01*
X189044880Y-148033571D01*
X189044880Y-148128809D01*
X189521071Y-148224047D01*
X188616309Y-148557380D02*
X188616309Y-147890714D01*
X188616309Y-147985952D02*
X188568690Y-147938333D01*
X188473452Y-147890714D01*
X188330595Y-147890714D01*
X188235357Y-147938333D01*
X188187738Y-148033571D01*
X188187738Y-148557380D01*
X188187738Y-148033571D02*
X188140119Y-147938333D01*
X188044880Y-147890714D01*
X187902023Y-147890714D01*
X187806785Y-147938333D01*
X187759166Y-148033571D01*
X187759166Y-148557380D01*
X186854404Y-148557380D02*
X186854404Y-148033571D01*
X186902023Y-147938333D01*
X186997261Y-147890714D01*
X187187738Y-147890714D01*
X187282976Y-147938333D01*
X186854404Y-148509761D02*
X186949642Y-148557380D01*
X187187738Y-148557380D01*
X187282976Y-148509761D01*
X187330595Y-148414523D01*
X187330595Y-148319285D01*
X187282976Y-148224047D01*
X187187738Y-148176428D01*
X186949642Y-148176428D01*
X186854404Y-148128809D01*
X93098333Y-57954761D02*
X92955476Y-58002380D01*
X92717380Y-58002380D01*
X92622142Y-57954761D01*
X92574523Y-57907142D01*
X92526904Y-57811904D01*
X92526904Y-57716666D01*
X92574523Y-57621428D01*
X92622142Y-57573809D01*
X92717380Y-57526190D01*
X92907857Y-57478571D01*
X93003095Y-57430952D01*
X93050714Y-57383333D01*
X93098333Y-57288095D01*
X93098333Y-57192857D01*
X93050714Y-57097619D01*
X93003095Y-57050000D01*
X92907857Y-57002380D01*
X92669761Y-57002380D01*
X92526904Y-57050000D01*
X92193571Y-57002380D02*
X91955476Y-58002380D01*
X91765000Y-57288095D01*
X91574523Y-58002380D01*
X91336428Y-57002380D01*
X90812619Y-57430952D02*
X90907857Y-57383333D01*
X90955476Y-57335714D01*
X91003095Y-57240476D01*
X91003095Y-57192857D01*
X90955476Y-57097619D01*
X90907857Y-57050000D01*
X90812619Y-57002380D01*
X90622142Y-57002380D01*
X90526904Y-57050000D01*
X90479285Y-57097619D01*
X90431666Y-57192857D01*
X90431666Y-57240476D01*
X90479285Y-57335714D01*
X90526904Y-57383333D01*
X90622142Y-57430952D01*
X90812619Y-57430952D01*
X90907857Y-57478571D01*
X90955476Y-57526190D01*
X91003095Y-57621428D01*
X91003095Y-57811904D01*
X90955476Y-57907142D01*
X90907857Y-57954761D01*
X90812619Y-58002380D01*
X90622142Y-58002380D01*
X90526904Y-57954761D01*
X90479285Y-57907142D01*
X90431666Y-57811904D01*
X90431666Y-57621428D01*
X90479285Y-57526190D01*
X90526904Y-57478571D01*
X90622142Y-57430952D01*
X119698333Y-69304761D02*
X119555476Y-69352380D01*
X119317380Y-69352380D01*
X119222142Y-69304761D01*
X119174523Y-69257142D01*
X119126904Y-69161904D01*
X119126904Y-69066666D01*
X119174523Y-68971428D01*
X119222142Y-68923809D01*
X119317380Y-68876190D01*
X119507857Y-68828571D01*
X119603095Y-68780952D01*
X119650714Y-68733333D01*
X119698333Y-68638095D01*
X119698333Y-68542857D01*
X119650714Y-68447619D01*
X119603095Y-68400000D01*
X119507857Y-68352380D01*
X119269761Y-68352380D01*
X119126904Y-68400000D01*
X118793571Y-68352380D02*
X118555476Y-69352380D01*
X118365000Y-68638095D01*
X118174523Y-69352380D01*
X117936428Y-68352380D01*
X117507857Y-69352380D02*
X117317380Y-69352380D01*
X117222142Y-69304761D01*
X117174523Y-69257142D01*
X117079285Y-69114285D01*
X117031666Y-68923809D01*
X117031666Y-68542857D01*
X117079285Y-68447619D01*
X117126904Y-68400000D01*
X117222142Y-68352380D01*
X117412619Y-68352380D01*
X117507857Y-68400000D01*
X117555476Y-68447619D01*
X117603095Y-68542857D01*
X117603095Y-68780952D01*
X117555476Y-68876190D01*
X117507857Y-68923809D01*
X117412619Y-68971428D01*
X117222142Y-68971428D01*
X117126904Y-68923809D01*
X117079285Y-68876190D01*
X117031666Y-68780952D01*
X137674523Y-122404761D02*
X137531666Y-122452380D01*
X137293571Y-122452380D01*
X137198333Y-122404761D01*
X137150714Y-122357142D01*
X137103095Y-122261904D01*
X137103095Y-122166666D01*
X137150714Y-122071428D01*
X137198333Y-122023809D01*
X137293571Y-121976190D01*
X137484047Y-121928571D01*
X137579285Y-121880952D01*
X137626904Y-121833333D01*
X137674523Y-121738095D01*
X137674523Y-121642857D01*
X137626904Y-121547619D01*
X137579285Y-121500000D01*
X137484047Y-121452380D01*
X137245952Y-121452380D01*
X137103095Y-121500000D01*
X136769761Y-121452380D02*
X136531666Y-122452380D01*
X136341190Y-121738095D01*
X136150714Y-122452380D01*
X135912619Y-121452380D01*
X135007857Y-122452380D02*
X135579285Y-122452380D01*
X135293571Y-122452380D02*
X135293571Y-121452380D01*
X135388809Y-121595238D01*
X135484047Y-121690476D01*
X135579285Y-121738095D01*
X134436428Y-121880952D02*
X134531666Y-121833333D01*
X134579285Y-121785714D01*
X134626904Y-121690476D01*
X134626904Y-121642857D01*
X134579285Y-121547619D01*
X134531666Y-121500000D01*
X134436428Y-121452380D01*
X134245952Y-121452380D01*
X134150714Y-121500000D01*
X134103095Y-121547619D01*
X134055476Y-121642857D01*
X134055476Y-121690476D01*
X134103095Y-121785714D01*
X134150714Y-121833333D01*
X134245952Y-121880952D01*
X134436428Y-121880952D01*
X134531666Y-121928571D01*
X134579285Y-121976190D01*
X134626904Y-122071428D01*
X134626904Y-122261904D01*
X134579285Y-122357142D01*
X134531666Y-122404761D01*
X134436428Y-122452380D01*
X134245952Y-122452380D01*
X134150714Y-122404761D01*
X134103095Y-122357142D01*
X134055476Y-122261904D01*
X134055476Y-122071428D01*
X134103095Y-121976190D01*
X134150714Y-121928571D01*
X134245952Y-121880952D01*
X155114523Y-57894761D02*
X154971666Y-57942380D01*
X154733571Y-57942380D01*
X154638333Y-57894761D01*
X154590714Y-57847142D01*
X154543095Y-57751904D01*
X154543095Y-57656666D01*
X154590714Y-57561428D01*
X154638333Y-57513809D01*
X154733571Y-57466190D01*
X154924047Y-57418571D01*
X155019285Y-57370952D01*
X155066904Y-57323333D01*
X155114523Y-57228095D01*
X155114523Y-57132857D01*
X155066904Y-57037619D01*
X155019285Y-56990000D01*
X154924047Y-56942380D01*
X154685952Y-56942380D01*
X154543095Y-56990000D01*
X154209761Y-56942380D02*
X153971666Y-57942380D01*
X153781190Y-57228095D01*
X153590714Y-57942380D01*
X153352619Y-56942380D01*
X152447857Y-57942380D02*
X153019285Y-57942380D01*
X152733571Y-57942380D02*
X152733571Y-56942380D01*
X152828809Y-57085238D01*
X152924047Y-57180476D01*
X153019285Y-57228095D01*
X151828809Y-56942380D02*
X151733571Y-56942380D01*
X151638333Y-56990000D01*
X151590714Y-57037619D01*
X151543095Y-57132857D01*
X151495476Y-57323333D01*
X151495476Y-57561428D01*
X151543095Y-57751904D01*
X151590714Y-57847142D01*
X151638333Y-57894761D01*
X151733571Y-57942380D01*
X151828809Y-57942380D01*
X151924047Y-57894761D01*
X151971666Y-57847142D01*
X152019285Y-57751904D01*
X152066904Y-57561428D01*
X152066904Y-57323333D01*
X152019285Y-57132857D01*
X151971666Y-57037619D01*
X151924047Y-56990000D01*
X151828809Y-56942380D01*
X181674523Y-46364761D02*
X181531666Y-46412380D01*
X181293571Y-46412380D01*
X181198333Y-46364761D01*
X181150714Y-46317142D01*
X181103095Y-46221904D01*
X181103095Y-46126666D01*
X181150714Y-46031428D01*
X181198333Y-45983809D01*
X181293571Y-45936190D01*
X181484047Y-45888571D01*
X181579285Y-45840952D01*
X181626904Y-45793333D01*
X181674523Y-45698095D01*
X181674523Y-45602857D01*
X181626904Y-45507619D01*
X181579285Y-45460000D01*
X181484047Y-45412380D01*
X181245952Y-45412380D01*
X181103095Y-45460000D01*
X180769761Y-45412380D02*
X180531666Y-46412380D01*
X180341190Y-45698095D01*
X180150714Y-46412380D01*
X179912619Y-45412380D01*
X179007857Y-46412380D02*
X179579285Y-46412380D01*
X179293571Y-46412380D02*
X179293571Y-45412380D01*
X179388809Y-45555238D01*
X179484047Y-45650476D01*
X179579285Y-45698095D01*
X178055476Y-46412380D02*
X178626904Y-46412380D01*
X178341190Y-46412380D02*
X178341190Y-45412380D01*
X178436428Y-45555238D01*
X178531666Y-45650476D01*
X178626904Y-45698095D01*
X210644523Y-46244761D02*
X210501666Y-46292380D01*
X210263571Y-46292380D01*
X210168333Y-46244761D01*
X210120714Y-46197142D01*
X210073095Y-46101904D01*
X210073095Y-46006666D01*
X210120714Y-45911428D01*
X210168333Y-45863809D01*
X210263571Y-45816190D01*
X210454047Y-45768571D01*
X210549285Y-45720952D01*
X210596904Y-45673333D01*
X210644523Y-45578095D01*
X210644523Y-45482857D01*
X210596904Y-45387619D01*
X210549285Y-45340000D01*
X210454047Y-45292380D01*
X210215952Y-45292380D01*
X210073095Y-45340000D01*
X209739761Y-45292380D02*
X209501666Y-46292380D01*
X209311190Y-45578095D01*
X209120714Y-46292380D01*
X208882619Y-45292380D01*
X207977857Y-46292380D02*
X208549285Y-46292380D01*
X208263571Y-46292380D02*
X208263571Y-45292380D01*
X208358809Y-45435238D01*
X208454047Y-45530476D01*
X208549285Y-45578095D01*
X207596904Y-45387619D02*
X207549285Y-45340000D01*
X207454047Y-45292380D01*
X207215952Y-45292380D01*
X207120714Y-45340000D01*
X207073095Y-45387619D01*
X207025476Y-45482857D01*
X207025476Y-45578095D01*
X207073095Y-45720952D01*
X207644523Y-46292380D01*
X207025476Y-46292380D01*
X239590923Y-49735161D02*
X239448066Y-49782780D01*
X239209971Y-49782780D01*
X239114733Y-49735161D01*
X239067114Y-49687542D01*
X239019495Y-49592304D01*
X239019495Y-49497066D01*
X239067114Y-49401828D01*
X239114733Y-49354209D01*
X239209971Y-49306590D01*
X239400447Y-49258971D01*
X239495685Y-49211352D01*
X239543304Y-49163733D01*
X239590923Y-49068495D01*
X239590923Y-48973257D01*
X239543304Y-48878019D01*
X239495685Y-48830400D01*
X239400447Y-48782780D01*
X239162352Y-48782780D01*
X239019495Y-48830400D01*
X238686161Y-48782780D02*
X238448066Y-49782780D01*
X238257590Y-49068495D01*
X238067114Y-49782780D01*
X237829019Y-48782780D01*
X236924257Y-49782780D02*
X237495685Y-49782780D01*
X237209971Y-49782780D02*
X237209971Y-48782780D01*
X237305209Y-48925638D01*
X237400447Y-49020876D01*
X237495685Y-49068495D01*
X236590923Y-48782780D02*
X235971876Y-48782780D01*
X236305209Y-49163733D01*
X236162352Y-49163733D01*
X236067114Y-49211352D01*
X236019495Y-49258971D01*
X235971876Y-49354209D01*
X235971876Y-49592304D01*
X236019495Y-49687542D01*
X236067114Y-49735161D01*
X236162352Y-49782780D01*
X236448066Y-49782780D01*
X236543304Y-49735161D01*
X236590923Y-49687542D01*
X149504523Y-88934761D02*
X149361666Y-88982380D01*
X149123571Y-88982380D01*
X149028333Y-88934761D01*
X148980714Y-88887142D01*
X148933095Y-88791904D01*
X148933095Y-88696666D01*
X148980714Y-88601428D01*
X149028333Y-88553809D01*
X149123571Y-88506190D01*
X149314047Y-88458571D01*
X149409285Y-88410952D01*
X149456904Y-88363333D01*
X149504523Y-88268095D01*
X149504523Y-88172857D01*
X149456904Y-88077619D01*
X149409285Y-88030000D01*
X149314047Y-87982380D01*
X149075952Y-87982380D01*
X148933095Y-88030000D01*
X148599761Y-87982380D02*
X148361666Y-88982380D01*
X148171190Y-88268095D01*
X147980714Y-88982380D01*
X147742619Y-87982380D01*
X146837857Y-88982380D02*
X147409285Y-88982380D01*
X147123571Y-88982380D02*
X147123571Y-87982380D01*
X147218809Y-88125238D01*
X147314047Y-88220476D01*
X147409285Y-88268095D01*
X145980714Y-88315714D02*
X145980714Y-88982380D01*
X146218809Y-87934761D02*
X146456904Y-88649047D01*
X145837857Y-88649047D01*
X176114523Y-77824761D02*
X175971666Y-77872380D01*
X175733571Y-77872380D01*
X175638333Y-77824761D01*
X175590714Y-77777142D01*
X175543095Y-77681904D01*
X175543095Y-77586666D01*
X175590714Y-77491428D01*
X175638333Y-77443809D01*
X175733571Y-77396190D01*
X175924047Y-77348571D01*
X176019285Y-77300952D01*
X176066904Y-77253333D01*
X176114523Y-77158095D01*
X176114523Y-77062857D01*
X176066904Y-76967619D01*
X176019285Y-76920000D01*
X175924047Y-76872380D01*
X175685952Y-76872380D01*
X175543095Y-76920000D01*
X175209761Y-76872380D02*
X174971666Y-77872380D01*
X174781190Y-77158095D01*
X174590714Y-77872380D01*
X174352619Y-76872380D01*
X173447857Y-77872380D02*
X174019285Y-77872380D01*
X173733571Y-77872380D02*
X173733571Y-76872380D01*
X173828809Y-77015238D01*
X173924047Y-77110476D01*
X174019285Y-77158095D01*
X172543095Y-76872380D02*
X173019285Y-76872380D01*
X173066904Y-77348571D01*
X173019285Y-77300952D01*
X172924047Y-77253333D01*
X172685952Y-77253333D01*
X172590714Y-77300952D01*
X172543095Y-77348571D01*
X172495476Y-77443809D01*
X172495476Y-77681904D01*
X172543095Y-77777142D01*
X172590714Y-77824761D01*
X172685952Y-77872380D01*
X172924047Y-77872380D01*
X173019285Y-77824761D01*
X173066904Y-77777142D01*
X204964523Y-77824761D02*
X204821666Y-77872380D01*
X204583571Y-77872380D01*
X204488333Y-77824761D01*
X204440714Y-77777142D01*
X204393095Y-77681904D01*
X204393095Y-77586666D01*
X204440714Y-77491428D01*
X204488333Y-77443809D01*
X204583571Y-77396190D01*
X204774047Y-77348571D01*
X204869285Y-77300952D01*
X204916904Y-77253333D01*
X204964523Y-77158095D01*
X204964523Y-77062857D01*
X204916904Y-76967619D01*
X204869285Y-76920000D01*
X204774047Y-76872380D01*
X204535952Y-76872380D01*
X204393095Y-76920000D01*
X204059761Y-76872380D02*
X203821666Y-77872380D01*
X203631190Y-77158095D01*
X203440714Y-77872380D01*
X203202619Y-76872380D01*
X202297857Y-77872380D02*
X202869285Y-77872380D01*
X202583571Y-77872380D02*
X202583571Y-76872380D01*
X202678809Y-77015238D01*
X202774047Y-77110476D01*
X202869285Y-77158095D01*
X201440714Y-76872380D02*
X201631190Y-76872380D01*
X201726428Y-76920000D01*
X201774047Y-76967619D01*
X201869285Y-77110476D01*
X201916904Y-77300952D01*
X201916904Y-77681904D01*
X201869285Y-77777142D01*
X201821666Y-77824761D01*
X201726428Y-77872380D01*
X201535952Y-77872380D01*
X201440714Y-77824761D01*
X201393095Y-77777142D01*
X201345476Y-77681904D01*
X201345476Y-77443809D01*
X201393095Y-77348571D01*
X201440714Y-77300952D01*
X201535952Y-77253333D01*
X201726428Y-77253333D01*
X201821666Y-77300952D01*
X201869285Y-77348571D01*
X201916904Y-77443809D01*
X234150923Y-81075161D02*
X234008066Y-81122780D01*
X233769971Y-81122780D01*
X233674733Y-81075161D01*
X233627114Y-81027542D01*
X233579495Y-80932304D01*
X233579495Y-80837066D01*
X233627114Y-80741828D01*
X233674733Y-80694209D01*
X233769971Y-80646590D01*
X233960447Y-80598971D01*
X234055685Y-80551352D01*
X234103304Y-80503733D01*
X234150923Y-80408495D01*
X234150923Y-80313257D01*
X234103304Y-80218019D01*
X234055685Y-80170400D01*
X233960447Y-80122780D01*
X233722352Y-80122780D01*
X233579495Y-80170400D01*
X233246161Y-80122780D02*
X233008066Y-81122780D01*
X232817590Y-80408495D01*
X232627114Y-81122780D01*
X232389019Y-80122780D01*
X231484257Y-81122780D02*
X232055685Y-81122780D01*
X231769971Y-81122780D02*
X231769971Y-80122780D01*
X231865209Y-80265638D01*
X231960447Y-80360876D01*
X232055685Y-80408495D01*
X231150923Y-80122780D02*
X230484257Y-80122780D01*
X230912828Y-81122780D01*
X64003333Y-57834761D02*
X63860476Y-57882380D01*
X63622380Y-57882380D01*
X63527142Y-57834761D01*
X63479523Y-57787142D01*
X63431904Y-57691904D01*
X63431904Y-57596666D01*
X63479523Y-57501428D01*
X63527142Y-57453809D01*
X63622380Y-57406190D01*
X63812857Y-57358571D01*
X63908095Y-57310952D01*
X63955714Y-57263333D01*
X64003333Y-57168095D01*
X64003333Y-57072857D01*
X63955714Y-56977619D01*
X63908095Y-56930000D01*
X63812857Y-56882380D01*
X63574761Y-56882380D01*
X63431904Y-56930000D01*
X63098571Y-56882380D02*
X62860476Y-57882380D01*
X62670000Y-57168095D01*
X62479523Y-57882380D01*
X62241428Y-56882380D01*
X61955714Y-56882380D02*
X61289047Y-56882380D01*
X61717619Y-57882380D01*
%LPC*%
D11*
X81820000Y-65170000D03*
D12*
X87320000Y-65170000D03*
D11*
X92820000Y-65170000D03*
D13*
X87320000Y-71070000D03*
X82320000Y-68970000D03*
D12*
X113920000Y-76520000D03*
D11*
X108420000Y-76520000D03*
X119420000Y-76520000D03*
D13*
X113920000Y-82420000D03*
X108920000Y-80320000D03*
D12*
X131420000Y-129620000D03*
D11*
X136920000Y-129620000D03*
X125920000Y-129620000D03*
D13*
X131420000Y-135520000D03*
X126420000Y-133420000D03*
D11*
X143360000Y-65110000D03*
D12*
X148860000Y-65110000D03*
D11*
X154360000Y-65110000D03*
D13*
X148860000Y-71010000D03*
X143860000Y-68910000D03*
D11*
X169920000Y-53580000D03*
X180920000Y-53580000D03*
D12*
X175420000Y-53580000D03*
D13*
X175420000Y-59480000D03*
X170420000Y-57380000D03*
D12*
X204390000Y-53460000D03*
D11*
X198890000Y-53460000D03*
X209890000Y-53460000D03*
D13*
X204390000Y-59360000D03*
X199390000Y-57260000D03*
D11*
X227836400Y-56950400D03*
D12*
X233336400Y-56950400D03*
D11*
X238836400Y-56950400D03*
D13*
X233336400Y-62850400D03*
X228336400Y-60750400D03*
D12*
X143250000Y-96150000D03*
D11*
X148750000Y-96150000D03*
X137750000Y-96150000D03*
D13*
X143250000Y-102050000D03*
X138250000Y-99950000D03*
D12*
X169860000Y-85040000D03*
D11*
X175360000Y-85040000D03*
X164360000Y-85040000D03*
D13*
X169860000Y-90940000D03*
X164860000Y-88840000D03*
D12*
X198710000Y-85040000D03*
D11*
X204210000Y-85040000D03*
X193210000Y-85040000D03*
D13*
X198710000Y-90940000D03*
X193710000Y-88840000D03*
D12*
X227896400Y-88290400D03*
D11*
X233396400Y-88290400D03*
X222396400Y-88290400D03*
D13*
X227896400Y-94190400D03*
X222896400Y-92090400D03*
D14*
X27000000Y-37000000D03*
X27000000Y-143000000D03*
X243000000Y-143000000D03*
X243000000Y-37000000D03*
D11*
X52725000Y-65050000D03*
X63725000Y-65050000D03*
D12*
X58225000Y-65050000D03*
D13*
X58225000Y-70950000D03*
X53225000Y-68850000D03*
D15*
X82850000Y-96940000D03*
X63960000Y-130350000D03*
X71050000Y-96760000D03*
X97550000Y-130350000D03*
X80850000Y-96940000D03*
X62600000Y-100920000D03*
X97810000Y-126000000D03*
X73960000Y-130350000D03*
X77050000Y-96760000D03*
X97810000Y-112000000D03*
X97790000Y-95460000D03*
X62600000Y-102920000D03*
X62600000Y-104920000D03*
X62600000Y-106920000D03*
X62600000Y-108920000D03*
X62600000Y-110920000D03*
X62600000Y-112920000D03*
X62600000Y-114920000D03*
X62600000Y-116920000D03*
X97790000Y-97460000D03*
X97790000Y-99460000D03*
X97790000Y-101460000D03*
X97790000Y-103460000D03*
X97790000Y-105460000D03*
X97790000Y-107460000D03*
X97790000Y-109460000D03*
X97810000Y-114000000D03*
X97810000Y-116000000D03*
X97810000Y-118000000D03*
X97810000Y-120000000D03*
X97810000Y-122000000D03*
X97810000Y-124000000D03*
X61960000Y-130350000D03*
X65960000Y-130350000D03*
X71960000Y-130350000D03*
X73050000Y-96760000D03*
X75050000Y-96760000D03*
X84850000Y-96940000D03*
X86850000Y-96940000D03*
X67960000Y-130350000D03*
X69960000Y-130350000D03*
X91550000Y-130350000D03*
X93550000Y-130350000D03*
X95550000Y-130350000D03*
X88850000Y-96940000D03*
X68550000Y-96760000D03*
D16*
X132110000Y-36446800D03*
X137890000Y-36446800D03*
D17*
X139320000Y-32796800D03*
D18*
X130680000Y-36976800D03*
X139320000Y-36976800D03*
D17*
X130680000Y-32796800D03*
D19*
X22670000Y-66540000D03*
X22670000Y-63540000D03*
X22670000Y-94650000D03*
X22670000Y-97650000D03*
D14*
X26980000Y-132020000D03*
M02*
